<?xml version="1.0" encoding="UTF-8" standalone="no"?>
<svg
   width="420pt"
   height="95pt"
   viewBox="0 1 2021 452"
   version="1.1"
   id="svg17"
   sodipodi:docname="2021.svg"
   inkscape:version="1.2.1 (9c6d41e410, 2022-07-14)"
   xmlns:inkscape="http://www.inkscape.org/namespaces/inkscape"
   xmlns:sodipodi="http://sodipodi.sourceforge.net/DTD/sodipodi-0.dtd"
   xmlns="http://www.w3.org/2000/svg"
   xmlns:svg="http://www.w3.org/2000/svg">
  <defs
     id="defs21" />
  <sodipodi:namedview
     id="namedview19"
     pagecolor="#ffffff"
     bordercolor="#666666"
     borderopacity="1.0"
     inkscape:showpageshadow="2"
     inkscape:pageopacity="0.0"
     inkscape:pagecheckerboard="0"
     inkscape:deskcolor="#d1d1d1"
     inkscape:document-units="pt"
     showgrid="false"
     inkscape:zoom="2.1607143"
     inkscape:cx="274.90909"
     inkscape:cy="63.404959"
     inkscape:window-width="1920"
     inkscape:window-height="1009"
     inkscape:window-x="-8"
     inkscape:window-y="-8"
     inkscape:window-maximized="1"
     inkscape:current-layer="svg17" />
  <g
     id="f000000ff"
     style="fill:#ffe680;fill-opacity:1">
    <path
       fill="#000000"
       opacity="1.00"
       d=" M 946.47 0.00 L 948.40 0.00 C 975.98 0.38 1004.15 5.76 1028.15 19.90 C 1050.91 33.01 1068.94 54.30 1077.45 79.22 C 1088.21 110.76 1085.52 146.13 1072.45 176.58 C 1061.88 201.25 1045.70 223.00 1028.52 243.43 C 1012.88 262.08 995.77 279.39 979.18 297.17 C 959.07 318.51 939.09 339.97 918.93 361.25 C 976.03 361.24 1033.14 361.25 1090.25 361.25 C 1090.25 386.58 1090.25 411.91 1090.25 437.25 C 996.08 437.25 901.92 437.25 807.75 437.25 C 807.74 415.73 807.76 394.21 807.74 372.69 C 849.45 325.79 891.33 279.04 933.10 232.20 C 950.21 213.01 967.24 193.43 980.14 171.08 C 988.73 155.86 995.56 138.81 994.80 121.04 C 994.38 107.71 988.74 94.18 978.07 85.87 C 968.54 78.22 956.02 75.18 943.98 75.48 C 930.57 75.56 917.09 81.11 908.18 91.27 C 896.98 103.85 892.51 121.20 892.74 137.75 C 863.64 137.75 834.55 137.76 805.45 137.75 C 805.83 117.08 809.39 96.30 817.38 77.17 C 824.59 59.87 835.59 44.03 849.87 31.82 C 864.90 18.80 883.31 10.05 902.54 5.29 C 916.88 1.59 931.71 0.35 946.47 0.00 Z"
       id="path2"
       style="fill:#ffe680;fill-opacity:1" />
    <path
       fill="#000000"
       opacity="1.00"
       d=" M 1301.74 0.00 L 1303.44 0.00 C 1325.04 0.37 1346.70 5.16 1365.96 15.10 C 1395.02 29.75 1417.37 55.45 1431.39 84.50 C 1450.09 123.10 1456.45 166.39 1457.69 208.89 C 1458.55 255.00 1454.66 302.04 1438.48 345.57 C 1426.65 377.42 1406.98 407.19 1378.84 426.82 C 1356.09 442.92 1328.39 451.62 1300.57 452.00 L 1299.58 452.00 C 1274.21 451.70 1248.70 445.48 1226.83 432.41 C 1208.75 421.80 1193.42 406.84 1181.47 389.68 C 1160.66 359.58 1149.94 323.68 1144.67 287.79 C 1140.38 258.03 1139.39 227.82 1141.06 197.82 C 1143.45 158.01 1151.52 117.77 1170.57 82.39 C 1186.21 53.11 1210.44 27.87 1240.75 13.76 C 1259.74 4.72 1280.76 0.34 1301.74 0.00 M 1291.11 76.19 C 1274.88 79.04 1261.77 90.84 1253.29 104.45 C 1241.68 123.07 1236.07 144.69 1232.68 166.18 C 1228.74 192.34 1228.21 218.90 1229.34 245.28 C 1230.59 271.17 1233.50 297.27 1241.70 321.98 C 1247.25 338.11 1255.31 354.24 1268.96 365.02 C 1283.49 376.71 1305.22 380.23 1321.81 370.84 C 1335.71 363.23 1345.05 349.55 1351.61 335.49 C 1360.74 315.57 1365.12 293.85 1367.70 272.20 C 1370.73 245.26 1370.98 218.04 1369.11 191.01 C 1367.24 167.30 1363.67 143.42 1354.87 121.20 C 1349.18 107.16 1340.98 93.47 1328.43 84.56 C 1317.77 76.94 1304.00 73.92 1291.11 76.19 Z"
       id="path4"
       style="fill:#ffe680;fill-opacity:1" />
    <path
       fill="#000000"
       opacity="1.00"
       d=" M 1664.47 0.00 L 1666.41 0.00 C 1686.26 0.37 1706.27 3.02 1724.96 9.95 C 1742.33 16.28 1758.51 26.24 1771.29 39.66 C 1782.81 51.66 1791.47 66.37 1796.46 82.24 C 1802.99 102.78 1803.51 124.95 1799.76 146.09 C 1795.88 167.51 1786.54 187.58 1774.80 205.79 C 1756.10 234.69 1732.51 259.96 1708.83 284.79 C 1684.88 310.25 1661.00 335.77 1637.04 361.21 C 1694.11 361.29 1751.18 361.22 1808.25 361.25 C 1808.25 386.58 1808.25 411.91 1808.25 437.25 C 1714.17 437.25 1620.09 437.25 1526.00 437.25 C 1525.99 415.62 1526.01 394.00 1526.00 372.37 C 1560.46 333.72 1594.96 295.12 1629.45 256.49 C 1652.41 230.27 1677.20 205.26 1695.58 175.45 C 1706.05 158.17 1714.58 138.29 1712.59 117.66 C 1711.33 102.29 1702.24 87.41 1688.07 80.78 C 1669.46 72.09 1645.22 73.60 1629.66 87.77 C 1615.94 100.32 1610.52 119.63 1610.74 137.75 C 1581.64 137.74 1552.55 137.78 1523.45 137.73 C 1523.88 117.61 1527.22 97.39 1534.78 78.67 C 1540.70 64.09 1549.14 50.40 1560.21 39.16 C 1573.30 25.38 1590.00 15.24 1607.92 9.07 C 1626.04 2.63 1645.34 0.35 1664.47 0.00 Z"
       id="path6"
       style="fill:#ffe680;fill-opacity:1" />
    <path
       fill="#000000"
       opacity="1.00"
       d=" M 1875.50 14.00 C 1922.69 13.98 1969.88 14.03 2017.07 13.98 C 2018.42 13.87 2019.73 14.10 2021.00 14.66 L 2021.00 415.41 L 2020.24 432.72 C 1992.08 432.79 1963.91 432.73 1935.75 432.75 C 1935.75 317.42 1935.75 202.09 1935.75 86.76 C 1915.67 86.75 1895.59 86.74 1875.52 86.76 C 1875.47 62.51 1875.51 38.26 1875.50 14.00 Z"
       id="path8"
       style="fill:#ffe680;fill-opacity:1" />
  </g>
  <g
     id="e73d2fff">
    <path
       fill="#e73d2f"
       opacity="1.00"
       d=" M 0.51 1.75 C 98.75 1.75 196.99 1.75 295.24 1.76 C 295.26 35.42 295.26 69.08 295.24 102.75 C 239.41 102.76 183.59 102.74 127.76 102.76 C 127.74 126.17 127.75 149.58 127.76 173.00 C 183.67 173.02 239.59 172.96 295.51 173.03 C 295.47 206.76 295.53 240.49 295.48 274.23 C 239.57 274.28 183.67 274.23 127.76 274.25 C 127.74 297.75 127.74 321.25 127.76 344.75 C 183.62 344.77 239.47 344.72 295.33 344.77 C 297.64 369.61 307.57 393.95 324.73 412.24 C 339.38 427.93 358.31 439.63 378.87 445.78 C 252.75 445.71 126.62 445.79 0.50 445.74 C 0.51 297.74 0.49 149.75 0.51 1.75 Z"
       id="path11" />
  </g>
  <g
     id="fdd647ff">
    <path
       fill="#fdd647"
       opacity="1.00"
       d=" M 333.00 1.75 C 435.77 1.76 538.55 1.73 641.32 1.77 C 616.14 59.07 591.05 116.41 565.88 173.72 C 582.53 185.14 598.87 197.47 611.85 213.08 C 621.53 224.58 629.09 237.89 633.78 252.19 C 638.78 267.28 640.85 283.23 641.04 299.09 C 641.92 317.41 639.12 336.01 631.83 352.91 C 618.62 384.22 593.47 409.64 563.86 425.85 C 543.04 437.19 519.77 444.20 496.06 445.45 C 457.01 447.13 416.74 437.21 384.69 414.33 C 360.65 397.35 342.57 372.51 332.81 344.81 C 364.01 330.81 395.33 317.09 426.56 303.14 C 433.94 317.03 443.77 330.38 457.77 338.15 C 473.69 347.06 494.08 347.36 510.26 338.93 C 528.33 329.68 539.78 310.04 540.97 290.02 C 540.14 272.78 533.76 255.08 520.79 243.25 C 511.26 234.57 498.40 230.36 485.66 229.84 C 465.89 227.74 446.14 225.47 426.39 223.25 C 451.29 182.90 476.60 142.78 501.66 102.52 C 445.44 102.47 389.22 102.52 333.00 102.50 C 333.00 68.92 333.00 35.33 333.00 1.75 Z"
       id="path14" />
  </g>
</svg>
