<?xml version="1.0" encoding="UTF-8" standalone="no"?>
<!-- Created with Inkscape (http://www.inkscape.org/) -->

<svg
   width="90.625404mm"
   height="10.58358mm"
   viewBox="0 0 90.625404 10.58358"
   version="1.1"
   id="svg148"
   inkscape:version="1.1.2 (b8e25be833, 2022-02-05)"
   sodipodi:docname="2020.svg"
   xmlns:inkscape="http://www.inkscape.org/namespaces/inkscape"
   xmlns:sodipodi="http://sodipodi.sourceforge.net/DTD/sodipodi-0.dtd"
   xmlns="http://www.w3.org/2000/svg"
   xmlns:svg="http://www.w3.org/2000/svg">
  <sodipodi:namedview
     id="namedview150"
     pagecolor="#505050"
     bordercolor="#ffffff"
     borderopacity="1"
     inkscape:pageshadow="0"
     inkscape:pageopacity="0"
     inkscape:pagecheckerboard="1"
     inkscape:document-units="mm"
     showgrid="false"
     fit-margin-top="0"
     fit-margin-left="0"
     fit-margin-right="0"
     fit-margin-bottom="0"
     inkscape:zoom="2.8284271"
     inkscape:cx="165.63976"
     inkscape:cy="-28.284271"
     inkscape:window-width="1920"
     inkscape:window-height="1027"
     inkscape:window-x="-8"
     inkscape:window-y="-8"
     inkscape:window-maximized="1"
     inkscape:current-layer="layer1" />
  <defs
     id="defs145" />
  <g
     inkscape:label="Layer 1"
     inkscape:groupmode="layer"
     id="layer1"
     transform="translate(119.73821,-24.174636)">
    <g
       id="g1039">
      <g
         id="g3524"
         transform="matrix(0.26458333,0,0,0.26458333,-119.73821,24.174636)">
        <path
           class="st0"
           d="M 13.679,11.619 2.82,10.635 0.391,18.066 8.463,22.66 3.251,34.832 9.963,39.608 19.481,30.814 29,39.608 35.712,34.832 30.497,22.66 38.57,18.066 36.14,10.635 25.884,11.577 23.495,0.393 h -8.164 l -1.396,6.962 c 1.342,0.242 4.399,0.656 7.536,-0.141 0.152,-0.039 0.377,-0.056 0.475,0.07 0.063,0.079 0.089,0.238 0.021,0.391 -0.327,0.712 -1.633,1.898 -4.311,2.179 -1.789,0.189 -3.299,0.024 -3.589,-0.055 l -0.385,1.817"
           id="path3490" />
        <path
           d="M 25.63,8.52 C 24.943,5.299 23.878,0.31 23.878,0.31 23.838,0.13 23.679,0 23.495,0 h -8.164 c -0.188,0 -0.348,0.133 -0.384,0.315 l -1.395,6.964 c -0.022,0.103 0.001,0.21 0.06,0.298 0.058,0.087 0.149,0.146 0.253,0.164 1.29,0.234 3.625,0.518 6.143,0.159 0.355,-0.05 0.735,-0.138 1.005,-0.196 0.117,-0.024 0.343,-0.131 0.406,-0.025 0.066,0.112 -0.042,0.2 -0.145,0.308 C 21.108,8.163 20.789,8.424 20.391,8.65 19.751,9.013 18.845,9.336 17.612,9.467 15.857,9.65 14.389,9.482 14.169,9.422 14.065,9.393 13.952,9.409 13.862,9.465 13.77,9.522 13.705,9.612 13.683,9.717 c 0,0 -0.041,0.198 -0.097,0.458 -0.071,0.333 -0.165,0.774 -0.165,0.774 -0.029,0.136 -0.166,0.237 -0.304,0.224 0,0 -1.241,-0.098 -2.234,-0.188 C 7.99,10.719 2.859,10.245 2.859,10.245 2.676,10.229 2.507,10.339 2.45,10.514 l -2.43,7.43 C 0.007,17.985 0,18.026 0,18.067 c 0,0.138 0.072,0.27 0.198,0.341 0,0 3.056,1.738 5.344,3.042 1.223,0.697 2.204,1.254 2.204,1.254 0.121,0.069 0.175,0.23 0.119,0.359 0,0 -0.384,0.899 -0.947,2.213 -1.491,3.481 -4.029,9.402 -4.029,9.402 -0.02,0.052 -0.03,0.104 -0.03,0.155 0,0.124 0.058,0.243 0.164,0.32 l 6.712,4.775 c 0.152,0.108 0.356,0.095 0.492,-0.032 0,0 4.553,-4.207 7.279,-6.725 1.054,-0.973 1.788,-1.651 1.788,-1.651 0.104,-0.094 0.27,-0.094 0.372,0 0,0 0.72,0.664 1.759,1.624 2.722,2.515 7.308,6.752 7.308,6.752 0.135,0.127 0.341,0.14 0.491,0.032 l 6.712,-4.775 c 0.105,-0.077 0.165,-0.196 0.165,-0.32 0,-0.051 -0.01,-0.103 -0.032,-0.155 0,0 -2.541,-5.93 -4.032,-9.408 -0.561,-1.311 -0.945,-2.206 -0.945,-2.206 -0.054,-0.129 0,-0.291 0.119,-0.359 0,0 1.168,-0.665 2.541,-1.445 2.239,-1.275 5.009,-2.85 5.009,-2.85 0.124,-0.071 0.197,-0.203 0.197,-0.341 0,-0.04 -0.006,-0.081 -0.02,-0.122 l -2.429,-7.43 c -0.057,-0.175 -0.227,-0.285 -0.408,-0.269 0,0 -4.831,0.445 -7.759,0.714 -1.126,0.104 -1.9,0.175 -1.9,0.175 C 26.304,11.15 26.167,11.048 26.137,10.912 26.14,10.909 25.927,9.906 25.63,8.52 Z m -11.488,2.809 c 0.07,-0.332 0.177,-0.838 0.177,-0.838 0.029,-0.137 0.167,-0.238 0.305,-0.225 0,0 0.465,0.057 1.368,0.058 0.56,10e-4 1.147,-0.021 1.704,-0.079 C 20.618,9.937 21.978,8.588 22.32,7.839 22.441,7.572 22.416,7.253 22.253,7.044 22.074,6.815 21.752,6.737 21.372,6.835 19.744,7.249 18.113,7.326 16.731,7.27 15.823,7.233 14.645,7.071 14.645,7.071 14.507,7.053 14.417,6.925 14.446,6.789 c 0,0 0.186,-0.932 0.398,-1.99 0.064,-0.325 0.132,-0.663 0.199,-1 0.283,-1.391 0.557,-2.767 0.557,-2.767 0.029,-0.137 0.164,-0.248 0.303,-0.248 0,0 1.272,0 2.717,0 0.36,0 0.733,0 1.099,0 1.636,0 3.205,0 3.205,0 0.14,0 0.279,0.111 0.308,0.248 0,0 0.183,0.86 0.452,2.127 0.687,3.211 1.816,8.501 1.816,8.501 0.042,0.193 0.222,0.325 0.42,0.307 0,0 2.368,-0.216 4.795,-0.44 2.402,-0.221 4.896,-0.451 4.896,-0.451 0.139,-0.012 0.288,0.085 0.331,0.218 0,0 0.44,1.343 0.908,2.778 0.095,0.287 0.19,0.576 0.283,0.863 0.46,1.408 0.885,2.708 0.885,2.708 0.044,0.132 -0.021,0.297 -0.141,0.365 0,0 -1.936,1.102 -3.798,2.162 -1.909,1.087 -3.778,2.15 -3.778,2.15 -0.125,0.071 -0.196,0.203 -0.196,0.339 0,0.051 0.009,0.106 0.03,0.154 0,0 1.81,4.225 3.273,7.641 0.934,2.177 1.716,4.009 1.716,4.009 0.057,0.127 0.009,0.298 -0.106,0.378 0,0 -1.551,1.105 -3.032,2.16 -0.126,0.089 -0.252,0.178 -0.377,0.267 -1.244,0.886 -2.373,1.689 -2.373,1.689 -0.113,0.08 -0.29,0.069 -0.393,-0.025 0,0 -1.131,-1.045 -2.584,-2.389 -2.74,-2.531 -6.514,-6.017 -6.514,-6.017 -0.149,-0.14 -0.381,-0.14 -0.53,0 0,0 -3.316,3.062 -5.99,5.532 -1.691,1.563 -3.11,2.874 -3.11,2.874 -0.102,0.094 -0.28,0.106 -0.393,0.025 C 7.612,37.455 7.652,37.482 6.937,36.975 6.858,36.918 6.776,36.86 6.697,36.803 5.308,35.815 3.941,34.84 3.941,34.84 3.827,34.76 3.777,34.589 3.834,34.462 c 0,0 0.89,-2.08 1.9,-4.44 1.427,-3.329 3.089,-7.21 3.089,-7.21 0.023,-0.048 0.031,-0.103 0.031,-0.154 0,-0.137 -0.071,-0.268 -0.196,-0.339 0,0 -1.822,-1.037 -3.707,-2.11 C 3.067,19.137 1.082,18.007 1.082,18.007 0.961,17.939 0.898,17.774 0.94,17.642 c 0,0 0.472,-1.437 0.958,-2.925 0.132,-0.402 0.264,-0.807 0.391,-1.195 0.396,-1.216 0.729,-2.229 0.729,-2.229 0.043,-0.133 0.191,-0.23 0.331,-0.218 0,0 1.697,0.158 3.635,0.335 2.793,0.257 6.658,0.597 6.658,0.597 0.035,0.004 0.067,-0.004 0.101,-0.011 0.024,-0.003 0.048,-0.004 0.07,-0.013 0.018,-0.005 0.032,-0.019 0.049,-0.027 0.025,-0.013 0.049,-0.025 0.071,-0.044 0.012,-0.01 0.018,-0.023 0.032,-0.036 0.021,-0.022 0.041,-0.044 0.054,-0.071 0.009,-0.014 0.012,-0.028 0.018,-0.043 0.009,-0.021 0.022,-0.041 0.027,-0.065 0,0.001 0.032,-0.153 0.078,-0.368 z"
           id="path3492" />
        <path
           d="M 17.389,6.809 C 17.345,6.809 17.301,6.802 17.257,6.788 17.028,6.716 16.9,6.472 16.972,6.242 17.403,4.864 17.67,3.35 17.766,1.738 c 0.015,-0.24 0.22,-0.421 0.46,-0.409 0.241,0.015 0.423,0.221 0.41,0.461 -0.1,1.681 -0.379,3.267 -0.832,4.711 -0.058,0.188 -0.23,0.308 -0.415,0.308 z"
           id="path3494" />
        <path
           d="m 21.669,4.459 c 0,0.35 -0.239,0.633 -0.536,0.633 -0.296,0 -0.536,-0.283 -0.536,-0.633 0,-0.35 0.24,-0.633 0.536,-0.633 0.297,0 0.536,0.283 0.536,0.633 z"
           id="path3496" />
        <path
           d="m 15.998,2.925 c 0,0.274 0.189,0.496 0.421,0.496 0.232,0 0.421,-0.223 0.421,-0.496 0,-0.274 -0.188,-0.497 -0.421,-0.497 -0.232,0 -0.421,0.223 -0.421,0.497 z"
           id="path3498" />
        <path
           class="st1"
           d="m 15.011,15.713 v 0.465 c -0.299,0.389 -0.728,0.584 -1.286,0.584 -0.462,0 -0.831,-0.129 -1.11,-0.383 -0.28,-0.257 -0.42,-0.594 -0.42,-1.012 0,-0.397 0.127,-0.721 0.386,-0.973 0.258,-0.252 0.592,-0.376 1.002,-0.376 0.211,0 0.405,0.036 0.583,0.106 0.18,0.071 0.333,0.175 0.465,0.31 0.13,0.136 0.226,0.295 0.288,0.474 0.061,0.18 0.093,0.401 0.093,0.661 h -1.389 c 0.049,0.134 0.133,0.239 0.25,0.316 0.116,0.077 0.251,0.115 0.401,0.115 0.306,0 0.551,-0.096 0.737,-0.287 z M 13.54,15.105 h 0.641 c -0.006,-0.132 -0.038,-0.235 -0.098,-0.31 -0.059,-0.072 -0.137,-0.109 -0.232,-0.109 -0.083,0 -0.157,0.034 -0.218,0.105 -0.062,0.071 -0.093,0.178 -0.093,0.314 z"
           id="path3500" />
        <path
           class="st1"
           d="m 16.784,14.072 v 0.333 c 0.228,-0.237 0.501,-0.355 0.82,-0.355 0.31,0 0.548,0.087 0.713,0.259 0.165,0.173 0.245,0.428 0.245,0.768 v 1.644 H 17.28 v -1.544 c 0,-0.22 -0.084,-0.33 -0.252,-0.33 -0.08,0 -0.163,0.028 -0.244,0.086 v 1.788 h -1.36 v -2.648 h 1.36 z"
           id="path3502" />
        <path
           class="st1"
           d="m 21.172,14.07 v 0.744 h -0.568 v 0.567 c 0,0.192 0.085,0.288 0.258,0.288 0.126,0 0.234,-0.064 0.324,-0.189 v 1.049 c -0.213,0.142 -0.474,0.211 -0.782,0.211 -0.325,0 -0.6,-0.098 -0.825,-0.293 -0.224,-0.194 -0.335,-0.464 -0.335,-0.805 V 14.813 H 18.69 l 1.913,-1.499 v 0.755 h 0.569 z"
           id="path3504" />
        <path
           class="st1"
           d="m 24.306,15.713 v 0.465 c -0.298,0.389 -0.725,0.584 -1.284,0.584 -0.46,0 -0.831,-0.129 -1.111,-0.383 -0.281,-0.257 -0.421,-0.594 -0.421,-1.012 0,-0.397 0.128,-0.721 0.387,-0.973 0.257,-0.252 0.59,-0.376 1.002,-0.376 0.208,0 0.403,0.036 0.582,0.106 0.178,0.071 0.333,0.175 0.463,0.31 0.131,0.136 0.227,0.295 0.29,0.474 0.061,0.18 0.092,0.401 0.092,0.661 h -1.388 c 0.05,0.134 0.133,0.239 0.25,0.316 0.118,0.077 0.251,0.115 0.403,0.115 0.305,0 0.55,-0.096 0.735,-0.287 z m -1.47,-0.608 h 0.64 c -0.006,-0.132 -0.038,-0.235 -0.098,-0.31 -0.06,-0.072 -0.136,-0.109 -0.23,-0.109 -0.084,0 -0.156,0.034 -0.218,0.105 -0.063,0.071 -0.094,0.178 -0.094,0.314 z"
           id="path3506" />
        <path
           class="st1"
           d="m 26.084,14.653 c 0.174,-0.401 0.424,-0.603 0.754,-0.603 0.184,0 0.334,0.061 0.454,0.181 0.119,0.12 0.178,0.273 0.178,0.457 0,0.194 -0.059,0.351 -0.174,0.469 -0.117,0.121 -0.27,0.18 -0.457,0.18 -0.215,0 -0.399,-0.081 -0.55,-0.242 -0.134,0.113 -0.204,0.327 -0.204,0.638 v 0.987 h -1.358 v -2.648 h 1.358 v 0.581 z"
           id="path3508" />
        <path
           class="st1"
           d="m 12.147,21.072 v -2.141 h 4.296 v 2.141 h -1.078 v 2.692 h -2.141 v -2.692 z"
           id="path3510" />
        <path
           class="st1"
           d="m 19.626,23.847 c -0.689,0 -1.276,-0.243 -1.755,-0.727 -0.48,-0.485 -0.721,-1.075 -0.721,-1.772 0,-0.695 0.241,-1.283 0.721,-1.767 0.479,-0.483 1.066,-0.722 1.755,-0.722 0.693,0 1.279,0.24 1.761,0.722 0.479,0.484 0.719,1.072 0.719,1.767 0,0.697 -0.239,1.287 -0.719,1.772 -0.482,0.484 -1.069,0.727 -1.761,0.727 z m 0,-3.136 c -0.136,0 -0.25,0.047 -0.342,0.143 -0.091,0.097 -0.136,0.217 -0.136,0.363 0,0.146 0.045,0.268 0.136,0.363 0.091,0.096 0.205,0.144 0.342,0.144 0.14,0 0.255,-0.048 0.346,-0.144 0.09,-0.096 0.135,-0.217 0.135,-0.363 0,-0.146 -0.045,-0.266 -0.135,-0.363 -0.092,-0.096 -0.206,-0.143 -0.346,-0.143 z"
           id="path3512" />
        <path
           class="st1"
           d="M 26.014,23.765 H 23.873 V 21.656 L 22.03,18.932 h 2.167 l 0.746,1.096 0.745,-1.096 h 2.167 l -1.841,2.724 z"
           id="path3514" />
        <path
           class="st1"
           d="m 13.632,25.57 v 0.332 c 0.22,-0.236 0.492,-0.355 0.816,-0.355 0.386,0 0.671,0.153 0.856,0.457 0.151,-0.159 0.302,-0.274 0.454,-0.348 0.151,-0.072 0.322,-0.11 0.514,-0.11 0.287,0 0.513,0.088 0.678,0.264 0.166,0.176 0.25,0.425 0.25,0.744 v 1.663 h -1.286 v -1.582 c 0,-0.093 -0.024,-0.167 -0.069,-0.219 -0.046,-0.052 -0.106,-0.078 -0.181,-0.078 -0.084,0 -0.166,0.028 -0.249,0.085 v 1.793 h -1.284 v -1.582 c 0,-0.092 -0.024,-0.164 -0.068,-0.218 -0.045,-0.052 -0.105,-0.078 -0.183,-0.078 -0.081,0 -0.164,0.03 -0.248,0.089 v 1.789 h -1.36 V 25.57 Z"
           id="path3516" />
        <path
           class="st1"
           d="m 20.589,27.21 v 0.464 c -0.299,0.391 -0.725,0.585 -1.285,0.585 -0.46,0 -0.83,-0.128 -1.111,-0.382 -0.279,-0.258 -0.421,-0.594 -0.421,-1.012 0,-0.397 0.128,-0.721 0.386,-0.972 0.258,-0.251 0.592,-0.378 1.002,-0.378 0.212,0 0.404,0.036 0.583,0.106 0.179,0.07 0.334,0.174 0.463,0.31 0.13,0.136 0.228,0.295 0.289,0.474 0.062,0.181 0.093,0.402 0.093,0.661 H 19.2 c 0.049,0.135 0.133,0.24 0.249,0.318 0.118,0.075 0.252,0.113 0.403,0.113 0.307,0.001 0.552,-0.094 0.737,-0.287 z M 19.12,26.603 h 0.639 c -0.005,-0.131 -0.038,-0.235 -0.097,-0.309 -0.06,-0.075 -0.137,-0.11 -0.233,-0.11 -0.083,0 -0.156,0.034 -0.217,0.106 -0.061,0.07 -0.092,0.176 -0.092,0.313 z"
           id="path3518" />
        <path
           class="st1"
           d="m 22.544,25.57 v 0.332 c 0.228,-0.236 0.503,-0.355 0.821,-0.355 0.309,0 0.548,0.087 0.712,0.259 0.164,0.172 0.247,0.428 0.247,0.765 v 1.646 H 23.04 v -1.545 c 0,-0.218 -0.085,-0.329 -0.25,-0.329 -0.082,0 -0.163,0.027 -0.245,0.084 v 1.789 h -1.36 V 25.57 Z"
           id="path3520" />
        <path
           class="st1"
           d="m 27.112,25.568 v 0.743 h -0.567 v 0.568 c 0,0.192 0.086,0.287 0.257,0.287 0.127,0 0.235,-0.063 0.327,-0.189 v 1.05 c -0.216,0.14 -0.475,0.211 -0.782,0.211 -0.327,0 -0.603,-0.098 -0.826,-0.293 -0.223,-0.194 -0.335,-0.464 -0.335,-0.805 V 26.31 H 24.63 l 1.915,-1.499 v 0.756 h 0.567 z"
           id="path3522" />
      </g>
      <g
         id="g3578"
         transform="matrix(0.26458333,0,0,0.26458333,-119.73821,24.174636)"
         style="fill:#2c5aa0;fill-opacity:1">
        <g
           id="g3576"
           style="fill:#2c5aa0;fill-opacity:1">
          <path
             d="M 44.568,11.225 V 1.242 h 3.874 v 9.982 h -3.874 z"
             id="path3526"
             style="fill:#2c5aa0;fill-opacity:1" />
          <path
             d="M 129.651,11.225 V 1.242 h 3.873 v 9.982 h -3.873 z"
             id="path3528"
             style="fill:#2c5aa0;fill-opacity:1" />
          <path
             d="M 60.485,11.303 H 57.241 L 54.334,7.31 v 3.914 H 50.797 V 1.242 h 3.051 l 3.1,4.203 V 1.242 h 3.537 z"
             id="path3530"
             style="fill:#2c5aa0;fill-opacity:1" />
          <path
             d="m 104.229,11.303 h -3.243 L 98.076,7.31 v 3.914 H 94.531 V 1.242 h 3.057 l 3.095,4.203 V 1.242 h 3.546 z"
             id="path3532"
             style="fill:#2c5aa0;fill-opacity:1" />
          <path
             d="m 156.931,11.303 h -3.243 L 150.779,7.31 v 3.914 h -3.542 V 1.242 h 3.05 l 3.101,4.203 V 1.242 h 3.542 v 10.061 z"
             id="path3534"
             style="fill:#2c5aa0;fill-opacity:1" />
          <path
             d="M 62.066,5.13 V 1.242 h 8.877 V 5.13 h -2.502 v 6.095 H 64.567 V 5.13 Z"
             id="path3536"
             style="fill:#2c5aa0;fill-opacity:1" />
          <path
             d="M 118.992,5.13 V 1.242 h 8.868 V 5.13 h -2.492 v 6.095 h -3.88 V 5.13 Z"
             id="path3538"
             style="fill:#2c5aa0;fill-opacity:1" />
          <path
             d="M 186.62,5.13 V 1.242 h 8.873 V 5.13 h -2.496 v 6.095 h -3.876 V 5.13 Z"
             id="path3540"
             style="fill:#2c5aa0;fill-opacity:1" />
          <path
             d="M 249.472,5.13 V 1.242 h 8.866 V 5.13 h -2.498 v 6.095 h -3.874 V 5.13 Z"
             id="path3542"
             style="fill:#2c5aa0;fill-opacity:1" />
          <path
             d="m 80.724,9.011 v 2.213 H 72.43 V 1.242 h 8.294 V 3.489 H 76.3 v 1.776 h 3.241 V 7.211 H 76.3 v 1.8 z"
             id="path3544"
             style="fill:#2c5aa0;fill-opacity:1" />
          <path
             d="m 82.336,1.242 h 6.523 c 1.129,0 2.019,0.283 2.666,0.867 0.638,0.56 0.96,1.287 0.96,2.124 0,0.953 -0.595,1.669 -1.359,2.221 1.077,1.229 1.946,2.825 2.155,4.769 H 88.969 C 88.887,9.958 88.695,9.053 88.402,8.431 88.109,7.843 87.371,7.544 86.21,7.544 v 3.68 H 82.337 V 1.242 Z m 3.873,2.078 v 1.911 h 0.668 c 1.164,0 1.459,-0.306 1.459,-0.947 0,-0.255 -0.077,-0.482 -0.238,-0.676 -0.162,-0.19 -0.704,-0.287 -1.082,-0.287 h -0.807 z"
             id="path3546"
             style="fill:#2c5aa0;fill-opacity:1" />
          <path
             d="m 109.503,11.225 h -3.872 l 3.466,-9.982 h 6.302 l 3.462,9.982 h -3.87 l -0.576,-1.68 h -4.332 z m 1.384,-4.049 h 2.723 l -1.385,-3.869 z"
             id="path3548"
             style="fill:#2c5aa0;fill-opacity:1" />
          <path
             d="m 162.208,11.225 h -3.874 l 3.467,-9.982 h 6.299 l 3.469,9.982 h -3.871 l -0.577,-1.68 h -4.334 z m 1.379,-4.049 h 2.728 l -1.384,-3.869 z"
             id="path3550"
             style="fill:#2c5aa0;fill-opacity:1" />
          <path
             d="m 140.642,11.383 c -1.429,0 -2.636,-0.492 -3.626,-1.5 -0.996,-0.974 -1.489,-2.202 -1.489,-3.636 0,-1.431 0.493,-2.653 1.489,-3.66 0.99,-1.006 2.197,-1.492 3.626,-1.492 1.432,0 2.648,0.487 3.631,1.492 0.999,1.007 1.485,2.229 1.485,3.66 0,1.434 -0.486,2.662 -1.485,3.636 -0.983,1.008 -2.199,1.5 -3.631,1.5 z m 0,-7.133 c -0.465,0 -0.846,0.164 -1.153,0.509 -0.304,0.316 -0.458,0.716 -0.458,1.193 0,0.508 0.154,0.912 0.458,1.221 0.307,0.351 0.688,0.508 1.153,0.508 0.467,0 0.852,-0.157 1.158,-0.508 0.307,-0.309 0.465,-0.713 0.465,-1.221 0,-0.477 -0.157,-0.877 -0.465,-1.193 -0.306,-0.345 -0.69,-0.509 -1.158,-0.509 z"
             id="path3552"
             style="fill:#2c5aa0;fill-opacity:1" />
          <path
             d="m 201.721,11.383 c -1.422,0 -2.635,-0.492 -3.628,-1.5 -0.989,-0.974 -1.482,-2.202 -1.482,-3.636 0,-1.431 0.493,-2.653 1.482,-3.66 0.993,-1.006 2.206,-1.492 3.628,-1.492 1.434,0 2.64,0.487 3.632,1.492 0.994,1.007 1.49,2.229 1.49,3.66 0,1.434 -0.496,2.662 -1.49,3.636 -0.992,1.008 -2.198,1.5 -3.632,1.5 z m 0,-7.133 c -0.462,0 -0.847,0.164 -1.152,0.509 -0.305,0.316 -0.456,0.716 -0.456,1.193 0,0.508 0.151,0.912 0.456,1.221 0.305,0.351 0.69,0.508 1.152,0.508 0.466,0 0.856,-0.157 1.159,-0.508 0.311,-0.309 0.46,-0.713 0.46,-1.221 0,-0.477 -0.149,-0.877 -0.46,-1.193 -0.303,-0.345 -0.693,-0.509 -1.159,-0.509 z"
             id="path3554"
             style="fill:#2c5aa0;fill-opacity:1" />
          <path
             d="m 237.331,11.383 c -1.424,0 -2.63,-0.492 -3.626,-1.5 -0.991,-0.974 -1.49,-2.202 -1.49,-3.636 0,-1.431 0.498,-2.653 1.49,-3.66 0.996,-1.006 2.202,-1.492 3.626,-1.492 1.432,0 2.647,0.487 3.634,1.492 0.995,1.007 1.492,2.229 1.492,3.66 0,1.434 -0.496,2.662 -1.492,3.636 -0.987,1.008 -2.201,1.5 -3.634,1.5 z m 0,-7.133 c -0.46,0 -0.846,0.164 -1.15,0.509 -0.308,0.316 -0.452,0.716 -0.452,1.193 0,0.508 0.143,0.912 0.452,1.221 0.304,0.351 0.69,0.508 1.15,0.508 0.47,0 0.861,-0.157 1.16,-0.508 0.311,-0.309 0.464,-0.713 0.464,-1.221 0,-0.477 -0.154,-0.877 -0.464,-1.193 -0.299,-0.345 -0.69,-0.509 -1.16,-0.509 z"
             id="path3556"
             style="fill:#2c5aa0;fill-opacity:1" />
          <path
             d="m 264.736,11.383 c -1.428,0 -2.635,-0.492 -3.622,-1.5 -0.994,-0.974 -1.5,-2.202 -1.5,-3.636 0,-1.431 0.507,-2.653 1.5,-3.66 0.987,-1.006 2.194,-1.492 3.622,-1.492 1.429,0 2.644,0.487 3.637,1.492 0.986,1.007 1.487,2.229 1.487,3.66 0,1.434 -0.501,2.662 -1.487,3.636 -0.992,1.008 -2.208,1.5 -3.637,1.5 z m 0,-7.133 c -0.462,0 -0.848,0.164 -1.151,0.509 -0.307,0.316 -0.459,0.716 -0.459,1.193 0,0.508 0.152,0.912 0.459,1.221 0.303,0.351 0.689,0.508 1.151,0.508 0.467,0 0.858,-0.157 1.16,-0.508 0.307,-0.309 0.462,-0.713 0.462,-1.221 0,-0.477 -0.155,-0.877 -0.462,-1.193 -0.302,-0.345 -0.692,-0.509 -1.16,-0.509 z"
             id="path3558"
             style="fill:#2c5aa0;fill-opacity:1" />
          <path
             d="m 315.348,11.383 c -1.429,0 -2.632,-0.492 -3.625,-1.5 -1.001,-0.974 -1.492,-2.202 -1.492,-3.636 0,-1.431 0.491,-2.653 1.492,-3.66 0.994,-1.006 2.196,-1.492 3.625,-1.492 1.427,0 2.64,0.487 3.634,1.492 0.992,1.007 1.492,2.229 1.492,3.66 0,1.434 -0.5,2.662 -1.492,3.636 -0.995,1.008 -2.207,1.5 -3.634,1.5 z m 0,-7.133 c -0.465,0 -0.844,0.164 -1.149,0.509 -0.311,0.316 -0.459,0.716 -0.459,1.193 0,0.508 0.148,0.912 0.459,1.221 0.305,0.351 0.685,0.508 1.149,0.508 0.469,0 0.851,-0.157 1.157,-0.508 0.31,-0.309 0.465,-0.713 0.465,-1.221 0,-0.477 -0.156,-0.877 -0.465,-1.193 -0.306,-0.345 -0.688,-0.509 -1.157,-0.509 z"
             id="path3560"
             style="fill:#2c5aa0;fill-opacity:1" />
          <path
             d="M 172.857,11.225 V 1.242 h 3.871 V 8.72 h 4.417 v 2.505 z"
             id="path3562"
             style="fill:#2c5aa0;fill-opacity:1" />
          <path
             d="M 212.32,1.242 V 4.57 c 1.302,-0.057 2.149,-0.365 2.539,-0.937 0.398,-0.605 0.591,-1.382 0.591,-2.39 h 4.228 c 0,1.226 -0.155,2.241 -0.477,3.006 -0.319,0.807 -1.171,1.464 -1.855,2 1.365,1.019 2.471,2.692 2.614,4.977 h -4.495 c -0.07,-2.54 -1.166,-3.577 -3.147,-3.622 v 3.622 h -3.866 V 1.242 Z"
             id="path3564"
             style="fill:#2c5aa0;fill-opacity:1" />
          <path
             d="m 228.56,11.225 h -3.872 V 6.869 l -3.972,-5.627 h 3.926 l 1.98,3.236 1.972,-3.236 h 3.928 l -3.963,5.627 v 4.356 z"
             id="path3566"
             style="fill:#2c5aa0;fill-opacity:1" />
          <path
             d="m 277.168,11.225 h -3.874 V 6.869 l -3.971,-5.627 h 3.925 l 1.982,3.236 1.973,-3.236 h 3.934 l -3.97,5.627 v 4.356 z"
             id="path3568"
             style="fill:#2c5aa0;fill-opacity:1" />
          <path
             d="m 296.012,1.748 -0.923,2.65 c -0.718,-0.543 -1.641,-1.152 -2.57,-1.204 -0.298,-0.012 -0.758,-0.073 -0.957,0.399 -0.174,0.378 -0.174,0.899 1.629,1.423 0.79,0.207 1.346,0.558 1.762,0.798 0.411,0.272 0.72,0.578 0.925,0.956 0.204,0.375 0.306,0.846 0.306,1.339 0,1.08 -0.403,1.873 -1.213,2.453 -0.812,0.551 -2.005,0.821 -3.575,0.821 -1.774,0 -3.389,-0.268 -4.666,-0.751 l 1.022,-2.86 c 0.34,0.265 1.094,0.662 1.8,1.107 0.879,0.519 1.467,0.32 1.675,0 0.2,-0.327 0.381,-0.909 -1.375,-1.537 -0.547,-0.19 -0.971,-0.411 -1.323,-0.614 -0.348,-0.204 -1.288,-0.999 -1.291,-2.297 -0.011,-1.083 0.397,-1.934 1.209,-2.482 0.809,-0.582 1.897,-0.947 3.467,-0.947 1.44,0.002 2.872,0.312 4.098,0.746 z"
             id="path3570"
             style="fill:#2c5aa0;fill-opacity:1" />
          <path
             d="m 301.831,11.225 h -3.874 V 1.242 h 3.874 v 3.672 h 2.905 V 1.242 h 3.881 v 9.982 h -3.881 v -3.69 h -2.905 z"
             id="path3572"
             style="fill:#2c5aa0;fill-opacity:1" />
          <path
             d="m 327.632,11.225 h -2.985 l -3.525,-9.982 h 3.765 l 1.706,4.614 1.761,-4.614 h 1.984 l 1.819,4.614 1.638,-4.614 h 3.771 l -3.362,9.982 h -2.989 l -1.846,-4.49 z"
             id="path3574"
             style="fill:#2c5aa0;fill-opacity:1" />
        </g>
      </g>
      <g
         id="g3612"
         transform="matrix(0.26458333,0,0,0.26458333,-119.73821,24.174636)"
         style="fill:#2c5aa0;fill-opacity:1">
        <g
           id="g3610"
           style="fill:#2c5aa0;fill-opacity:1">
          <g
             id="g3608"
             style="fill:#2c5aa0;fill-opacity:1">
            <g
               id="g3606"
               style="fill:#2c5aa0;fill-opacity:1">
              <path
                 d="m 140.848,23.54 v -4.45 h -12.863 v -1.529 h -6.705 v 1.529 h -1.791 v 4.45 h 1.791 v 1.304 h -1.791 v 4.464 h 1.791 v 0.905 c 0,5.696 2.551,8.678 8.053,8.678 h 3.118 c 4.478,0 8.352,-2.07 8.352,-9.172 v -4.918 h -6.577 v 4.918 c 0,1.666 -0.647,2.901 -2.929,2.901 h -0.499 c -1.638,0 -2.811,-0.443 -2.811,-2.407 v -0.905 h 4.941 v -4.464 h -4.941 V 23.54 Z"
                 id="path3580"
                 style="fill:#2c5aa0;fill-opacity:1" />
              <path
                 d="m 157.634,25.494 c 0,0 -1.939,0 -3.106,0 v -1.276 h 9.866 v -5.359 h -9.866 c 0,-0.78 0,-1.298 0,-1.298 h -6.704 v 1.298 h -3.702 v 5.359 h 3.702 v 6.77 h 8.819 c 0.911,0 1.188,0.367 1.188,0.884 0,0.444 -0.352,0.747 -1.272,0.747 h -11.01 v 6.271 h 11.01 c 6.658,0 8.765,-2.234 8.765,-6.868 0,-5.837 -3.304,-6.528 -7.69,-6.528 z"
                 id="path3582"
                 style="fill:#2c5aa0;fill-opacity:1" />
              <path
                 d="m 108.027,25.494 c 0,0 -0.862,0 -2.024,0 v -1.302 h 2.179 v -5.333 h -2.179 c 0,-0.788 0,-1.298 0,-1.298 h -5.71 c 0,0.51 0,0.51 0,1.298 h -5.858 v 5.333 h 5.913 v 1.302 c -0.098,0 -0.628,0 -0.628,0 -3.001,0 -5.878,2.027 -5.878,6.716 0,4.414 2.352,6.68 6.398,6.68 5.176,0 5.763,-3.054 5.763,-6.449 0,0 0,-1.095 0,-1.453 1.163,0 2.15,0 2.15,0 0.825,0 1.303,0.124 1.303,0.829 0,0.549 -0.265,0.801 -1.264,0.801 -0.474,0.013 -0.927,0.013 -0.927,0.013 v 6.258 c 0,0 0.463,0 0.841,0 4.014,0 7.402,-1.114 7.402,-6.851 0,-4.591 -3.483,-6.544 -7.481,-6.544 z m -7.679,7.011 c 0,0.703 -0.227,1.04 -0.584,1.04 -0.109,0 -0.189,0 -0.22,0 -0.601,-0.014 -0.751,-0.656 -0.751,-1.336 0,-0.848 0.441,-1.217 1.097,-1.217 0.223,0 0.43,-0.005 0.458,-0.005 0,0.36 0,1.518 0,1.518 z m 9.129,-15.934 v 5.37 c 1.186,0.009 1.346,0.724 1.346,1.299 v 1.546 h 5.393 V 22.66 c -10e-4,-4.256 -1.823,-6.286 -6.739,-6.089 z"
                 id="path3584"
                 style="fill:#2c5aa0;fill-opacity:1" />
              <path
                 d="m 201.539,25.494 -0.949,3.551 c -0.725,2.489 -3.412,3.574 -5.76,3.574 h -7.381 v 6.271 h 7.744 c 5.719,0 10.238,-2.648 11.601,-8.394 0.613,-2.59 0.827,-5.425 2.433,-5.425 v -6.794 c -5.482,0 -6.613,2.623 -7.688,7.217 z m -3.785,-7.933 h -10.306 v 5.497 h 10.306 z m 0,6.801 h -10.306 v 5.502 h 10.306 z"
                 id="path3586"
                 style="fill:#2c5aa0;fill-opacity:1" />
              <rect
                 x="229.976"
                 y="25.190001"
                 width="19.972"
                 height="6.4970002"
                 id="rect3588"
                 style="fill:#2c5aa0;fill-opacity:1" />
              <path
                 d="m 221.41,23.37 h -9.734 v 4.627 h 9.089 c 0.871,0.015 0.738,0.74 0.738,1.3 0,0 0,0.011 0,0 h -8.928 v 3.658 h 8.928 v 1.305 h -9.827 v 4.63 h 15.42 V 28.476 c 0,-2.357 -1.5,-5.106 -5.686,-5.106 z"
                 id="path3590"
                 style="fill:#2c5aa0;fill-opacity:1" />
              <path
                 d="m 181.978,26.336 c 0.284,-0.365 0.702,-0.524 1.388,-0.524 v -3.854 c -3.822,0 -5.43,1.46 -6.109,3.191 h -2.678 l -0.113,-1.78 h -4.791 l 0.118,1.78 H 167.99 V 30.1 h 2.134 l 0.575,8.79 h 4.776 l -0.568,-8.79 h 2.13 c 1.25,0 1.801,0.357 1.801,1.186 0,0.9 -0.551,1.346 -2.142,1.346 v 4.947 c 5.659,0 7.409,-2.172 7.409,-5.76 0,0.004 0.01,-1.112 0.01,-1.112 -0.001,-1.662 -0.597,-3.33 -2.137,-4.371 z"
                 id="path3592"
                 style="fill:#2c5aa0;fill-opacity:1" />
              <g
                 id="g3600"
                 style="fill:#2c5aa0;fill-opacity:1">
                <g
                   id="g3598"
                   style="fill:#2c5aa0;fill-opacity:1">
                  <g
                     id="g3596"
                     style="fill:#2c5aa0;fill-opacity:1">
                    <path
                       d="m 83.005,17.561 v -0.99 h -5.672 v 0.99 H 69.306 V 21.25 H 91.004 V 17.561 Z M 69.719,31.845 h 7.238 v 7.048 h 6.4 v -7.048 h 7.265 V 22.546 H 69.719 Z m 5.238,-5.348 h 10.434 v 1.406 H 74.957 Z m -2.971,6.582 c -0.061,1.433 -1.306,2.047 -2.68,1.936 v 3.877 c 5.138,0.2 6.851,-2.136 6.717,-5.813 z"
                       id="path3594"
                       style="fill:#2c5aa0;fill-opacity:1" />
                  </g>
                </g>
              </g>
              <path
                 d="m 66.159,21.227 v -3.666 h -8.003 v -0.99 h -5.665 v 0.99 h -7.984 v 3.666 h 7.984 v 1.307 h -7.619 v 10.52 h 5.151 c -0.809,1.141 -3.24,1.967 -5.578,1.924 v 3.889 c 3.574,0.022 6.261,-0.827 7.679,-2.347 v 2.371 h 6.33 V 36.52 c 1.427,1.521 4.113,2.369 7.668,2.347 v -3.889 c -2.229,0.041 -4.576,-0.488 -5.563,-1.924 h 5.215 V 22.534 H 58.155 V 21.227 Z M 52.491,30.592 H 50.1 V 29.3 h 2.39 v 1.292 z m 0,-4.281 H 50.1 v -1.304 h 2.39 v 1.304 z m 8.047,4.281 H 58.156 V 29.3 h 2.382 z m 0,-5.585 v 1.304 h -2.382 v -1.304 z"
                 id="path3602"
                 style="fill:#2c5aa0;fill-opacity:1" />
              <path
                 d="m 88.342,33.079 c 0.046,1.433 1.309,2.047 2.662,1.936 v 3.877 c -5.124,0.2 -6.83,-2.136 -6.711,-5.813 z"
                 id="path3604"
                 style="fill:#2c5aa0;fill-opacity:1" />
            </g>
          </g>
        </g>
      </g>
      <path
         d="m -52.7301,28.872578 v 1.574006 h 3.242997 c 0.209021,0 0.354542,0.05503 0.354542,0.255852 -0.0045,0.170392 -0.124089,0.249502 -0.354542,0.249502 h -2.947722 v 3.510492 h 4.853516 v -1.644386 c 0,0 -1.970881,0 -3.034241,0 0,-0.157427 0,-0.262466 0,-0.425714 0.560652,0 0.986631,0 0.986631,0 2.04761,0.04366 2.407179,-0.8001 2.406914,-1.717411 -0.004,-1.359164 -0.763323,-1.802341 -2.233348,-1.802341 z"
         id="path3614"
         style="fill:#2c5aa0;stroke-width:0.264583;fill-opacity:1" />
      <path
         d="m -44.345455,28.872578 c -1.049866,0 -2.183606,0.85381 -2.183606,1.905264 v 1.785144 c 0,1.050131 1.134004,1.899444 2.183606,1.899444 h 1.168665 c 1.054894,0 2.182812,-0.849048 2.182812,-1.899444 v -1.785144 c 0,-1.051454 -1.127918,-1.905264 -2.182812,-1.905264 z m -0.329141,3.463131 v -1.338263 c 0,-0.228335 0.215635,-0.550862 0.477043,-0.550862 h 0.875507 c 0.256381,0 0.477573,0.322262 0.477573,0.550862 v 1.338263 c 0,0.253206 -0.232834,0.5588 -0.477573,0.5588 h -0.875507 c -0.270933,0 -0.477043,-0.299244 -0.477043,-0.5588 z"
         id="path3618"
         style="fill:#2c5aa0;stroke-width:0.264583;fill-opacity:1" />
      <path
         d="M -40.848925,28.871294 V 30.4453 h 3.242997 c 0.209021,0 0.354542,0.05503 0.354542,0.255852 -0.0045,0.170392 -0.124089,0.249502 -0.354542,0.249502 h -2.947722 v 3.510492 h 4.853516 V 32.81676 c 0,0 -1.970881,0 -3.034241,0 0,-0.157427 0,-0.262466 0,-0.425714 0.560652,0 0.986631,0 0.986631,0 2.04761,0.04366 2.407179,-0.8001 2.406914,-1.717411 -0.004,-1.359164 -0.763323,-1.802341 -2.233348,-1.802341 z"
         id="path3614-8"
         style="fill:#2c5aa0;stroke-width:0.264583;fill-opacity:1" />
      <path
         d="m -32.46428,28.871294 c -1.049866,0 -2.183606,0.85381 -2.183606,1.905264 v 1.785144 c 0,1.050131 1.134004,1.899444 2.183606,1.899444 h 1.168665 c 1.054894,0 2.182812,-0.849048 2.182812,-1.899444 v -1.785144 c 0,-1.051454 -1.127918,-1.905264 -2.182812,-1.905264 z m -0.329141,3.463131 v -1.338263 c 0,-0.228335 0.215635,-0.550862 0.477043,-0.550862 h 0.875507 c 0.256381,0 0.477573,0.322262 0.477573,0.550862 v 1.338263 c 0,0.253206 -0.232834,0.5588 -0.477573,0.5588 h -0.875507 c -0.270933,0 -0.477043,-0.299244 -0.477043,-0.5588 z"
         id="path3618-5"
         style="fill:#2c5aa0;stroke-width:0.264583;fill-opacity:1" />
    </g>
  </g>
  <style
     type="text/css"
     id="style3488">
	.st0{fill:#E6222E;}
	.st1{fill:#FFFFFF;}
</style>
</svg>
