<?xml version="1.0" encoding="UTF-8" standalone="no"?>
<svg
   width="890"
   height="106.74"
   viewBox="0 0 890 106.74"
   version="1.1"
   id="svg138"
   sodipodi:docname="2021.svg"
   inkscape:version="1.1.2 (b8e25be833, 2022-02-05)"
   xmlns:inkscape="http://www.inkscape.org/namespaces/inkscape"
   xmlns:sodipodi="http://sodipodi.sourceforge.net/DTD/sodipodi-0.dtd"
   xmlns="http://www.w3.org/2000/svg"
   xmlns:svg="http://www.w3.org/2000/svg">
  <sodipodi:namedview
     id="namedview140"
     pagecolor="#505050"
     bordercolor="#ffffff"
     borderopacity="1"
     inkscape:pageshadow="0"
     inkscape:pageopacity="0"
     inkscape:pagecheckerboard="1"
     showgrid="false"
     inkscape:zoom="1.188764"
     inkscape:cx="377.28262"
     inkscape:cy="-14.300568"
     inkscape:window-width="1920"
     inkscape:window-height="1027"
     inkscape:window-x="-8"
     inkscape:window-y="-8"
     inkscape:window-maximized="1"
     inkscape:current-layer="svg138" />
  <defs
     id="defs4">
    <style
       id="style2">
      .cls-1 {
        fill: #e6222e;
      }

      .cls-2 {
        fill: #fff;
      }
    </style>
  </defs>
  <g
     id="g56"
     style="fill:#ffe680;fill-opacity:1">
    <path
       d="M 118,30.47 V 4.17 h 10.21 v 26.3 z"
       id="path6"
       style="fill:#ffe680;fill-opacity:1" />
    <path
       d="M 342.2,30.47 V 4.17 h 10.21 v 26.3 z"
       id="path8"
       style="fill:#ffe680;fill-opacity:1" />
    <path
       d="m 160,30.68 h -8.55 l -7.66,-10.52 v 10.31 h -9.32 V 4.17 h 8 l 8.17,11.07 V 4.17 H 160 Z"
       id="path10"
       style="fill:#ffe680;fill-opacity:1" />
    <path
       d="m 275.22,30.68 h -8.54 L 259,20.16 v 10.31 h -9.34 V 4.17 h 8.05 l 8.16,11.07 V 4.17 h 9.34 z"
       id="path12"
       style="fill:#ffe680;fill-opacity:1" />
    <path
       d="m 414.08,30.68 h -8.55 l -7.66,-10.52 v 10.31 h -9.33 V 4.17 h 8 l 8.18,11.07 V 4.17 h 9.33 z"
       id="path14"
       style="fill:#ffe680;fill-opacity:1" />
    <path
       d="M 164.13,14.41 V 4.17 h 23.39 v 10.24 h -6.59 V 30.47 H 170.72 V 14.41 Z"
       id="path16"
       style="fill:#ffe680;fill-opacity:1" />
    <path
       d="M 314.12,14.41 V 4.17 h 23.36 v 10.24 h -6.56 V 30.47 H 320.69 V 14.41 Z"
       id="path18"
       style="fill:#ffe680;fill-opacity:1" />
    <path
       d="M 492.3,14.41 V 4.17 h 23.38 V 14.41 H 509.1 V 30.47 H 498.89 V 14.41 Z"
       id="path20"
       style="fill:#ffe680;fill-opacity:1" />
    <path
       d="M 657.9,14.41 V 4.17 h 23.36 v 10.24 h -6.58 V 30.47 H 664.47 V 14.41 Z"
       id="path22"
       style="fill:#ffe680;fill-opacity:1" />
    <path
       d="m 213.29,24.64 v 5.83 H 191.44 V 4.17 h 21.85 v 5.92 h -11.65 v 4.68 h 8.54 v 5.13 h -8.54 v 4.74 z"
       id="path24"
       style="fill:#ffe680;fill-opacity:1" />
    <path
       d="m 217.54,4.17 h 17.19 a 10.08,10.08 0 0 1 7,2.29 7.2,7.2 0 0 1 2.53,5.59 c 0,2.51 -1.57,4.4 -3.58,5.86 a 22.6,22.6 0 0 1 5.68,12.56 H 235 a 20.93,20.93 0 0 0 -1.49,-7.36 c -0.77,-1.54 -2.72,-2.33 -5.78,-2.33 v 9.69 h -10.2 z m 10.2,5.47 v 5 h 1.76 c 3.07,0 3.85,-0.81 3.85,-2.5 a 2.68,2.68 0 0 0 -0.63,-1.78 4.67,4.67 0 0 0 -2.85,-0.76 z"
       id="path26"
       style="fill:#ffe680;fill-opacity:1" />
    <path
       d="m 289.12,30.47 h -10.2 l 9.13,-26.3 h 16.6 l 9.12,26.3 H 303.58 L 302.06,26 h -11.41 z m 3.64,-10.67 h 7.18 L 296.29,9.61 Z"
       id="path28"
       style="fill:#ffe680;fill-opacity:1" />
    <path
       d="m 428,30.47 h -10.23 l 9.14,-26.3 h 16.59 l 9.14,26.3 h -10.2 L 440.92,26 H 429.5 Z m 3.64,-10.67 h 7.18 L 435.16,9.61 Z"
       id="path30"
       style="fill:#ffe680;fill-opacity:1" />
    <path
       d="m 371.16,30.89 a 12.87,12.87 0 0 1 -9.55,-3.95 12.91,12.91 0 0 1 -3.93,-9.58 13.18,13.18 0 0 1 3.93,-9.65 13.59,13.59 0 0 1 19.12,0 13.16,13.16 0 0 1 3.91,9.65 12.9,12.9 0 0 1 -3.91,9.58 12.86,12.86 0 0 1 -9.57,3.95 z m 0,-18.8 a 3.91,3.91 0 0 0 -3,1.34 4.39,4.39 0 0 0 -1.2,3.15 4.39,4.39 0 0 0 1.2,3.22 4.15,4.15 0 0 0 6.09,0 4.37,4.37 0 0 0 1.23,-3.22 4.37,4.37 0 0 0 -1.23,-3.15 3.9,3.9 0 0 0 -3.09,-1.34 z"
       id="path32"
       style="fill:#ffe680;fill-opacity:1" />
    <path
       d="m 532.09,30.89 a 12.91,12.91 0 0 1 -9.56,-3.95 13,13 0 0 1 -3.91,-9.58 13.24,13.24 0 0 1 3.91,-9.65 13.6,13.6 0 0 1 19.13,0 13.25,13.25 0 0 1 3.92,9.65 13,13 0 0 1 -3.92,9.58 12.91,12.91 0 0 1 -9.57,3.95 z m 0,-18.8 a 3.89,3.89 0 0 0 -3,1.34 4.39,4.39 0 0 0 -1.2,3.15 4.39,4.39 0 0 0 1.2,3.22 4.15,4.15 0 0 0 6.09,0 4.32,4.32 0 0 0 1.21,-3.22 4.31,4.31 0 0 0 -1.21,-3.15 3.91,3.91 0 0 0 -3.09,-1.34 z"
       id="path34"
       style="fill:#ffe680;fill-opacity:1" />
    <path
       d="m 625.91,30.89 a 12.9,12.9 0 0 1 -9.55,-3.95 13,13 0 0 1 -3.93,-9.58 13.26,13.26 0 0 1 3.93,-9.65 13.6,13.6 0 0 1 19.13,0 13.22,13.22 0 0 1 3.93,9.65 13,13 0 0 1 -3.93,9.58 12.92,12.92 0 0 1 -9.58,3.95 z m 0,-18.8 a 3.89,3.89 0 0 0 -3,1.34 4.34,4.34 0 0 0 -1.19,3.15 4.35,4.35 0 0 0 1.19,3.22 4.15,4.15 0 0 0 6.09,0 4.33,4.33 0 0 0 1.22,-3.22 4.32,4.32 0 0 0 -1.22,-3.15 3.89,3.89 0 0 0 -3.09,-1.34 z"
       id="path36"
       style="fill:#ffe680;fill-opacity:1" />
    <path
       d="m 698.12,30.89 a 12.84,12.84 0 0 1 -9.55,-3.95 13,13 0 0 1 -4,-9.58 13.24,13.24 0 0 1 4,-9.65 13.6,13.6 0 0 1 19.13,0 13.32,13.32 0 0 1 3.91,9.65 13,13 0 0 1 -3.91,9.58 13,13 0 0 1 -9.58,3.95 z m 0,-18.8 a 3.89,3.89 0 0 0 -3,1.34 4.35,4.35 0 0 0 -1.21,3.15 4.36,4.36 0 0 0 1.21,3.22 4.15,4.15 0 0 0 6.09,0 4.37,4.37 0 0 0 1.22,-3.22 4.36,4.36 0 0 0 -1.22,-3.15 3.88,3.88 0 0 0 -3.09,-1.34 z"
       id="path38"
       style="fill:#ffe680;fill-opacity:1" />
    <path
       d="m 831.46,30.89 a 12.88,12.88 0 0 1 -9.55,-3.95 12.88,12.88 0 0 1 -3.91,-9.58 13.14,13.14 0 0 1 3.93,-9.65 13.6,13.6 0 0 1 19.13,0 13.26,13.26 0 0 1 3.94,9.65 13,13 0 0 1 -4,9.58 13,13 0 0 1 -9.54,3.95 z m 0,-18.8 a 3.89,3.89 0 0 0 -3,1.34 4.31,4.31 0 0 0 -1.2,3.15 4.31,4.31 0 0 0 1.2,3.22 4.14,4.14 0 0 0 6.08,0 4.33,4.33 0 0 0 1.23,-3.22 4.33,4.33 0 0 0 -1.23,-3.15 3.88,3.88 0 0 0 -3.08,-1.34 z"
       id="path40"
       style="fill:#ffe680;fill-opacity:1" />
    <path
       d="M 456,30.47 V 4.17 h 10.2 v 19.7 h 11.64 v 6.6 z"
       id="path42"
       style="fill:#ffe680;fill-opacity:1" />
    <path
       d="m 560,4.17 v 8.77 q 5.15,-0.22 6.69,-2.47 a 11.18,11.18 0 0 0 1.56,-6.3 h 11.15 a 20.81,20.81 0 0 1 -1.26,7.92 c -0.84,2.13 -3.08,3.86 -4.88,5.27 a 17.34,17.34 0 0 1 6.88,13.11 H 568.3 c -0.18,-6.69 -3.07,-9.42 -8.29,-9.54 v 9.54 H 549.83 V 4.17 Z"
       id="path44"
       style="fill:#ffe680;fill-opacity:1" />
    <path
       d="M 602.8,30.47 H 592.6 V 19 L 582.13,4.17 h 10.35 l 5.22,8.53 5.19,-8.53 h 10.35 L 602.8,19 Z"
       id="path46"
       style="fill:#ffe680;fill-opacity:1" />
    <path
       d="M 730.87,30.47 H 720.66 V 19 L 710.2,4.17 h 10.34 l 5.22,8.53 5.24,-8.53 h 10.37 L 730.87,19 Z"
       id="path48"
       style="fill:#ffe680;fill-opacity:1" />
    <path
       d="m 780.52,5.5 -2.43,7 c -1.9,-1.43 -4.33,-3 -6.78,-3.17 -0.78,0 -2,-0.19 -2.52,1 -0.46,1 -0.46,2.37 4.29,3.75 a 17.62,17.62 0 0 1 4.64,2.1 7.13,7.13 0 0 1 2.44,2.52 7.44,7.44 0 0 1 0.81,3.53 7.41,7.41 0 0 1 -3.2,6.46 q -3.21,2.18 -9.42,2.17 a 35.45,35.45 0 0 1 -12.29,-2 l 2.69,-7.54 c 0.9,0.7 2.88,1.75 4.74,2.92 2.32,1.37 3.87,0.84 4.42,0 0.55,-0.84 1,-2.39 -3.63,-4.05 A 19.84,19.84 0 0 1 760.8,18.58 7.37,7.37 0 0 1 757.4,12.52 7.32,7.32 0 0 1 760.58,6 c 2.13,-1.54 5,-2.5 9.14,-2.5 a 33.08,33.08 0 0 1 10.8,2 z"
       id="path50"
       style="fill:#ffe680;fill-opacity:1" />
    <path
       d="M 795.85,30.47 H 785.64 V 4.17 h 10.21 v 9.67 h 7.65 V 4.17 h 10.23 v 26.3 H 803.5 v -9.72 h -7.65 z"
       id="path52"
       style="fill:#ffe680;fill-opacity:1" />
    <path
       d="M 863.83,30.47 H 856 l -9.28,-26.3 h 9.92 l 4.49,12.16 4.64,-12.16 H 871 l 4.79,12.16 4.31,-12.16 h 9.9 l -8.86,26.3 h -7.87 L 868.4,18.64 Z"
       id="path54"
       style="fill:#ffe680;fill-opacity:1" />
  </g>
  <g
     id="g98">
    <g
       id="g66">
      <g
         id="g62">
        <path
           class="cls-1"
           d="m 36.61,30.94 0.78,-3.77 a 0.58,0.58 0 0 1 0.65,-0.46 39.56,39.56 0 0 0 8.92,0 c 7.06,-0.78 10.49,-3.92 11.34,-5.8 a 1.06,1.06 0 0 0 -0.06,-1 C 57.98,19.58 57.39,19.62 56.99,19.73 A 48.27,48.27 0 0 1 37.71,20.3 0.58,0.58 0 0 1 37.25,19.61 L 40.63,2.27 A 0.59,0.59 0 0 1 41.2,1.8 L 61.77,1.7 a 0.59,0.59 0 0 1 0.57,0.46 l 6.22,28.48 a 0.58,0.58 0 0 0 0.62,0.46 l 26,-2.52 a 0.6,0.6 0 0 1 0.61,0.4 L 102,47.63 a 0.59,0.59 0 0 1 -0.27,0.69 L 81.41,60 a 0.58,0.58 0 0 0 -0.24,0.73 l 13.5,31.1 a 0.58,0.58 0 0 1 -0.19,0.7 l -16.87,12.16 a 0.57,0.57 0 0 1 -0.73,0 L 52.43,82.27 a 0.57,0.57 0 0 0 -0.78,0 l -24.24,22.6 a 0.57,0.57 0 0 1 -0.73,0.05 l -17,-12 a 0.57,0.57 0 0 1 -0.2,-0.7 L 22.68,61 A 0.58,0.58 0 0 0 22.43,60.27 L 2,48.79 A 0.58,0.58 0 0 1 1.73,48.11 l 6,-18.72 a 0.58,0.58 0 0 1 0.6,-0.4 l 27.71,2.37 a 0.52,0.52 0 0 0 0.57,-0.42 z"
           id="path58" />
        <path
           d="m 27,106.74 a 2.24,2.24 0 0 1 -1.32,-0.43 l -17,-12 A 2.28,2.28 0 0 1 7.89,91.55 L 20.75,61.31 1.16,50.31 a 2.29,2.29 0 0 1 -1,-2.69 l 6,-18.72 a 2.25,2.25 0 0 1 2.36,-1.58 l 26.67,2.28 0.57,-2.75 a 2.31,2.31 0 0 1 2.53,-1.85 37.36,37.36 0 0 0 8.49,0 c 4.43,-0.49 7.13,-1.95 8.6,-3.2 A 50.9,50.9 0 0 1 37.44,22 2.28,2.28 0 0 1 35.58,19.3 L 39,1.94 A 2.28,2.28 0 0 1 41.2,0.1 L 61.76,0 V 0 A 2.29,2.29 0 0 1 64,1.8 l 6,27.5 25,-2.41 a 2.28,2.28 0 0 1 2.39,1.56 l 6.19,18.65 a 2.29,2.29 0 0 1 -1,2.7 L 83.13,61 96.23,91.18 A 2.29,2.29 0 0 1 95.47,94 L 78.61,106.07 A 2.32,2.32 0 0 1 75.73,105.9 L 52.05,84.23 28.58,106.13 A 2.33,2.33 0 0 1 27,106.74 Z m 0.64,-3.21 z M 11.43,92.1 26.92,103 50.48,81 a 2.28,2.28 0 0 1 3.11,0 L 77.36,102.74 92.75,91.71 79.61,61.45 a 2.28,2.28 0 0 1 1,-2.89 L 100.12,47.3 94.49,30.36 69.35,32.79 A 2.27,2.27 0 0 1 66.89,31 l -6,-27.59 -18.76,0.09 -3,15.26 a 45.47,45.47 0 0 0 17.42,-0.7 2.77,2.77 0 0 1 3,0.76 2.75,2.75 0 0 1 0.28,2.79 c -1.18,2.62 -5.22,6 -12.7,6.79 a 42.63,42.63 0 0 1 -8.3,0.11 l -0.57,2.78 a 2.23,2.23 0 0 1 -2.37,1.77 L 9.1,30.77 l -5.47,17 19.66,11.06 a 2.29,2.29 0 0 1 1,2.88 z M 51.28,83.53 Z M 34.94,30.59 Z M 9.37,29.91 Z m 84.84,-0.4 z M 38.92,19.9 Z M 41.22,3.5 Z M 61.78,3.41 Z m -1.1,-0.89 z"
           id="path60" />
      </g>
      <path
         d="m 46.23,18.44 a 0.9,0.9 0 0 1 -0.87,-1.17 50.46,50.46 0 0 0 2,-11.94 0.9,0.9 0 0 1 0.94,-0.85 0.91,0.91 0 0 1 0.86,0.95 52,52 0 0 1 -2.08,12.37 0.91,0.91 0 0 1 -0.85,0.64 z"
         id="path64" />
    </g>
    <path
       d="m 57.48,12.44 a 1.44,1.44 0 1 1 -2.83,0 1.43,1.43 0 1 1 2.83,0 z"
       id="path68" />
    <path
       d="m 42.52,8.47 a 1.12,1.12 0 1 0 2.21,0 1.12,1.12 0 1 0 -2.21,0 z"
       id="path70" />
    <g
       id="g96">
      <path
         class="cls-2"
         d="m 40.07,42.18 v 1.22 a 4,4 0 0 1 -3.37,1.6 4.13,4.13 0 0 1 -2.93,-1 3.43,3.43 0 0 1 -1.12,-2.66 3.39,3.39 0 0 1 1,-2.57 3.68,3.68 0 0 1 2.64,-1 4.24,4.24 0 0 1 1.53,0.27 3.22,3.22 0 0 1 1.23,0.81 3.45,3.45 0 0 1 0.77,1.25 5.72,5.72 0 0 1 0.25,1.74 h -3.66 a 1.7,1.7 0 0 0 0.67,0.84 2,2 0 0 0 1.05,0.3 2.64,2.64 0 0 0 1.94,-0.8 z m -3.88,-1.59 h 1.68 A 1.33,1.33 0 0 0 37.61,39.78 0.75,0.75 0 0 0 37,39.49 a 0.73,0.73 0 0 0 -0.57,0.29 1.23,1.23 0 0 0 -0.24,0.81 z"
         id="path72" />
      <path
         class="cls-2"
         d="m 44.73,37.83 v 0.88 a 2.91,2.91 0 0 1 2.16,-0.94 2.47,2.47 0 0 1 1.88,0.66 2.9,2.9 0 0 1 0.66,2 v 4.34 H 46.06 V 40.7 c 0,-0.58 -0.22,-0.86 -0.66,-0.86 a 1.12,1.12 0 0 0 -0.64,0.23 v 4.71 h -3.58 v -7 z"
         id="path74" />
      <path
         class="cls-2"
         d="m 56.29,37.77 v 2 H 54.8 v 1.5 c 0,0.5 0.23,0.75 0.68,0.75 a 1,1 0 0 0 0.85,-0.5 v 2.76 a 3.61,3.61 0 0 1 -2.06,0.57 3.17,3.17 0 0 1 -2.18,-0.76 2.69,2.69 0 0 1 -0.89,-2.12 v -2.22 h -1.44 l 5,-4 v 2 z"
         id="path76" />
      <path
         class="cls-2"
         d="m 64.57,42.06 v 1.22 a 4,4 0 0 1 -3.38,1.56 4.16,4.16 0 0 1 -2.93,-1 3.45,3.45 0 0 1 -1.12,-2.66 3.41,3.41 0 0 1 1,-2.56 3.61,3.61 0 0 1 2.63,-1 4.06,4.06 0 0 1 1.54,0.28 3.49,3.49 0 0 1 1.23,0.8 3.38,3.38 0 0 1 0.77,1.3 5.14,5.14 0 0 1 0.25,1.73 h -3.65 a 1.6,1.6 0 0 0 0.66,0.83 1.9,1.9 0 0 0 1.06,0.3 2.56,2.56 0 0 0 1.94,-0.8 z m -3.88,-1.58 h 1.68 a 1.35,1.35 0 0 0 -0.26,-0.81 0.73,0.73 0 0 0 -0.61,-0.29 0.72,0.72 0 0 0 -0.57,0.28 1.15,1.15 0 0 0 -0.24,0.82 z"
         id="path78" />
      <path
         class="cls-2"
         d="m 69.24,39.24 a 2.17,2.17 0 0 1 2,-1.59 1.58,1.58 0 0 1 1.19,0.47 1.61,1.61 0 0 1 0.48,1.2 1.7,1.7 0 0 1 -0.46,1.24 1.64,1.64 0 0 1 -1.2,0.48 1.94,1.94 0 0 1 -1.45,-0.63 2.11,2.11 0 0 0 -0.53,1.68 v 2.6 h -3.58 v -7 h 3.58 z"
         id="path80" />
      <path
         class="cls-2"
         d="m 32.59,56.34 v -5.65 h 11.32 v 5.64 h -2.84 v 7.09 h -5.65 v -7.09 z"
         id="path82" />
      <path
         class="cls-2"
         d="M 52.33,63.55 A 6.26,6.26 0 0 1 47.7,61.66 6.42,6.42 0 0 1 45.78,57 a 6.53,6.53 0 1 1 6.55,6.55 z m 0,-8.26 a 1.17,1.17 0 0 0 -0.9,0.38 1.46,1.46 0 0 0 0,1.92 1.23,1.23 0 0 0 0.91,0.37 1.21,1.21 0 0 0 0.91,-0.38 1.48,1.48 0 0 0 0,-1.92 1.21,1.21 0 0 0 -0.95,-0.37 z"
         id="path84" />
      <path
         class="cls-2"
         d="m 69.16,63.25 h -5.64 v -5.56 l -4.89,-7.15 h 5.71 l 2,2.88 1.94,-2.89 H 74 l -4.82,7.2 z"
         id="path86" />
      <path
         class="cls-2"
         d="M 36.56,68.17 V 69 a 2.8,2.8 0 0 1 2.14,-0.94 2.44,2.44 0 0 1 2.3,1.23 4.38,4.38 0 0 1 1.2,-0.92 3.23,3.23 0 0 1 1.35,-0.3 2.37,2.37 0 0 1 1.79,0.69 2.75,2.75 0 0 1 0.66,2 v 4.38 h -3.39 v -4.17 a 0.86,0.86 0 0 0 -0.18,-0.58 0.59,0.59 0 0 0 -0.48,-0.2 1.17,1.17 0 0 0 -0.66,0.23 v 4.72 H 37.9 v -4.17 a 0.85,0.85 0 0 0 -0.18,-0.57 0.6,0.6 0 0 0 -0.48,-0.21 1.14,1.14 0 0 0 -0.66,0.24 v 4.71 H 33 v -7 z"
         id="path88" />
      <path
         class="cls-2"
         d="m 54.91,72.4 v 1.22 a 4,4 0 0 1 -3.38,1.56 4.11,4.11 0 0 1 -2.93,-1 3.73,3.73 0 0 1 -0.1,-5.18 3.6,3.6 0 0 1 2.63,-1 3.87,3.87 0 0 1 1.54,0.27 3.38,3.38 0 0 1 1.23,0.73 3.26,3.26 0 0 1 0.76,1.25 5.14,5.14 0 0 1 0.25,1.75 h -3.65 a 1.6,1.6 0 0 0 0.66,0.83 1.9,1.9 0 0 0 1.06,0.3 2.54,2.54 0 0 0 1.93,-0.73 z M 51,70.82 h 1.68 A 1.35,1.35 0 0 0 52.42,70.01 0.73,0.73 0 0 0 51.81,69.72 0.7,0.7 0 0 0 51.24,70.01 1.17,1.17 0 0 0 51,70.82 Z"
         id="path90" />
      <path
         class="cls-2"
         d="m 60.05,68.05 v 0.88 A 2.87,2.87 0 0 1 62.2,68 a 2.48,2.48 0 0 1 1.89,0.67 2.82,2.82 0 0 1 0.66,2 V 75 h -3.39 v -4.07 q 0,-0.87 -0.66,-0.87 a 1.12,1.12 0 0 0 -0.64,0.23 V 75 h -3.59 v -7 z"
         id="path92" />
      <path
         class="cls-2"
         d="m 72.08,68 v 2 H 70.6 v 1.5 c 0,0.5 0.23,0.76 0.69,0.75 a 1,1 0 0 0 0.85,-0.5 v 2.77 A 3.63,3.63 0 0 1 70.1,75 3.17,3.17 0 0 1 67.92,74.24 2.63,2.63 0 0 1 67,72.16 V 70 h -1.45 l 5,-4 v 2 z"
         id="path94" />
    </g>
  </g>
  <g
     id="g132"
     style="fill:#ffe680;fill-opacity:1">
    <g
       id="g120"
       style="fill:#ffe680;fill-opacity:1">
      <path
         d="M 369.2,64.34 V 52.56 H 335.55 V 48.51 H 318 v 4.05 h -4.68 V 64.34 H 318 v 3.45 h -4.68 V 79.61 H 318 V 82 c 0,15.08 6.68,23 21.07,23 h 8.15 c 11.71,0 21.85,-5.48 21.85,-24.28 v -13 h -17.2 v 13 c 0,4.41 -1.69,7.68 -7.66,7.68 h -1.3 c -4.29,0 -7.36,-1.17 -7.36,-6.37 v -2.4 h 12.93 V 67.79 h -12.93 v -3.45 z"
         id="path100"
         style="fill:#ffe680;fill-opacity:1" />
      <path
         d="M 413.1,69.52 H 405 v -3.38 h 25.8 V 52 H 405 V 48.51 H 387.44 V 52 h -9.68 v 14.14 h 9.68 v 17.92 h 23.07 c 2.38,0 3.1,1 3.1,2.34 0,1.18 -0.92,2 -3.32,2 h -28.8 V 105 h 28.8 c 17.41,0 22.92,-5.91 22.92,-18.18 0,-15.48 -8.64,-17.3 -20.11,-17.3 z"
         id="path102"
         style="fill:#ffe680;fill-opacity:1" />
      <path
         d="m 283.35,69.52 h -5.29 v -3.45 h 5.7 V 52 h -5.7 V 48.51 H 263.13 V 52 h -15.32 v 14.07 h 15.46 v 3.45 h -1.64 c -7.85,0 -15.38,5.36 -15.38,17.78 0,11.7 6.15,17.7 16.75,17.7 13.54,0 15.07,-8.08 15.07,-17.07 v -3.87 h 5.63 c 2.15,0 3.4,0.33 3.4,2.2 0,1.45 -0.69,2.12 -3.3,2.12 -1.24,0 -2.43,0 -2.43,0 V 105 h 2.2 c 10.5,0 19.36,-3 19.36,-18.14 -0.01,-12.17 -9.12,-17.34 -19.58,-17.34 z m -20.08,18.56 c 0,1.86 -0.59,2.75 -1.53,2.75 h -0.57 c -1.57,0 -2,-1.73 -2,-3.53 0,-2.25 1.16,-3.23 2.87,-3.23 h 1.2 z m 23.88,-42.19 v 14.22 c 3.1,0 3.52,1.92 3.52,3.44 v 4.09 h 14.1 V 62 c 0,-11.26 -4.77,-16.63 -17.62,-16.11 z"
         id="path104"
         style="fill:#ffe680;fill-opacity:1" />
      <path
         d="m 527.93,69.52 -2.48,9.4 c -1.9,6.59 -8.93,9.46 -15.07,9.46 h -19.3 V 105 h 20.25 c 15,0 26.78,-7 30.34,-22.22 1.61,-6.86 2.17,-14.36 6.37,-14.36 v -18 c -14.34,-0.01 -17.3,6.93 -20.11,19.1 z m -9.9,-21 H 491.08 V 63.06 H 518 Z m 0,18 H 491.08 V 81.09 H 518 Z"
         id="path106"
         style="fill:#ffe680;fill-opacity:1" />
      <rect
         x="602.31"
         y="68.709999"
         width="52.240002"
         height="17.200001"
         id="rect108"
         style="fill:#ffe680;fill-opacity:1" />
      <path
         d="m 579.9,63.89 h -25.46 v 12.25 h 23.78 c 2.28,0 1.93,2 1.93,3.44 H 556.8 v 9.69 h 23.35 v 3.46 H 554.44 V 105 h 40.34 V 77.41 c 0,-6.24 -3.93,-13.52 -14.88,-13.52 z"
         id="path110"
         style="fill:#ffe680;fill-opacity:1" />
      <path
         d="m 476.77,71.75 c 0.74,-1 1.84,-1.39 3.63,-1.39 V 60.15 c -10,0 -14.2,3.87 -16,8.45 h -7 l -0.3,-4.71 h -12.51 l 0.31,4.71 h -4.72 v 13.11 h 5.59 l 1.5,23.27 h 12.49 l -1.49,-23.27 h 5.58 c 3.26,0 4.71,1 4.71,3.14 0,2.38 -1.45,3.56 -5.61,3.56 v 13.1 c 14.81,0 19.38,-5.75 19.38,-15.25 v -2.94 c 0.03,-4.4 -1.53,-8.82 -5.56,-11.57 z"
         id="path112"
         style="fill:#ffe680;fill-opacity:1" />
      <path
         d="m 183.16,86.33 h 18.93 V 105 h 16.74 V 86.33 h 19 V 61.71 h -54.67 z m 13.7,-14.16 h 27.29 v 3.72 h -27.29 z m 21,-23.66 v -2.62 h -14.78 v 2.62 h -21 v 9.77 h 56.75 V 48.51 Z M 189.09,89.6 c -0.16,3.79 -3.41,5.42 -7,5.12 V 105 c 13.44,0.53 17.92,-5.66 17.57,-15.39 z"
         id="path114"
         style="fill:#ffe680;fill-opacity:1" />
      <path
         d="M 173.85,58.22 V 48.51 H 152.92 V 45.89 H 138.1 v 2.62 h -20.88 v 9.71 h 20.88 v 3.46 h -19.92 v 27.85 h 13.47 c -2.12,3 -8.48,5.21 -14.59,5.1 v 10.3 c 9.35,0 16.38,-2.19 20.08,-6.22 V 105 h 16.56 v -6.29 c 3.73,4 10.76,6.27 20.06,6.22 v -10.3 c -5.84,0.11 -12,-1.29 -14.56,-5.1 h 13.65 V 61.68 H 152.92 V 58.22 Z M 138.1,83 h -6.25 v -3.41 h 6.25 z m 0,-11.33 h -6.25 v -3.45 h 6.25 z M 159.15,83 h -6.23 v -3.41 h 6.23 z m 0,-14.79 v 3.46 h -6.23 v -3.45 z"
         id="path116"
         style="fill:#ffe680;fill-opacity:1" />
      <path
         d="m 231.87,89.6 c 0.12,3.79 3.42,5.42 7,5.12 V 105 c -13.4,0.53 -17.86,-5.66 -17.55,-15.39 z"
         id="path118"
         style="fill:#ffe680;fill-opacity:1" />
    </g>
    <g
       id="g130"
       style="fill:#ffe680;fill-opacity:1">
      <path
         d="m 663.2,49.09 v 15.75 h 32.06 c 2.06,0 3.5,0.55 3.5,2.56 0,1.7 -1.22,2.5 -3.5,2.5 H 666.12 V 105 h 48 V 88.57 h -30 v -4.26 h 9.75 c 20.24,0.43 23.8,-8 23.79,-17.19 0,-13.59 -7.54,-18 -22.07,-18 z"
         id="path122"
         style="fill:#ffe680;fill-opacity:1" />
      <path
         d="m 782.66,49.09 v 15.75 h 32.05 c 2.07,0 3.51,0.55 3.51,2.56 -0.05,1.7 -1.23,2.5 -3.51,2.5 H 785.58 V 105 h 48 V 88.57 h -30 v -4.26 h 9.75 c 20.24,0.43 23.79,-8 23.79,-17.19 0,-13.59 -7.55,-18 -22.08,-18 z"
         id="path124"
         style="fill:#ffe680;fill-opacity:1" />
      <path
         d="m 844.7,49.09 v 15.75 h 10.59 c 3.79,0 5.6,2.29 5.6,5.12 V 105 h 19.49 V 70 c 0,-17.83 -9.47,-20.87 -21.22,-20.87 z"
         id="path126"
         style="fill:#ffe680;fill-opacity:1" />
      <path
         d="m 744,49.09 c -10.37,0 -21.58,8.54 -21.58,19.07 V 86 c 0,10.5 11.21,19 21.58,19 h 11.55 c 10.43,0 21.58,-8.5 21.58,-19 V 68.16 c 0,-10.53 -11.15,-19.07 -21.58,-19.07 z m -3.25,34.65 V 70.35 c 0,-2.28 2.13,-5.51 4.72,-5.51 h 8.65 c 2.53,0 4.72,3.23 4.72,5.51 v 13.39 c 0,2.53 -2.3,5.59 -4.72,5.59 h -8.65 c -2.66,0 -4.7,-2.99 -4.7,-5.59 z"
         id="path128"
         style="fill:#ffe680;fill-opacity:1" />
    </g>
  </g>
</svg>
