<?xml version="1.0" encoding="UTF-8" standalone="no"?>
<svg
   viewBox="0 0 198.05 23.37"
   version="1.1"
   id="svg118"
   sodipodi:docname="2022.svg"
   inkscape:version="1.1.2 (b8e25be833, 2022-02-05)"
   xmlns:inkscape="http://www.inkscape.org/namespaces/inkscape"
   xmlns:sodipodi="http://sodipodi.sourceforge.net/DTD/sodipodi-0.dtd"
   xmlns="http://www.w3.org/2000/svg"
   xmlns:svg="http://www.w3.org/2000/svg">
  <sodipodi:namedview
     id="namedview120"
     pagecolor="#505050"
     bordercolor="#ffffff"
     borderopacity="1"
     inkscape:pageshadow="0"
     inkscape:pageopacity="0"
     inkscape:pagecheckerboard="1"
     showgrid="false"
     inkscape:zoom="5.3420852"
     inkscape:cx="99.118599"
     inkscape:cy="11.605955"
     inkscape:window-width="1920"
     inkscape:window-height="1027"
     inkscape:window-x="-8"
     inkscape:window-y="-8"
     inkscape:window-maximized="1"
     inkscape:current-layer="svg118" />
  <defs
     id="defs4">
    <style
       id="style2">.cls-1{fill:#e6222e;stroke:#231815;stroke-width:0.75px;}.cls-2{fill:#231815;}.cls-3{fill:#fff;}</style>
  </defs>
  <path
     class="cls-1"
     d="M 8,6.78 8.19,6 a 0.12,0.12 0 0 1 0.14,-0.1 8.65,8.65 0 0 0 1.95,0 3,3 0 0 0 2.49,-1.27 0.25,0.25 0 0 0 0,-0.23 C 12.72,4.33 12.59,4.34 12.5,4.4 A 10.59,10.59 0 0 1 8.28,4.53 0.12,0.12 0 0 1 8.18,4.38 L 8.9,0.5 A 0.13,0.13 0 0 1 9,0.39 h 4.51 a 0.12,0.12 0 0 1 0.12,0.1 L 15,6.71 a 0.13,0.13 0 0 0 0.14,0.1 l 5.7,-0.55 a 0.12,0.12 0 0 1 0.13,0.09 l 1.36,4.08 a 0.12,0.12 0 0 1 -0.06,0.15 l -4.45,2.57 a 0.13,0.13 0 0 0 -0.06,0.16 l 3,6.81 a 0.13,0.13 0 0 1 0,0.15 L 17,22.92 a 0.12,0.12 0 0 1 -0.16,0 L 11.48,18 a 0.12,0.12 0 0 0 -0.17,0 L 6,23 A 0.13,0.13 0 0 1 5.84,23 L 2.13,20.36 a 0.14,0.14 0 0 1 0,-0.16 L 5,13.37 A 0.13,0.13 0 0 0 5,13.21 L 0.44,10.68 A 0.12,0.12 0 0 1 0.38,10.53 L 1.7,6.44 A 0.12,0.12 0 0 1 1.83,6.35 L 7.9,6.87 A 0.13,0.13 0 0 0 8,6.78 Z"
     id="path6" />
  <path
     class="cls-2"
     d="M 10.12,4 H 10.06 A 0.2,0.2 0 0 1 9.93,3.75 10.7,10.7 0 0 0 10.38,1.14 0.21,0.21 0 0 1 10.59,1 0.19,0.19 0 0 1 10.77,1.21 11,11 0 0 1 10.31,3.92 0.2,0.2 0 0 1 10.12,4.06 Z"
     id="path8" />
  <path
     class="cls-2"
     d="m 12.59,2.72 a 0.31,0.31 0 1 1 -0.62,0 0.33,0.33 0 0 1 0.3,-0.37 0.34,0.34 0 0 1 0.32,0.37 z"
     id="path10" />
  <path
     class="cls-2"
     d="M 9.31,1.86 A 0.27,0.27 0 0 0 9.55,2.14 0.26,0.26 0 0 0 9.79,1.85 0.26,0.26 0 0 0 9.55,1.57 0.27,0.27 0 0 0 9.31,1.86 Z"
     id="path12" />
  <path
     class="cls-3"
     d="M 8.77,9.24 V 9.5 A 0.86,0.86 0 0 1 8,9.84 1,1 0 0 1 7.35,9.63 0.78,0.78 0 0 1 7.15,9 0.75,0.75 0 0 1 7.37,8.44 0.82,0.82 0 0 1 8,8.26 0.88,0.88 0 0 1 8.33,8.32 0.64,0.64 0 0 1 8.6,8.5 a 0.77,0.77 0 0 1 0.17,0.27 1.4,1.4 0 0 1 0,0.38 H 8 A 0.38,0.38 0 0 0 8.15,9.33 0.44,0.44 0 0 0 8.38,9.39 0.54,0.54 0 0 0 8.77,9.24 Z M 7.92,8.89 H 8.29 A 0.3,0.3 0 0 0 8.29,8.71 0.18,0.18 0 0 0 8.15,8.65 0.14,0.14 0 0 0 8,8.71 0.24,0.24 0 0 0 7.92,8.89 Z"
     id="path14" />
  <path
     class="cls-3"
     d="m 9.79,8.28 v 0.2 a 0.64,0.64 0 0 1 0.48,-0.21 0.56,0.56 0 0 1 0.41,0.15 0.63,0.63 0 0 1 0.14,0.44 v 1 H 10.08 V 8.92 c 0,-0.13 -0.05,-0.19 -0.14,-0.19 a 0.24,0.24 0 0 0 -0.14,0 v 1 H 9 V 8.29 Z"
     id="path16" />
  <path
     class="cls-3"
     d="M 12.33,8.27 V 8.7 H 12 V 9 c 0,0.11 0.05,0.17 0.15,0.16 A 0.22,0.22 0 0 0 12.34,9.05 V 9.66 A 0.79,0.79 0 0 1 11.89,9.78 0.67,0.67 0 0 1 11.41,9.62 0.58,0.58 0 0 1 11.22,9.15 V 8.71 H 10.9 L 12,7.84 v 0.43 z"
     id="path18" />
  <path
     class="cls-3"
     d="m 14.14,9.21 v 0.27 a 1,1 0 0 1 -1.38,0.12 0.81,0.81 0 0 1 0,-1.14 0.78,0.78 0 0 1 0.58,-0.22 1,1 0 0 1 0.34,0.06 0.65,0.65 0 0 1 0.26,0.17 0.62,0.62 0 0 1 0.17,0.28 1,1 0 0 1 0.06,0.38 h -0.8 a 0.32,0.32 0 0 0 0.14,0.18 0.39,0.39 0 0 0 0.23,0.07 0.58,0.58 0 0 0 0.4,-0.17 z M 13.29,8.86 h 0.37 A 0.48,0.48 0 0 0 13.6,8.68 0.16,0.16 0 0 0 13.47,8.62 0.18,0.18 0 0 0 13.34,8.68 0.3,0.3 0 0 0 13.29,8.86 Z"
     id="path20" />
  <path
     class="cls-3"
     d="m 15.16,8.59 a 0.49,0.49 0 0 1 0.43,-0.35 0.37,0.37 0 0 1 0.27,0.11 0.38,0.38 0 0 1 0.1,0.26 0.36,0.36 0 0 1 -0.1,0.27 A 0.35,0.35 0 0 1 15.6,9 0.43,0.43 0 0 1 15.28,8.86 0.46,0.46 0 0 0 15.16,9.23 V 9.8 H 14.37 V 8.26 h 0.78 z"
     id="path22" />
  <path
     class="cls-3"
     d="M 7.14,12.34 V 11.1 h 2.47 v 1.23 H 9 v 1.55 H 7.77 v -1.55 z"
     id="path24" />
  <path
     class="cls-3"
     d="m 11.46,13.92 a 1.39,1.39 0 0 1 -1,-0.42 1.47,1.47 0 0 1 -0.42,-1 1.42,1.42 0 0 1 0.41,-1 1.39,1.39 0 0 1 1,-0.42 1.36,1.36 0 0 1 1,0.41 1.39,1.39 0 0 1 0.42,1 1.34,1.34 0 0 1 -0.41,1 1.4,1.4 0 0 1 -1,0.43 z m 0,-1.81 a 0.3,0.3 0 0 0 -0.2,0.08 0.31,0.31 0 0 0 -0.07,0.21 0.28,0.28 0 0 0 0.08,0.21 0.26,0.26 0 0 0 0.19,0.08 0.28,0.28 0 0 0 0.2,-0.08 0.32,0.32 0 0 0 0.08,-0.21 0.29,0.29 0 0 0 -0.08,-0.21 0.24,0.24 0 0 0 -0.21,-0.08 z"
     id="path26" />
  <path
     class="cls-3"
     d="m 15.14,13.85 h -1.23 v -1.21 l -1.07,-1.57 h 1.25 l 0.44,0.63 0.42,-0.64 h 1.25 l -1.05,1.57 z"
     id="path28" />
  <path
     class="cls-3"
     d="m 8,14.93 v 0.19 a 0.59,0.59 0 0 1 0.47,-0.21 0.55,0.55 0 0 1 0.49,0.26 1.07,1.07 0 0 1 0.26,-0.2 0.73,0.73 0 0 1 0.3,-0.06 0.51,0.51 0 0 1 0.39,0.15 0.57,0.57 0 0 1 0.15,0.42 v 1 H 9.33 v -0.91 a 0.22,0.22 0 0 0 0,-0.13 0.15,0.15 0 0 0 -0.11,0 0.2,0.2 0 0 0 -0.14,0.05 v 1 H 8.3 v -0.91 a 0.28,0.28 0 0 0 0,-0.13 0.14,0.14 0 0 0 -0.11,0 0.3,0.3 0 0 0 -0.14,0.05 v 1 H 7.23 v -1.57 z"
     id="path30" />
  <path
     class="cls-3"
     d="m 12,15.85 v 0.27 a 0.86,0.86 0 0 1 -0.74,0.34 0.93,0.93 0 0 1 -0.65,-0.22 0.82,0.82 0 0 1 0,-1.14 0.82,0.82 0 0 1 0.58,-0.22 0.88,0.88 0 0 1 0.33,0.06 0.64,0.64 0 0 1 0.27,0.18 0.77,0.77 0 0 1 0.17,0.27 1.06,1.06 0 0 1 0,0.38 h -0.8 a 0.43,0.43 0 0 0 0.15,0.18 0.44,0.44 0 0 0 0.23,0.06 0.51,0.51 0 0 0 0.46,-0.16 z m -0.84,-0.34 h 0.36 a 0.3,0.3 0 0 0 0,-0.18 0.16,0.16 0 0 0 -0.14,-0.07 0.15,0.15 0 0 0 -0.12,0.07 0.24,0.24 0 0 0 -0.08,0.18 z"
     id="path32" />
  <path
     class="cls-3"
     d="m 13.15,14.9 v 0.19 a 0.65,0.65 0 0 1 0.47,-0.2 0.53,0.53 0 0 1 0.38,0.11 0.61,0.61 0 0 1 0.15,0.45 v 0.95 h -0.74 v -0.89 c 0,-0.13 0,-0.19 -0.15,-0.19 a 0.27,0.27 0 0 0 -0.14,0.05 v 1 h -0.79 v -1.46 z"
     id="path34" />
  <path
     class="cls-3"
     d="m 15.78,14.89 v 0.43 h -0.33 v 0.33 c 0,0.11 0,0.16 0.15,0.16 a 0.26,0.26 0 0 0 0.19,-0.11 v 0.61 a 0.79,0.79 0 0 1 -0.45,0.12 0.71,0.71 0 0 1 -0.48,-0.16 0.6,0.6 0 0 1 -0.19,-0.47 v -0.48 h -0.32 l 1.1,-0.87 v 0.44 z"
     id="path36" />
  <path
     d="M 25.85,6.67 V 0.82 h 2.27 v 5.85 z"
     id="path38"
     style="fill:#5f5fd3;fill-opacity:1" />
  <path
     d="M 75.72,6.67 V 0.82 H 78 v 5.85 z"
     id="path40"
     style="fill:#5f5fd3;fill-opacity:1" />
  <path
     d="M 35.18,6.72 H 33.27 L 31.57,4.38 V 6.67 H 29.5 V 0.82 h 1.78 L 33.1,3.28 V 0.82 h 2.08 z"
     id="path42"
     style="fill:#5f5fd3;fill-opacity:1" />
  <path
     d="M 60.82,6.72 H 58.91 L 57.21,4.38 V 6.67 H 55.13 V 0.82 h 1.79 l 1.82,2.46 V 0.82 h 2.08 z"
     id="path44"
     style="fill:#5f5fd3;fill-opacity:1" />
  <path
     d="m 91.71,6.72 h -1.9 L 88.1,4.38 V 6.67 H 86 V 0.82 h 1.78 L 89.6,3.28 V 0.82 h 2.08 z"
     id="path46"
     style="fill:#5f5fd3;fill-opacity:1" />
  <path
     d="M 36.1,3.1 V 0.82 h 5.2 V 3.1 H 39.84 V 6.67 H 37.57 V 3.1 Z"
     id="path48"
     style="fill:#5f5fd3;fill-opacity:1" />
  <path
     d="M 69.47,3.1 V 0.82 h 5.2 V 3.1 H 73.21 V 6.67 H 70.93 V 3.1 Z"
     id="path50"
     style="fill:#5f5fd3;fill-opacity:1" />
  <path
     d="M 109.11,3.1 V 0.82 h 5.2 V 3.1 h -1.46 v 3.57 h -2.27 V 3.1 Z"
     id="path52"
     style="fill:#5f5fd3;fill-opacity:1" />
  <path
     d="M 146,3.1 V 0.82 h 5.2 V 3.1 h -1.47 v 3.57 h -2.27 V 3.1 Z"
     id="path54"
     style="fill:#5f5fd3;fill-opacity:1" />
  <path
     d="m 47,5.37 v 1.3 H 42.18 V 0.82 H 47 v 1.32 h -2.6 v 1 h 1.9 v 1.18 h -1.9 v 1 z"
     id="path56"
     style="fill:#5f5fd3;fill-opacity:1" />
  <path
     d="m 48,0.82 h 3.83 a 2.26,2.26 0 0 1 1.56,0.51 1.61,1.61 0 0 1 0.56,1.24 1.67,1.67 0 0 1 -0.79,1.31 5,5 0 0 1 1.24,2.79 H 51.87 A 4.82,4.82 0 0 0 51.54,5 C 51.37,4.66 50.93,4.48 50.25,4.48 V 6.67 H 48 Z M 50.25,2 v 1.16 h 0.39 c 0.69,0 0.86,-0.18 0.86,-0.56 A 0.6,0.6 0 0 0 51.36,2.21 1,1 0 0 0 50.73,2 Z"
     id="path58"
     style="fill:#5f5fd3;fill-opacity:1" />
  <path
     d="m 63.91,6.67 h -2.27 l 2,-5.85 h 3.69 l 2,5.85 h -2.21 l -0.33,-1 H 64.25 Z M 64.72,4.3 h 1.59 L 65.5,2 Z"
     id="path60"
     style="fill:#5f5fd3;fill-opacity:1" />
  <path
     d="m 94.8,6.67 h -2.27 l 2,-5.85 h 3.69 l 2,5.85 H 98 l -0.34,-1 H 95.14 Z M 95.61,4.3 h 1.6 L 96.4,2 Z"
     id="path62"
     style="fill:#5f5fd3;fill-opacity:1" />
  <path
     d="M 82.16,6.76 A 2.83,2.83 0 0 1 80,5.88 2.88,2.88 0 0 1 79.13,3.75 2.94,2.94 0 0 1 80,1.61 a 3,3 0 0 1 4.26,0 2.94,2.94 0 0 1 0.87,2.14 2.88,2.88 0 0 1 -0.87,2.13 2.83,2.83 0 0 1 -2.1,0.88 z m 0,-4.18 a 0.88,0.88 0 0 0 -0.68,0.3 1,1 0 0 0 -0.26,0.7 1,1 0 0 0 0.26,0.72 0.94,0.94 0 0 0 1.36,0 1,1 0 0 0 0.27,-0.72 1,1 0 0 0 -0.27,-0.7 0.88,0.88 0 0 0 -0.68,-0.3 z"
     id="path64"
     style="fill:#5f5fd3;fill-opacity:1" />
  <path
     d="M 118,6.76 A 2.86,2.86 0 0 1 115.87,5.88 2.87,2.87 0 0 1 115,3.75 2.93,2.93 0 0 1 115.86,1.61 2.9,2.9 0 0 1 118,0.73 2.87,2.87 0 0 1 120.13,1.61 2.94,2.94 0 0 1 121,3.75 2.88,2.88 0 0 1 120.13,5.88 2.83,2.83 0 0 1 118,6.76 Z m 0,-4.18 a 0.85,0.85 0 0 0 -0.67,0.3 1,1 0 0 0 -0.27,0.7 1,1 0 0 0 0.27,0.72 0.84,0.84 0 0 0 0.67,0.29 0.87,0.87 0 0 0 0.68,-0.29 1,1 0 0 0 0.27,-0.72 1,1 0 0 0 -0.27,-0.7 0.88,0.88 0 0 0 -0.68,-0.3 z"
     id="path66"
     style="fill:#5f5fd3;fill-opacity:1" />
  <path
     d="m 138.83,6.76 a 2.82,2.82 0 0 1 -2.12,-0.88 2.88,2.88 0 0 1 -0.87,-2.13 2.94,2.94 0 0 1 0.87,-2.14 3,3 0 0 1 4.25,0 2.91,2.91 0 0 1 0.88,2.14 2.85,2.85 0 0 1 -0.84,2.13 2.82,2.82 0 0 1 -2.17,0.88 z m 0,-4.18 a 0.86,0.86 0 0 0 -0.67,0.3 1,1 0 0 0 -0.27,0.7 1,1 0 0 0 0.27,0.72 0.93,0.93 0 0 0 1.35,0 1,1 0 0 0 0.28,-0.72 0.94,0.94 0 0 0 -0.28,-0.7 0.85,0.85 0 0 0 -0.68,-0.3 z"
     id="path68"
     style="fill:#5f5fd3;fill-opacity:1" />
  <path
     d="m 154.9,6.76 a 2.83,2.83 0 0 1 -2.13,-0.88 2.88,2.88 0 0 1 -0.87,-2.13 2.94,2.94 0 0 1 0.87,-2.14 3,3 0 0 1 4.26,0 2.94,2.94 0 0 1 0.87,2.14 2.88,2.88 0 0 1 -0.9,2.13 2.85,2.85 0 0 1 -2.1,0.88 z m 0,-4.18 a 0.88,0.88 0 0 0 -0.68,0.3 1,1 0 0 0 -0.27,0.7 1,1 0 0 0 0.27,0.72 0.94,0.94 0 0 0 1.36,0 1,1 0 0 0 0.27,-0.72 1,1 0 0 0 -0.27,-0.7 0.88,0.88 0 0 0 -0.68,-0.3 z"
     id="path70"
     style="fill:#5f5fd3;fill-opacity:1" />
  <path
     d="m 184.56,6.76 a 2.82,2.82 0 0 1 -2.12,-0.88 2.85,2.85 0 0 1 -0.88,-2.13 2.91,2.91 0 0 1 0.88,-2.14 3,3 0 0 1 4.25,0 2.94,2.94 0 0 1 0.88,2.14 2.89,2.89 0 0 1 -0.88,2.13 2.83,2.83 0 0 1 -2.13,0.88 z m 0,-4.18 a 0.86,0.86 0 0 0 -0.67,0.3 1,1 0 0 0 -0.27,0.7 1,1 0 0 0 0.27,0.72 0.93,0.93 0 0 0 1.35,0 1,1 0 0 0 0.27,-0.72 1,1 0 0 0 -0.27,-0.7 0.87,0.87 0 0 0 -0.68,-0.3 z"
     id="path72"
     style="fill:#5f5fd3;fill-opacity:1" />
  <path
     d="M 101,6.67 V 0.82 h 2.27 V 5.2 h 2.59 v 1.47 z"
     id="path74"
     style="fill:#5f5fd3;fill-opacity:1" />
  <path
     d="m 124.17,0.82 v 2 A 1.79,1.79 0 0 0 125.66,2.27 2.42,2.42 0 0 0 126,0.82 h 2.48 a 4.6,4.6 0 0 1 -0.28,1.76 3.29,3.29 0 0 1 -1.09,1.17 3.86,3.86 0 0 1 1.53,2.92 H 126 c 0,-1.49 -0.69,-2.1 -1.85,-2.12 v 2.12 h -2.26 V 0.82 Z"
     id="path76"
     style="fill:#5f5fd3;fill-opacity:1" />
  <path
     d="m 133.69,6.67 h -2.27 V 4.12 l -2.33,-3.3 h 2.31 l 1.16,1.9 1.15,-1.9 H 136 l -2.33,3.3 z"
     id="path78"
     style="fill:#5f5fd3;fill-opacity:1" />
  <path
     d="m 162.18,6.67 h -2.27 V 4.12 l -2.32,-3.3 h 2.3 l 1.16,1.9 1.15,-1.9 h 2.31 l -2.33,3.3 z"
     id="path80"
     style="fill:#5f5fd3;fill-opacity:1" />
  <path
     d="m 173.23,1.12 -0.54,1.55 A 3,3 0 0 0 171.18,2 c -0.17,0 -0.44,0 -0.56,0.24 -0.12,0.24 -0.1,0.52 1,0.83 a 4,4 0 0 1 1,0.47 1.6,1.6 0 0 1 0.54,0.56 1.63,1.63 0 0 1 0.18,0.78 1.65,1.65 0 0 1 -0.71,1.44 3.79,3.79 0 0 1 -2.1,0.48 7.7,7.7 0 0 1 -2.73,-0.44 l 0.6,-1.67 c 0.2,0.15 0.64,0.39 1.05,0.65 0.41,0.26 0.86,0.18 1,0 0.14,-0.18 0.23,-0.54 -0.8,-0.9 a 6.6,6.6 0 0 1 -0.78,-0.36 1.65,1.65 0 0 1 -0.75,-1.35 1.65,1.65 0 0 1 0.7,-1.46 3.4,3.4 0 0 1 2,-0.55 7.2,7.2 0 0 1 2.41,0.4 z"
     id="path82"
     style="fill:#5f5fd3;fill-opacity:1" />
  <path
     d="m 176.64,6.67 h -2.27 V 0.82 h 2.27 V 3 h 1.7 V 0.82 h 2.28 v 5.85 h -2.28 V 4.51 h -1.7 z"
     id="path84"
     style="fill:#5f5fd3;fill-opacity:1" />
  <path
     d="M 191.76,6.67 H 190 l -2,-5.85 h 2.2 l 1,2.7 1,-2.7 h 1.16 l 1.07,2.7 1,-2.7 h 2.21 l -2,5.85 h -1.76 L 192.78,4 Z"
     id="path86"
     style="fill:#5f5fd3;fill-opacity:1" />
  <path
     d="m 80.84,14.09 v -2.58 h -7.36 v -0.89 h -3.85 v 0.89 h -1 v 2.58 h 1 v 0.75 h -1 v 2.59 h 1 V 18 c 0,3.3 1.47,5 4.62,5 H 76 c 2.57,0 4.79,-1.2 4.79,-5.32 v -2.86 h -3.74 v 2.85 a 1.47,1.47 0 0 1 -1.68,1.68 h -0.28 c -0.94,0 -1.61,-0.25 -1.61,-1.39 v -0.53 h 2.82 v -2.59 h -2.82 v -0.75 z"
     id="path88"
     style="fill:#5f5fd3;fill-opacity:1" />
  <path
     d="m 90.46,15.22 h -1.78 v -0.74 h 5.65 v -3.1 h -5.65 v -0.76 h -3.84 v 0.76 h -2.12 v 3.1 h 2.12 v 3.93 h 5 c 0.52,0 0.68,0.21 0.68,0.51 0,0.3 -0.2,0.43 -0.73,0.43 H 83.53 V 23 h 6.31 c 3.81,0 5,-1.3 5,-4 0.02,-3.38 -1.84,-3.78 -4.38,-3.78 z"
     id="path90"
     style="fill:#5f5fd3;fill-opacity:1" />
  <path
     d="m 62.05,15.22 h -1.16 v -0.75 h 1.24 v -3.09 h -1.24 v -0.76 h -3.27 v 0.76 h -3.36 v 3.09 h 3.39 v 0.75 h -0.36 c -1.72,0 -3.37,1.18 -3.37,3.9 0,2.55 1.35,3.87 3.67,3.87 3,0 3.3,-1.77 3.3,-3.74 v -0.84 h 1.23 c 0.47,0 0.74,0.07 0.74,0.48 0,0.41 -0.15,0.46 -0.72,0.46 H 61.61 V 23 h 0.48 c 2.3,0 4.24,-0.65 4.24,-4 0,-2.65 -1.99,-3.78 -4.28,-3.78 z m -4.4,4.07 c 0,0.4 -0.13,0.6 -0.34,0.6 h -0.12 c -0.35,0 -0.43,-0.38 -0.43,-0.77 0,-0.39 0.25,-0.71 0.63,-0.71 h 0.26 z m 5.23,-9.24 v 3.11 c 0.68,0 0.77,0.42 0.77,0.76 v 0.89 h 3.08 v -1.23 c 0,-2.47 -1.04,-3.65 -3.85,-3.53 z"
     id="path92"
     style="fill:#5f5fd3;fill-opacity:1" />
  <path
     d="m 115.6,15.22 -0.54,2.06 a 3.28,3.28 0 0 1 -3.3,2.07 h -4.23 V 23 H 112 c 3.27,0 5.86,-1.54 6.64,-4.87 0.35,-1.5 0.47,-3.14 1.39,-3.14 V 11 c -3.17,0 -3.81,1.56 -4.43,4.22 z m -2.17,-4.6 h -5.9 v 3.19 h 5.9 z m 0,4 h -5.9 v 3.19 h 5.9 z"
     id="path94"
     style="fill:#5f5fd3;fill-opacity:1" />
  <rect
     x="131.89"
     y="15.05"
     width="11.44"
     height="3.77"
     id="rect96"
     style="fill:#5f5fd3;fill-opacity:1" />
  <path
     d="m 127,14 h -5.57 v 2.68 h 5.2 c 0.5,0 0.42,0.43 0.42,0.76 h -5.11 v 2.12 H 127 v 0.75 h -5.62 V 23 h 8.83 V 17 A 2.92,2.92 0 0 0 127,14 Z"
     id="path98"
     style="fill:#5f5fd3;fill-opacity:1" />
  <path
     d="m 104.4,15.71 a 0.9,0.9 0 0 1 0.79,-0.3 v -2.24 c -2.19,0 -3.11,0.85 -3.5,1.85 h -1.53 l -0.07,-1 h -2.74 l 0.07,1 h -1 v 2.87 h 1.22 l 0.33,5.1 h 2.73 l -0.32,-5.1 h 1.22 c 0.71,0 1,0.21 1,0.69 0,0.48 -0.32,0.78 -1.23,0.78 v 2.87 c 3.24,0 4.25,-1.26 4.25,-3.34 v -0.65 a 3,3 0 0 0 -1.22,-2.53 z"
     id="path100"
     style="fill:#5f5fd3;fill-opacity:1" />
  <path
     d="m 47.72,10.62 v -0.57 h -3.25 v 0.57 h -4.6 v 2.14 H 52.3 v -2.14 z m -7.61,8.28 h 4.14 V 23 h 3.67 v -4.1 h 4.16 v -5.39 h -12 z m 3,-3.1 h 6 v 0.82 h -6 z m -3.24,4.94 V 23 c 2.94,0.12 3.92,-1.24 3.85,-3.37 h -2.31 c -0.04,0.82 -0.75,1.18 -1.54,1.11 z"
     id="path102"
     style="fill:#5f5fd3;fill-opacity:1" />
  <path
     d="m 38.07,12.75 v -2.13 h -4.59 v -0.57 h -3.24 v 0.57 h -4.57 v 2.13 h 4.57 v 0.76 h -4.36 v 6.1 h 2.95 a 4.19,4.19 0 0 1 -3.2,1.11 V 23 c 2.05,0 3.59,-0.48 4.4,-1.37 V 23 h 3.63 V 21.61 C 34.47,22.5 36,23 38.05,23 v -2.28 c -1.28,0 -2.62,-0.28 -3.19,-1.11 h 3 v -6.1 h -4.38 v -0.76 z m -7.83,5.43 h -1.37 v -0.75 h 1.37 z m 0,-2.48 h -1.37 v -0.76 h 1.37 z m 4.61,2.48 h -1.37 v -0.75 h 1.37 z m 0,-3.24 v 0.76 h -1.37 v -0.76 z"
     id="path104"
     style="fill:#5f5fd3;fill-opacity:1" />
  <path
     d="m 50.77,19.62 c 0,0.83 0.75,1.19 1.53,1.12 V 23 c -2.94,0.12 -3.91,-1.24 -3.85,-3.37 z"
     id="path106"
     style="fill:#5f5fd3;fill-opacity:1" />
  <path
     d="m 144.6,10.19 v 3.61 h 7.33 c 0.48,0 0.8,0.12 0.8,0.58 0,0.46 -0.28,0.57 -0.8,0.57 h -6.66 v 8 h 11 v -3.73 h -6.86 v -1 h 2.23 c 4.63,0.1 5.44,-1.83 5.44,-3.93 0,-3.11 -1.72,-4.13 -5.05,-4.13 z"
     id="path108"
     style="fill:#5f5fd3;fill-opacity:1" />
  <path
     d="m 171.93,10.19 v 3.61 h 7.33 c 0.47,0 0.8,0.12 0.8,0.58 0,0.46 -0.28,0.57 -0.8,0.57 h -6.67 v 8 h 11 v -3.73 h -6.86 v -1 h 2.23 c 4.63,0.1 5.44,-1.83 5.44,-3.93 0,-3.11 -1.73,-4.13 -5,-4.13 z"
     id="path110"
     style="fill:#5f5fd3;fill-opacity:1" />
  <path
     d="m 163.09,10.19 c -2.37,0 -4.94,2 -4.94,4.36 v 4.09 c 0,2.4 2.57,4.35 4.94,4.35 h 2.64 c 2.39,0 4.94,-1.95 4.94,-4.35 v -4.09 c 0,-2.4 -2.55,-4.36 -4.94,-4.36 z m -0.75,7.93 v -3.06 c 0,-0.53 0.49,-1.26 1.08,-1.26 h 2 c 0.58,0 1.08,0.73 1.08,1.26 v 3.06 a 1.31,1.31 0 0 1 -1.08,1.28 h -2 a 1.26,1.26 0 0 1 -1.08,-1.28 z"
     id="path112"
     style="fill:#5f5fd3;fill-opacity:1" />
  <path
     d="m 185.59,10.19 v 3.61 h 7.33 c 0.48,0 0.81,0.12 0.81,0.58 0,0.46 -0.28,0.57 -0.81,0.57 h -6.66 v 8 h 11 v -3.73 h -6.86 v -1 h 2.23 c 4.63,0.1 5.45,-1.83 5.45,-3.93 0,-3.11 -1.73,-4.13 -5.05,-4.13 z"
     id="path114"
     style="fill:#5f5fd3;fill-opacity:1" />
</svg>
