<?xml version="1.0" encoding="UTF-8" standalone="no"?>
<svg
   width="587.73999"
   height="88.849998"
   version="1.1"
   id="svg369"
   sodipodi:docname="2023.svg"
   inkscape:version="1.2.1 (9c6d41e410, 2022-07-14)"
   xmlns:inkscape="http://www.inkscape.org/namespaces/inkscape"
   xmlns:sodipodi="http://sodipodi.sourceforge.net/DTD/sodipodi-0.dtd"
   xmlns:xlink="http://www.w3.org/1999/xlink"
   xmlns="http://www.w3.org/2000/svg"
   xmlns:svg="http://www.w3.org/2000/svg">
  <sodipodi:namedview
     id="namedview371"
     pagecolor="#ffffff"
     bordercolor="#666666"
     borderopacity="1.0"
     inkscape:showpageshadow="2"
     inkscape:pageopacity="0"
     inkscape:pagecheckerboard="0"
     inkscape:deskcolor="#d1d1d1"
     showgrid="false"
     inkscape:zoom="1.7366593"
     inkscape:cx="274.37736"
     inkscape:cy="86.948544"
     inkscape:window-width="1920"
     inkscape:window-height="1009"
     inkscape:window-x="-8"
     inkscape:window-y="-8"
     inkscape:window-maximized="1"
     inkscape:current-layer="svg369" />
  <defs
     id="defs139">
    <clipPath
       id="clip-path">
      <path
         class="cls-1"
         d="m 607.73,61.15 c 0,9.36 15,16.95 33.57,16.95 18.57,0 33.58,-7.59 33.58,-16.95 0,-9.36 -15,-16.95 -33.58,-16.95 -18.58,0 -33.57,7.59 -33.57,16.95"
         id="path2" />
    </clipPath>
    <clipPath
       id="clip-path-2">
      <path
         class="cls-1"
         d="m 631.12,61.3 -0.93,0.88 1.27,0.2 0.55,1.16 0.58,-1.14 1.27,-0.17 -0.9,-0.91 0.23,-1.26 -1.14,0.58 -1.13,-0.61 z"
         id="path5" />
    </clipPath>
    <clipPath
       id="clip-path-3">
      <path
         class="cls-1"
         d="m 653.97,69.29 -0.82,-0.2 0.34,0.77 -0.44,0.72 0.84,-0.09 0.55,0.64 0.17,-0.82 0.78,-0.33 -0.73,-0.42 -0.07,-0.84 z"
         id="path8" />
    </clipPath>
    <clipPath
       id="clip-path-4">
      <path
         class="cls-1"
         d="m 621.79,62.09 -0.68,-0.26 0.21,0.69 -0.46,0.57 0.73,0.02 0.4,0.61 0.24,-0.69 0.7,-0.19 -0.58,-0.44 0.04,-0.73 z"
         id="path11" />
    </clipPath>
    <clipPath
       id="clip-path-5">
      <path
         class="cls-1"
         d="m 625.32,61.58 -0.92,0.55 0.99,0.39 0.24,1.05 0.68,-0.82 1.07,0.1 -0.57,-0.91 0.43,-0.98 -1.04,0.26 -0.81,-0.71 z"
         id="path14" />
    </clipPath>
    <clipPath
       id="clip-path-6">
      <path
         class="cls-1"
         d="m 657.58,62.84 -0.95,0.56 1.03,0.41 0.24,1.08 0.71,-0.85 1.11,0.1 -0.59,-0.93 0.43,-1.02 -1.07,0.27 -0.83,-0.73 z"
         id="path17" />
    </clipPath>
    <clipPath
       id="clip-path-7">
      <path
         class="cls-1"
         d="m 657.62,68.85 -0.56,-0.08 0.27,0.5 -0.25,0.51 0.56,-0.11 0.41,0.4 0.07,-0.57 0.51,-0.26 -0.52,-0.24 -0.1,-0.57 z"
         id="path20" />
    </clipPath>
    <clipPath
       id="clip-path-8">
      <path
         class="cls-1"
         d="m 649.63,54.52 -0.96,0.31 0.84,0.57 v 1.01 l 0.8,-0.61 0.96,0.31 -0.34,-0.95 0.6,-0.82 -1.01,0.03 -0.6,-0.82 z"
         id="path23" />
    </clipPath>
    <clipPath
       id="clip-path-9">
      <path
         class="cls-1"
         d="m 659.83,55.91 -0.87,-0.23 0.35,0.82 -0.48,0.76 0.89,-0.08 0.57,0.7 0.2,-0.88 0.84,-0.32 -0.77,-0.47 -0.05,-0.89 z"
         id="path26" />
    </clipPath>
    <clipPath
       id="clip-path-10">
      <path
         class="cls-1"
         d="m 654.59,56.82 -1.16,0.86 1.39,0.39 0.47,1.37 0.8,-1.2 1.44,-0.02 -0.89,-1.13 0.43,-1.38 -1.36,0.5 -1.17,-0.83 z"
         id="path29" />
    </clipPath>
    <clipPath
       id="clip-path-11">
      <path
         class="cls-1"
         d="m 620.96,56.8 -1.1,0.93 1.4,0.32 0.54,1.33 0.73,-1.23 1.44,-0.1 -0.95,-1.08 0.36,-1.4 -1.33,0.57 -1.22,-0.77 z"
         id="path32" />
    </clipPath>
    <clipPath
       id="clip-path-12">
      <path
         class="cls-1"
         d="m 625.4,54.11 -0.93,0.3 0.8,0.56 v 0.98 l 0.78,-0.6 0.93,0.3 -0.32,-0.92 0.57,-0.79 -0.98,0.02 -0.57,-0.79 z"
         id="path35" />
    </clipPath>
    <clipPath
       id="clip-path-13">
      <path
         class="cls-1"
         d="m 631.93,56.16 -0.56,0.54 0.77,0.11 0.35,0.71 0.34,-0.7 0.78,-0.11 -0.56,-0.55 0.13,-0.77 -0.69,0.36 -0.69,-0.37 z"
         id="path38" />
    </clipPath>
    <clipPath
       id="clip-path-14">
      <path
         class="cls-1"
         d="m 635.69,53.75 -1.43,-0.19 0.72,1.25 -0.62,1.3 1.41,-0.3 1.05,0.99 0.15,-1.43 1.27,-0.69 -1.32,-0.59 -0.27,-1.42 z"
         id="path41" />
    </clipPath>
    <clipPath
       id="clip-path-15">
      <path
         class="cls-1"
         d="m 681.33,73.6 a 3.69,3.69 0 0 0 0.51,-1 3.11,3.11 0 0 1 -0.62,1.23 3.53,3.53 0 0 1 -1,0.82 4.21,4.21 0 0 0 1.11,-1 M 677,66.06 v 7.72 a 1.37,1.37 0 0 0 1.37,1.37 h 0.35 a 4.48,4.48 0 0 1 -0.59,0.07 h -1.16 z m -1.37,-2.74 a 1.38,1.38 0 0 0 -1.12,0.58 1.36,1.36 0 0 0 -0.29,0 h -2.55 a 1.37,1.37 0 0 0 -1.37,1.37 V 69 h -0.22 a 2.34,2.34 0 0 0 -0.49,-0.09 1,1 0 0 0 -0.88,1.11 v 6.82 a 1.39,1.39 0 0 0 0.41,1 1.36,1.36 0 0 0 1,0.39 5.33,5.33 0 0 0 2.79,-0.86 5.77,5.77 0 0 0 1.37,-1.17 v 0.54 a 1.37,1.37 0 0 0 1.37,1.26 h 2.66 a 7,7 0 0 0 1.69,-0.29 6.07,6.07 0 0 0 1.56,-0.65 6.34,6.34 0 0 0 1.79,-1.46 5.77,5.77 0 0 0 1.3,-3.25 c 0.07,-0.93 0.11,-2 0.11,-3.16 v -1.64 a 1.37,1.37 0 0 0 -1.37,-1.37 h -2.62 a 1.34,1.34 0 0 0 -1,0.43 v -1.92 a 1.38,1.38 0 0 0 -1.37,-1.37 z"
         id="path44" />
    </clipPath>
    <clipPath
       id="clip-path-16">
      <path
         class="cls-1"
         d="m 613.45,74.72 a 5.1,5.1 0 0 0 2.1,-2.67 10.93,10.93 0 0 0 0.45,-3.55 v -0.65 a 1.37,1.37 0 0 0 -0.64,-1.15 h 0.71 v 1.84 a 9.77,9.77 0 0 1 -0.69,4.24 5,5 0 0 1 -1.48,1.75 5.56,5.56 0 0 1 -1.62,0.78 6.31,6.31 0 0 0 1.13,-0.59 M 605.16,64 a 1.38,1.38 0 0 0 -1.37,1.37 v 2.52 a 1.37,1.37 0 0 0 1.37,1.37 h 8.38 a 7.46,7.46 0 0 1 -0.32,2 2.4,2.4 0 0 1 -1,1.26 5.09,5.09 0 0 1 -1.51,0.62 9.11,9.11 0 0 1 -2.32,0.28 H 607 a 1.37,1.37 0 0 0 -1.37,1.37 v 2.59 a 1.37,1.37 0 0 0 1.37,1.28 h 1.74 a 15.36,15.36 0 0 0 3.78,-0.48 9.11,9.11 0 0 0 3.4,-1.5 7.92,7.92 0 0 0 2.23,-2.68 12.44,12.44 0 0 0 1,-5.45 V 65.33 A 1.38,1.38 0 0 0 617.74,64 Z"
         id="path47" />
    </clipPath>
    <clipPath
       id="clip-path-17">
      <path
         class="cls-1"
         d="m 633,69.35 a 1.35,1.35 0 0 0 -0.28,-1.13 1.47,1.47 0 0 0 -0.46,-0.37 h 1.23 a 13.22,13.22 0 0 1 -0.36,1.91 10,10 0 0 1 -1.09,2.61 1.35,1.35 0 0 0 -0.16,1 1.3,1.3 0 0 0 0.18,0.42 1.37,1.37 0 0 0 -1.28,0.19 9.53,9.53 0 0 0 2.22,-4.63 m -8.11,-4.24 a 1.37,1.37 0 0 0 -1.36,1.37 v 2.6 a 1.36,1.36 0 0 0 1.36,1.37 h 4.94 a 5.43,5.43 0 0 1 -1.51,2.14 8,8 0 0 1 -4.32,1.65 c -0.69,0.08 -2.5,0.67 -2.5,1.36 v 2.73 c 0,0.39 1.45,0.77 1.75,1 a 1.37,1.37 0 0 0 1.08,0.33 17.88,17.88 0 0 0 4.61,-1.19 12.64,12.64 0 0 0 2.84,-1.67 l 4.21,2.7 a 1.31,1.31 0 0 0 0.74,0.22 1.39,1.39 0 0 0 1.37,-1.37 v -3.23 a 1.36,1.36 0 0 0 -0.68,-1.18 l -2.32,-1.37 a 13.29,13.29 0 0 0 0.75,-2.12 18.94,18.94 0 0 0 0.57,-3.9 1.38,1.38 0 0 0 -1.42,-1.44 z"
         id="path50" />
    </clipPath>
    <clipPath
       id="clip-path-18">
      <path
         class="cls-1"
         d="m 667.51,78.54 a 3.64,3.64 0 0 1 -0.91,-1.7 7.8,7.8 0 0 1 -0.2,-1.52 v -4.57 h 0.12 v 4 a 10.71,10.71 0 0 0 0.4,2.35 3.18,3.18 0 0 0 1.65,2 v 0.18 a 3.57,3.57 0 0 1 -1,-0.71 m -8.66,-0.43 a 5.25,5.25 0 0 0 0.49,-0.33 3.9,3.9 0 0 0 1.26,-1.72 5.44,5.44 0 0 0 0.32,-1.71 v -4.9 h 0.13 v 2.84 c 0,1.07 0,2 -0.11,2.81 a 4,4 0 0 1 -0.44,1.62 3.41,3.41 0 0 1 -1.2,1.29 3.33,3.33 0 0 1 -0.5,0.25 z m 9.18,-14 a 1.58,1.58 0 0 0 -0.38,0.05 1.67,1.67 0 0 0 -0.39,-0.05 h -2.21 a 1.37,1.37 0 0 0 -1.37,1.37 v 2 a 1.38,1.38 0 0 0 -1.21,-0.73 h -2.86 a 1.37,1.37 0 0 0 -1.37,1.37 v 6.21 c 0,0.64 -0.39,1 -1.09,1.17 -0.7,0.17 -1,0.66 -1,1.73 V 80 a 1.35,1.35 0 0 0 1.36,1.37 0.86,0.86 0 0 0 0.23,0 8.48,8.48 0 0 0 3.07,-1.07 6.24,6.24 0 0 0 2.07,-2.3 6.76,6.76 0 0 0 0.78,-2.72 10.33,10.33 0 0 0 0.21,1.26 6.38,6.38 0 0 0 1.61,2.95 6.77,6.77 0 0 0 4.21,1.91 1.36,1.36 0 0 0 1.53,-1.4 v -2.83 a 1.37,1.37 0 0 0 -1,-1.33 c -0.64,-0.16 -0.7,-0.39 -0.73,-0.47 a 8.53,8.53 0 0 1 -0.29,-1.7 v -4.61 h 1 a 1.37,1.37 0 0 0 1.37,-1.37 v -2.25 a 1.37,1.37 0 0 0 -1.37,-1.37 z"
         id="path53" />
    </clipPath>
    <clipPath
       id="clip-path-19">
      <path
         class="cls-1"
         d="M 616.38,71.73 A 1.37,1.37 0 0 0 615,73.1 v 2 a 1.36,1.36 0 0 0 1.37,1.36 h 1.52 v 1 h -2.09 a 1.37,1.37 0 0 0 -1.37,1.37 v 2 a 1.36,1.36 0 0 0 1.37,1.36 h 9 a 1.36,1.36 0 0 0 1.37,-1.36 v -2 a 1.37,1.37 0 0 0 -1.37,-1.37 h -2.06 v -1 h 1.47 a 1.36,1.36 0 0 0 1.37,-1.36 v -2 a 1.37,1.37 0 0 0 -1.37,-1.37 z"
         id="path56" />
    </clipPath>
    <clipPath
       id="clip-path-20">
      <path
         class="cls-1"
         d="m 642,80 a 3.17,3.17 0 0 0 1.36,-1.4 5.83,5.83 0 0 0 0.48,-2.6 1.37,1.37 0 0 0 -0.64,-1.15 h 1.49 a 1.37,1.37 0 0 0 -0.63,1.1 c 0,0.71 -0.08,1.44 -0.15,2.17 a 2,2 0 0 1 -0.67,1.22 l -0.06,0.06 a 2,2 0 0 1 -0.62,0.42 4.14,4.14 0 0 1 -0.75,0.28 L 642,80 m -3.84,-11.66 a 1.37,1.37 0 0 0 -1.37,1.37 v 2.46 a 1.37,1.37 0 0 0 -1,1.31 V 76 a 1.36,1.36 0 0 0 1.36,1.37 l 0.4,0.14 a 6.83,6.83 0 0 0 -0.26,1.66 v 2.51 a 1.36,1.36 0 0 0 1.42,1.32 h 2.1 c 0.28,0 0.55,0 0.8,-0.06 a 8.35,8.35 0 0 0 0.88,-0.14 6.64,6.64 0 0 0 1.59,-0.54 4.85,4.85 0 0 0 1.43,-1 4.64,4.64 0 0 0 1.49,-2.86 c 0,-0.34 0.07,-0.69 0.09,-1 h 3.4 a 1.37,1.37 0 0 0 1.34,-1.4 v -2.52 a 1.36,1.36 0 0 0 -0.93,-1.3 v -2.47 a 1.37,1.37 0 0 0 -1.37,-1.37 z"
         id="path59" />
    </clipPath>
    <clipPath
       id="clip-path-21">
      <path
         class="cls-1"
         d="m 658,72.2 a 5.25,5.25 0 0 0 -2.85,0.67 c -0.43,0.27 -0.94,0.57 -1.51,0.87 l -0.55,0.33 -0.47,0.29 c -0.55,0.34 -1,0.62 -1.45,0.83 a 1.58,1.58 0 0 1 -0.74,0.2 h -0.76 a 1.45,1.45 0 0 0 -1.44,1.44 v 2 a 1.44,1.44 0 0 0 1.44,1.44 h 0.8 a 6.51,6.51 0 0 0 1.61,-0.2 v 2 a 1.44,1.44 0 0 0 1.44,1.44 h 2.15 A 1.44,1.44 0 0 0 657,82.12 v -4.73 a 3.37,3.37 0 0 1 0.31,-0.17 1,1 0 0 1 0.25,-0.06 c 0.09,0 0.19,-0.32 0.46,-0.33 l 0.41,-0.32 c 0.79,0 1.07,-0.16 1.11,-1.25 v -2 c 0.32,-0.37 -0.32,-1 -1.11,-1 z"
         id="path62" />
    </clipPath>
    <clipPath
       id="clip-path-22">
      <path
         class="cls-1"
         d="m 635.16,71.38 h 5.44 l 2.24,-2.24 -0.25,-3.77 -3.12,-1.25 -4.67,-2.05 c -0.6,0 -0.24,9.32 0.36,9.31"
         id="path65" />
    </clipPath>
    <clipPath
       id="clip-path-23">
      <path
         class="cls-1"
         d="m 663.19,61.15 -0.63,0.25 0.58,0.34 0.04,0.68 0.51,-0.45 0.66,0.17 -0.27,-0.62 0.36,-0.57 -0.67,0.06 -0.43,-0.52 z"
         id="path68" />
    </clipPath>
    <linearGradient
       id="名称未設定グラデーション_44"
       data-name="名称未設定グラデーション 44"
       x1="326.51999"
       y1="2550.97"
       x2="326.72"
       y2="2550.97"
       gradientTransform="matrix(18.97,0,0,-18.97,-5564.92,48463.18)"
       gradientUnits="userSpaceOnUse">
      <stop
         offset="0"
         stop-color="#fff"
         id="stop71" />
      <stop
         offset=".19"
         stop-color="#fff"
         id="stop73" />
      <stop
         offset="1"
         stop-color="#fff"
         id="stop75" />
    </linearGradient>
    <linearGradient
       id="名称未設定グラデーション_44-2"
       x1="395.57001"
       y1="2534.27"
       x2="395.76999"
       y2="2534.27"
       gradientTransform="matrix(12.45,0,0,-12.45,-4270.81,31615.34)"
       xlink:href="#%E5%90%8D%E7%A7%B0%E6%9C%AA%E8%A8%AD%E5%AE%9A%E3%82%B0%E3%83%A9%E3%83%87%E3%83%BC%E3%82%B7%E3%83%A7%E3%83%B3_44" />
    <linearGradient
       id="名称未設定グラデーション_44-3"
       x1="356.19"
       y1="2662.76"
       x2="356.39001"
       y2="2662.76"
       gradientTransform="matrix(10.75,0,0,-10.75,-3209.43,28696.09)"
       xlink:href="#%E5%90%8D%E7%A7%B0%E6%9C%AA%E8%A8%AD%E5%AE%9A%E3%82%B0%E3%83%A9%E3%83%87%E3%83%BC%E3%82%B7%E3%83%A7%E3%83%B3_44" />
    <linearGradient
       id="名称未設定グラデーション_44-4"
       x1="356.54001"
       y1="2502.4199"
       x2="356.73001"
       y2="2502.4199"
       gradientTransform="matrix(15.84,0,0,-15.84,-5023.35,39700.75)"
       xlink:href="#%E5%90%8D%E7%A7%B0%E6%9C%AA%E8%A8%AD%E5%AE%9A%E3%82%B0%E3%83%A9%E3%83%87%E3%83%BC%E3%82%B7%E3%83%A7%E3%83%B3_44" />
    <linearGradient
       id="名称未設定グラデーション_44-5"
       x1="352.28"
       y1="2510.72"
       x2="352.47"
       y2="2510.72"
       gradientTransform="matrix(0,-16.38,-16.38,0,41781.34,5834.81)"
       xlink:href="#%E5%90%8D%E7%A7%B0%E6%9C%AA%E8%A8%AD%E5%AE%9A%E3%82%B0%E3%83%A9%E3%83%87%E3%83%BC%E3%82%B7%E3%83%A7%E3%83%B3_44" />
    <linearGradient
       id="名称未設定グラデーション_44-6"
       x1="422.29999"
       y1="2677.6001"
       x2="422.5"
       y2="2677.6001"
       gradientTransform="matrix(8.46,0,0,-8.46,-2915.06,22717.47)"
       xlink:href="#%E5%90%8D%E7%A7%B0%E6%9C%AA%E8%A8%AD%E5%AE%9A%E3%82%B0%E3%83%A9%E3%83%87%E3%83%BC%E3%82%B7%E3%83%A7%E3%83%B3_44" />
    <linearGradient
       id="名称未設定グラデーション_39"
       data-name="名称未設定グラデーション 39"
       x1="364.13"
       y1="2508.4199"
       x2="364.32001"
       y2="2508.4199"
       gradientTransform="matrix(0,-14.82,-14.82,0,37822.26,5452.37)"
       gradientUnits="userSpaceOnUse">
      <stop
         offset="0"
         stop-color="#fccf00"
         id="stop83" />
      <stop
         offset=".19"
         stop-color="#fccf00"
         id="stop85" />
      <stop
         offset=".62"
         stop-color="#f29209"
         id="stop87" />
      <stop
         offset="1"
         stop-color="#ea6011"
         id="stop89" />
    </linearGradient>
    <linearGradient
       id="名称未設定グラデーション_39-2"
       x1="382.26999"
       y1="2511.26"
       x2="382.45999"
       y2="2511.26"
       gradientTransform="matrix(0,-13.23,-13.23,0,33881.37,5114.91)"
       xlink:href="#%E5%90%8D%E7%A7%B0%E6%9C%AA%E8%A8%AD%E5%AE%9A%E3%82%B0%E3%83%A9%E3%83%87%E3%83%BC%E3%82%B7%E3%83%A7%E3%83%B3_39" />
    <linearGradient
       id="名称未設定グラデーション_39-3"
       x1="321.25"
       y1="2510.25"
       x2="321.44"
       y2="2510.25"
       gradientTransform="matrix(0,-21.04,-21.04,0,53459.87,6817.03)"
       xlink:href="#%E5%90%8D%E7%A7%B0%E6%9C%AA%E8%A8%AD%E5%AE%9A%E3%82%B0%E3%83%A9%E3%83%87%E3%83%BC%E3%82%B7%E3%83%A7%E3%83%B3_39" />
    <linearGradient
       id="名称未設定グラデーション_39-4"
       x1="322.42001"
       y1="2503.5"
       x2="322.60999"
       y2="2503.5"
       gradientTransform="matrix(0,-20.8,-20.8,0,52693.27,6765.51)"
       xlink:href="#%E5%90%8D%E7%A7%B0%E6%9C%AA%E8%A8%AD%E5%AE%9A%E3%82%B0%E3%83%A9%E3%83%87%E3%83%BC%E3%82%B7%E3%83%A7%E3%83%B3_39" />
    <linearGradient
       id="名称未設定グラデーション_39-5"
       x1="368.44"
       y1="2501.3"
       x2="368.63"
       y2="2501.3"
       gradientTransform="matrix(0,-14.38,-14.38,0,36604.98,5355.61)"
       xlink:href="#%E5%90%8D%E7%A7%B0%E6%9C%AA%E8%A8%AD%E5%AE%9A%E3%82%B0%E3%83%A9%E3%83%87%E3%83%BC%E3%82%B7%E3%83%A7%E3%83%B3_39" />
    <linearGradient
       id="名称未設定グラデーション_39-6"
       x1="415"
       y1="2500.8701"
       x2="415.19"
       y2="2500.8701"
       gradientTransform="matrix(0,-11.03,-11.03,0,28229.11,4636.93)"
       xlink:href="#%E5%90%8D%E7%A7%B0%E6%9C%AA%E8%A8%AD%E5%AE%9A%E3%82%B0%E3%83%A9%E3%83%87%E3%83%BC%E3%82%B7%E3%83%A7%E3%83%B3_39" />
    <linearGradient
       id="名称未設定グラデーション_39-7"
       x1="319.09"
       y1="2506.5"
       x2="319.29001"
       y2="2506.5"
       gradientTransform="matrix(0,-21.37,-21.37,0,54203.81,6876.27)"
       xlink:href="#%E5%90%8D%E7%A7%B0%E6%9C%AA%E8%A8%AD%E5%AE%9A%E3%82%B0%E3%83%A9%E3%83%87%E3%83%BC%E3%82%B7%E3%83%A7%E3%83%B3_39" />
    <linearGradient
       id="新規グラデーションスウォッチ_2"
       data-name="新規グラデーションスウォッチ 2"
       x1="214.71001"
       y1="2504.9399"
       x2="214.89999"
       y2="2504.9399"
       gradientTransform="matrix(-344.25,0,0,344.25,74597.36,-862264.7)"
       gradientUnits="userSpaceOnUse">
      <stop
         offset="0"
         stop-color="#f5aa00"
         id="stop98" />
      <stop
         offset=".07"
         stop-color="#f6b000"
         id="stop100" />
      <stop
         offset=".16"
         stop-color="#f8c100"
         id="stop102" />
      <stop
         offset=".27"
         stop-color="#fcdd00"
         id="stop104" />
      <stop
         offset=".33"
         stop-color="#fff000"
         id="stop106" />
      <stop
         offset=".38"
         stop-color="#fde000"
         id="stop108" />
      <stop
         offset=".5"
         stop-color="#f8c200"
         id="stop110" />
      <stop
         offset=".61"
         stop-color="#f6b000"
         id="stop112" />
      <stop
         offset=".68"
         stop-color="#f5aa00"
         id="stop114" />
      <stop
         offset=".75"
         stop-color="#f6b000"
         id="stop116" />
      <stop
         offset=".84"
         stop-color="#f8c100"
         id="stop118" />
      <stop
         offset=".94"
         stop-color="#fcdd00"
         id="stop120" />
      <stop
         offset="1"
         stop-color="#fff000"
         id="stop122" />
    </linearGradient>
    <linearGradient
       id="新規グラデーションスウォッチ_2-2"
       x1="214.71001"
       y1="2505.26"
       x2="214.89999"
       y2="2505.26"
       gradientTransform="matrix(-344.25,0,0,344.25,74592.35,-862374.2)"
       xlink:href="#%E6%96%B0%E8%A6%8F%E3%82%B0%E3%83%A9%E3%83%87%E3%83%BC%E3%82%B7%E3%83%A7%E3%83%B3%E3%82%B9%E3%82%A6%E3%82%A9%E3%83%83%E3%83%81_2" />
    <linearGradient
       id="新規グラデーションスウォッチ_2-3"
       x1="214.71001"
       y1="2505.1399"
       x2="214.89999"
       y2="2505.1399"
       gradientTransform="matrix(-344.25,0,0,344.25,74594.3,-862330.08)"
       xlink:href="#%E6%96%B0%E8%A6%8F%E3%82%B0%E3%83%A9%E3%83%87%E3%83%BC%E3%82%B7%E3%83%A7%E3%83%B3%E3%82%B9%E3%82%A6%E3%82%A9%E3%83%83%E3%83%81_2" />
    <linearGradient
       id="新規グラデーションスウォッチ_2-4"
       x1="214.71001"
       y1="2504.96"
       x2="214.89999"
       y2="2504.96"
       gradientTransform="matrix(-344.25,0,0,344.25,74597.09,-862267.06)"
       xlink:href="#%E6%96%B0%E8%A6%8F%E3%82%B0%E3%83%A9%E3%83%87%E3%83%BC%E3%82%B7%E3%83%A7%E3%83%B3%E3%82%B9%E3%82%A6%E3%82%A9%E3%83%83%E3%83%81_2" />
    <linearGradient
       id="新規グラデーションスウォッチ_2-5"
       x1="214.71001"
       y1="2505.1399"
       x2="214.89999"
       y2="2505.1399"
       gradientTransform="matrix(-344.25,0,0,344.25,74595.52,-862325.55)"
       xlink:href="#%E6%96%B0%E8%A6%8F%E3%82%B0%E3%83%A9%E3%83%87%E3%83%BC%E3%82%B7%E3%83%A7%E3%83%B3%E3%82%B9%E3%82%A6%E3%82%A9%E3%83%83%E3%83%81_2" />
    <linearGradient
       id="新規グラデーションスウォッチ_2-6"
       x1="214.71001"
       y1="2505.0601"
       x2="214.89999"
       y2="2505.0601"
       gradientTransform="matrix(-344.25,0,0,344.25,74596.68,-862300.82)"
       xlink:href="#%E6%96%B0%E8%A6%8F%E3%82%B0%E3%83%A9%E3%83%87%E3%83%BC%E3%82%B7%E3%83%A7%E3%83%B3%E3%82%B9%E3%82%A6%E3%82%A9%E3%83%83%E3%83%81_2" />
    <linearGradient
       id="新規グラデーションスウォッチ_2-7"
       x1="214.71001"
       y1="2504.95"
       x2="214.89999"
       y2="2504.95"
       gradientTransform="matrix(-344.25,0,0,344.25,74598.34,-862261.33)"
       xlink:href="#%E6%96%B0%E8%A6%8F%E3%82%B0%E3%83%A9%E3%83%87%E3%83%BC%E3%82%B7%E3%83%A7%E3%83%B3%E3%82%B9%E3%82%A6%E3%82%A9%E3%83%83%E3%83%81_2" />
    <linearGradient
       id="名称未設定グラデーション_44-7"
       x1="19.92"
       y1="2608.9099"
       x2="20.120001"
       y2="2608.9099"
       gradientTransform="matrix(0,9.99,9.99,0,-25390.15,-138.4)"
       xlink:href="#%E5%90%8D%E7%A7%B0%E6%9C%AA%E8%A8%AD%E5%AE%9A%E3%82%B0%E3%83%A9%E3%83%87%E3%83%BC%E3%82%B7%E3%83%A7%E3%83%B3_44" />
    <radialGradient
       id="名称未設定グラデーション_23"
       data-name="名称未設定グラデーション 23"
       cx="217.5"
       cy="2531.53"
       r="0.19"
       gradientTransform="matrix(150.74,0,0,-107.16,-32143.92,271339.92)"
       gradientUnits="userSpaceOnUse">
      <stop
         offset="0"
         stop-color="#fbc600"
         id="stop132" />
      <stop
         offset="1"
         stop-color="#e84908"
         id="stop134" />
    </radialGradient>
    <style
       id="style137">.cls-1,.cls-7,.cls-8,.cls-9{fill:none}.cls-2{fill:#e50012}.cls-3{fill:#fff}.cls-6{fill:#e6222e}.cls-7{stroke:#e6222e;stroke-width:5.48px}.cls-7,.cls-8,.cls-9{stroke-linecap:round;stroke-linejoin:round}.cls-8{stroke:#000;stroke-width:3.29px}.cls-9{stroke:#fff;stroke-width:.79px}.cls-10{fill:#fff000}</style>
  </defs>
  <path
     d="m 662.6,68.12 v 4.22 c 0,1.11 0,2.08 -0.11,2.92 a 5.31,5.31 0 0 1 -0.61,2.18 4.73,4.73 0 0 1 -1.68,1.78 7.24,7.24 0 0 1 -2.58,0.89 v -2.88 a 2.18,2.18 0 0 0 1,-0.47 2.45,2.45 0 0 0 0.8,-1.11 4,4 0 0 0 0.25,-1.28 v -6.25 z m 5.4,0.36 v 5.29 a 9.06,9.06 0 0 0 0.34,2 2.11,2.11 0 0 0 1.71,1.43 v 2.88 a 5.38,5.38 0 0 1 -3.38,-1.52 4.85,4.85 0 0 1 -1.26,-2.31 9.13,9.13 0 0 1 -0.24,-1.8 v -6 z M 17.72,85 A 1.54,1.54 0 0 1 16.85,84.73 L 5.72,76.89 A 1.5,1.5 0 0 1 5.21,75.08 L 13.61,55.21 0.76,48 A 1.51,1.51 0 0 1 0.07,46.24 L 4,33.93 a 1.51,1.51 0 0 1 1.55,-1 l 17.49,1.5 0.37,-1.81 a 1.5,1.5 0 0 1 1.68,-1.18 24.53,24.53 0 0 0 5.57,0 10.33,10.33 0 0 0 5.64,-2.1 33.16,33.16 0 0 1 -11.77,0.08 1.45,1.45 0 0 1 -1,-0.61 1.52,1.52 0 0 1 -0.24,-1.15 L 25.51,16.3 A 1.52,1.52 0 0 1 27,15.06 L 40.5,15 a 1.5,1.5 0 0 1 1.5,1.17 l 3.94,18 16.43,-1.59 a 1.51,1.51 0 0 1 1.57,1 L 68,45.89 a 1.51,1.51 0 0 1 -0.67,1.77 L 54.52,55 63.11,74.8 a 1.51,1.51 0 0 1 -0.5,1.82 L 51.55,84.56 A 1.49,1.49 0 0 1 49.67,84.45 L 34.14,70.24 18.74,84.6 A 1.51,1.51 0 0 1 17.72,85 Z m 0.42,-2.1 z M 7.49,75.4 17.65,82.56 33.11,68.14 a 1.51,1.51 0 0 1 2,0 L 50.73,82.4 60.82,75.15 52.21,55.3 a 1.5,1.5 0 0 1 0.63,-1.9 L 65.66,46 62,34.91 45.51,36.51 A 1.5,1.5 0 0 1 43.9,35.33 l -3.98,-18.09 -12.29,0.06 -2,10 a 29.92,29.92 0 0 0 11.42,-0.47 1.82,1.82 0 0 1 2,0.51 1.77,1.77 0 0 1 0.18,1.82 c -0.78,1.72 -3.42,3.92 -8.33,4.46 a 28.77,28.77 0 0 1 -5.44,0.07 l -0.37,1.82 a 1.45,1.45 0 0 1 -1.56,1.16 L 6,35.18 2.38,46.32 l 12.9,7.26 a 1.5,1.5 0 0 1 0.64,1.89 z M 34.63,69.77 Z M 54,55.34 Z M 13.9,54.6 Z M 66.22,45.72 Z M 23.74,34.45 Z m 4,-17.75 z"
     id="path355" />
  <path
     class="cls-6"
     d="m 45.48,36.51 a 1.5,1.5 0 0 1 -1.61,-1.18 l -3.95,-18.09 -12.29,0.06 -2,10 a 29.92,29.92 0 0 0 11.42,-0.47 1.82,1.82 0 0 1 2,0.51 1.77,1.77 0 0 1 0.18,1.82 c -0.78,1.72 -3.42,3.92 -8.33,4.46 a 28.77,28.77 0 0 1 -5.44,0.07 l -0.37,1.82 a 1.45,1.45 0 0 1 -1.56,1.16 L 6,35.18 2.38,46.32 l 12.9,7.26 a 1.5,1.5 0 0 1 0.64,1.89 L 7.49,75.4 17.65,82.56 33.11,68.14 a 1.51,1.51 0 0 1 2,0 L 50.73,82.4 60.82,75.15 52.21,55.3 a 1.5,1.5 0 0 1 0.63,-1.9 L 65.66,46 62,34.91 Z"
     id="path357" />
  <path
     d="m 30.32,27.09 a 0.6,0.6 0 0 1 -0.57,-0.76 33,33 0 0 0 1.34,-7.83 0.59,0.59 0 0 1 0.62,-0.56 0.59,0.59 0 0 1 0.56,0.62 34.17,34.17 0 0 1 -1.39,8.11 0.58,0.58 0 0 1 -0.56,0.42 z m 7.38,-3.93 a 0.94,0.94 0 1 1 -1.86,0 0.94,0.94 0 1 1 1.86,0 z m -9.82,-2.6 a 0.74,0.74 0 1 0 0.72,-0.87 0.8,0.8 0 0 0 -0.72,0.87 z"
     id="path359" />
  <path
     class="cls-3"
     d="m 26.28,42.66 v 0.8 a 2.6,2.6 0 0 1 -2.21,1 2.68,2.68 0 0 1 -1.92,-0.65 2.23,2.23 0 0 1 -0.74,-1.74 2.28,2.28 0 0 1 0.66,-1.69 2.38,2.38 0 0 1 1.73,-0.65 2.59,2.59 0 0 1 1,0.17 2.28,2.28 0 0 1 0.8,0.53 2.24,2.24 0 0 1 0.5,0.82 3.7,3.7 0 0 1 0.17,1.14 h -2.4 a 1,1 0 0 0 0.44,0.55 1.24,1.24 0 0 0 0.69,0.2 1.73,1.73 0 0 0 1.28,-0.48 z m -2.55,-1 h 1.11 a 0.88,0.88 0 0 0 -0.17,-0.53 0.49,0.49 0 0 0 -0.4,-0.2 0.54,0.54 0 0 0 -0.38,0.19 0.85,0.85 0 0 0 -0.16,0.5 z m 5.6,-1.85 v 0.58 a 1.92,1.92 0 0 1 1.42,-0.62 1.63,1.63 0 0 1 1.23,0.44 1.81,1.81 0 0 1 0.43,1.32 v 2.84 h -2.2 V 41.7 c 0,-0.38 -0.14,-0.56 -0.43,-0.56 a 0.72,0.72 0 0 0 -0.42,0.15 v 3.09 H 27 V 39.8 Z m 7.59,-0.04 v 1.29 h -1 v 1 c 0,0.33 0.15,0.5 0.45,0.5 a 0.68,0.68 0 0 0 0.56,-0.33 V 44 a 2.35,2.35 0 0 1 -1.35,0.37 2.09,2.09 0 0 1 -1.43,-0.49 1.77,1.77 0 0 1 -0.58,-1.39 v -1.42 h -1 l 3.3,-2.61 v 1.31 z m 5.43,2.81 v 0.8 a 2.62,2.62 0 0 1 -2.22,1 2.65,2.65 0 0 1 -1.92,-0.65 2.44,2.44 0 0 1 -0.08,-3.42 2.36,2.36 0 0 1 1.73,-0.66 2.75,2.75 0 0 1 1,0.18 2.08,2.08 0 0 1 0.8,0.53 2.18,2.18 0 0 1 0.51,0.82 3.73,3.73 0 0 1 0.16,1.14 h -2.4 a 1.06,1.06 0 0 0 0.44,0.54 1.24,1.24 0 0 0 0.69,0.2 1.69,1.69 0 0 0 1.29,-0.48 z m -2.55,-1 h 1.11 A 0.91,0.91 0 0 0 40.73,41.05 0.48,0.48 0 0 0 40.33,40.86 0.46,0.46 0 0 0 40,41 0.77,0.77 0 0 0 39.8,41.55 Z m 5.61,-0.84 a 1.44,1.44 0 0 1 1.29,-1.05 1.06,1.06 0 0 1 1.1,1.1 1.13,1.13 0 0 1 -0.3,0.81 1,1 0 0 1 -0.78,0.31 1.28,1.28 0 0 1 -1,-0.41 1.42,1.42 0 0 0 -0.34,1.1 v 1.71 h -2.3 V 39.73 H 45.4 Z M 21.38,52 V 48.3 H 28.8 V 52 h -1.86 v 4.65 h -3.7 V 52 Z m 12.94,4.68 a 4.14,4.14 0 0 1 -3,-1.24 4.38,4.38 0 0 1 0,-6.12 4.18,4.18 0 0 1 3,-1.26 4.12,4.12 0 0 1 3,1.23 4.38,4.38 0 0 1 0,6.12 4.15,4.15 0 0 1 -3,1.27 z m 0,-5.42 a 0.78,0.78 0 0 0 -0.59,0.25 0.95,0.95 0 0 0 0,1.26 0.81,0.81 0 0 0 0.59,0.24 0.77,0.77 0 0 0 0.6,-0.25 0.88,0.88 0 0 0 0.23,-0.63 0.84,0.84 0 0 0 -0.24,-0.62 0.75,0.75 0 0 0 -0.61,-0.25 z m 11.04,5.22 h -3.7 v -3.64 l -3.2,-4.69 h 3.74 l 1.28,1.85 1.28,-1.9 h 3.74 l -3.16,4.72 z M 24,59.71 v 0.57 a 1.85,1.85 0 0 1 1.41,-0.62 1.62,1.62 0 0 1 1.48,0.78 2.92,2.92 0 0 1 0.78,-0.6 2.12,2.12 0 0 1 0.89,-0.2 1.53,1.53 0 0 1 1.18,0.46 1.82,1.82 0 0 1 0.43,1.28 v 2.87 H 28 V 61.52 A 0.56,0.56 0 0 0 27.88,61.14 0.39,0.39 0 0 0 27.5,61 0.72,0.72 0 0 0 27.07,61.15 v 3.1 h -2.21 v -2.7 A 0.54,0.54 0 0 0 24.74,61.17 0.4,0.4 0 0 0 24.43,61.03 0.81,0.81 0 0 0 24,61.19 v 3.09 h -2.35 v -4.57 z m 12,2.77 v 0.8 a 2.6,2.6 0 0 1 -2.22,1 2.71,2.71 0 0 1 -1.92,-0.65 2.47,2.47 0 0 1 -0.08,-3.42 2.36,2.36 0 0 1 1.73,-0.66 2.75,2.75 0 0 1 1,0.17 2.35,2.35 0 0 1 0.81,0.54 2.21,2.21 0 0 1 0.5,0.82 3.44,3.44 0 0 1 0.18,1.16 h -2.4 a 1.12,1.12 0 0 0 0.44,0.54 1.25,1.25 0 0 0 0.7,0.2 1.67,1.67 0 0 0 1.26,-0.5 z m -2.54,-1 h 1.11 a 1,1 0 0 0 -0.17,-0.53 0.5,0.5 0 0 0 -0.41,-0.19 0.46,0.46 0 0 0 -0.37,0.19 0.76,0.76 0 0 0 -0.15,0.49 z m 5.92,-1.85 v 0.58 A 1.91,1.91 0 0 1 40.79,59.59 1.6,1.6 0 0 1 42,60 a 1.83,1.83 0 0 1 0.43,1.32 v 2.84 h -2.22 v -2.67 c 0,-0.38 -0.14,-0.57 -0.43,-0.57 a 0.72,0.72 0 0 0 -0.42,0.15 v 3.09 h -2.31 v -4.58 z m 7.89,-0.04 v 1.29 h -1 v 1 c 0,0.33 0.15,0.5 0.45,0.5 a 0.68,0.68 0 0 0 0.56,-0.33 v 1.81 A 2.35,2.35 0 0 1 45.93,64.23 2.09,2.09 0 0 1 44.5,63.74 1.74,1.74 0 0 1 44,62.33 v -1.44 h -1 l 3.3,-2.61 v 1.32 z"
     id="path361" />
  <path
     d="m 77.79,17.74 h 6.69 v 17.23 h -6.69 z m 146.87,0 h 6.69 v 17.23 h -6.69 z M 105.26,35.1 h -5.6 l -5.02,-6.89 v 6.76 h -6.1 V 17.73 h 5.27 l 5.35,7.26 v -7.26 h 6.1 z m 75.52,0 h -5.6 l -5.02,-6.89 v 6.76 h -6.13 V 17.73 h 5.28 l 5.35,7.26 v -7.26 h 6.12 z m 90.97,0 h -5.59 l -5.03,-6.89 v 6.76 h -6.11 V 17.73 h 5.27 l 5.35,7.26 v -7.26 h 6.11 z M 107.99,24.45 v -6.72 h 15.33 v 6.72 H 119 v 10.52 h -6.69 V 24.45 Z m 98.27,0 v -6.72 h 15.31 v 6.72 h -4.3 v 10.52 h -6.7 V 24.45 Z m 116.75,0 v -6.72 h 15.31 v 6.72 h -4.3 v 10.52 h -6.7 V 24.45 Z m 108.5,0 v -6.72 h 15.3 v 6.72 h -4.31 v 10.52 h -6.69 V 24.45 Z m -291.31,6.7 v 3.82 H 125.88 V 17.73 h 14.32 v 3.88 h -7.64 v 3.07 h 5.6 v 3.36 h -5.6 v 3.11 z M 143,17.73 h 11.26 a 6.63,6.63 0 0 1 4.61,1.5 4.72,4.72 0 0 1 1.65,3.67 4.8,4.8 0 0 1 -2.34,3.83 14.87,14.87 0 0 1 3.7,8.27 h -7.45 a 13.55,13.55 0 0 0 -1,-4.82 c -0.5,-1 -1.78,-1.53 -3.78,-1.53 V 35 H 143 Z m 6.69,3.59 v 3.3 h 1.15 c 2,0 2.52,-0.53 2.52,-1.63 a 1.76,1.76 0 0 0 -0.41,-1.17 3.06,3.06 0 0 0 -1.87,-0.5 z M 189.88,35 h -6.68 l 6,-17.23 h 10.88 L 206,35 h -6.68 l -1,-2.9 h -7.48 z m 2.39,-7 H 197 l -2.39,-6.68 z m 88.59,7 h -6.68 l 6,-17.23 H 291 L 297,35 h -6.68 l -1,-2.9 h -7.48 z m 2.39,-7 H 288 l -2.39,-6.68 z m -39.61,7.24 a 8.81,8.81 0 0 1 -8.83,-8.87 8.62,8.62 0 0 1 2.57,-6.31 8.88,8.88 0 0 1 12.52,0 8.58,8.58 0 0 1 2.57,6.31 8.81,8.81 0 0 1 -8.83,8.87 m 0,-12.31 a 2.51,2.51 0 0 0 -2,0.88 3.13,3.13 0 0 0 0,4.16 2.48,2.48 0 0 0 2,0.88 2.51,2.51 0 0 0 2,-0.88 3.1,3.1 0 0 0 0,-4.16 2.54,2.54 0 0 0 -2,-0.88 m 105.44,12.31 a 8.79,8.79 0 0 1 -8.83,-8.87 8.69,8.69 0 0 1 2.56,-6.31 8.9,8.9 0 0 1 12.53,0 8.63,8.63 0 0 1 2.58,6.31 8.83,8.83 0 0 1 -8.84,8.87 m 0,-12.31 a 2.51,2.51 0 0 0 -2,0.88 3.13,3.13 0 0 0 0,4.16 2.69,2.69 0 0 0 4,0 3.1,3.1 0 0 0 0,-4.16 2.51,2.51 0 0 0 -2,-0.88 m 61.47,12.31 a 8.81,8.81 0 0 1 -8.83,-8.87 8.66,8.66 0 0 1 2.57,-6.31 8.9,8.9 0 0 1 12.53,0 8.63,8.63 0 0 1 2.58,6.31 8.83,8.83 0 0 1 -8.85,8.87 m 0,-12.31 a 2.52,2.52 0 0 0 -2,0.88 3.16,3.16 0 0 0 0,4.16 2.7,2.7 0 0 0 4,0 3.1,3.1 0 0 0 0,-4.16 2.5,2.5 0 0 0 -2,-0.88 m 47.31,12.31 a 8.38,8.38 0 0 1 -6.25,-2.59 8.47,8.47 0 0 1 -2.61,-6.28 8.63,8.63 0 0 1 2.59,-6.31 8.37,8.37 0 0 1 6.25,-2.58 8.48,8.48 0 0 1 6.28,2.58 8.69,8.69 0 0 1 2.56,6.31 8.79,8.79 0 0 1 -8.84,8.87 m 0,-12.31 a 2.51,2.51 0 0 0 -2,0.88 3.13,3.13 0 0 0 0,4.16 2.7,2.7 0 0 0 4,0 3.1,3.1 0 0 0 0,-4.16 2.53,2.53 0 0 0 -2,-0.88 m 87.39,12.31 a 8.83,8.83 0 0 1 -8.84,-8.87 8.59,8.59 0 0 1 2.61,-6.31 8.9,8.9 0 0 1 12.53,0 8.66,8.66 0 0 1 2.57,6.31 8.81,8.81 0 0 1 -8.84,8.87 m 0,-12.31 a 2.51,2.51 0 0 0 -2,0.88 3.13,3.13 0 0 0 0,4.16 2.69,2.69 0 0 0 4,0 3.08,3.08 0 0 0 0,-4.16 2.49,2.49 0 0 0 -2,-0.88 M 299.25,34.97 V 17.73 h 6.68 v 12.91 h 7.63 v 4.33 z m 68.12,-17.24 v 5.75 c 2.25,-0.1 3.71,-0.63 4.38,-1.62 a 7.28,7.28 0 0 0 1,-4.13 h 7.29 a 13.57,13.57 0 0 1 -0.82,5.19 c -0.55,1.4 -2,2.53 -3.2,3.46 a 11.34,11.34 0 0 1 4.54,8.62 h -7.76 c -0.12,-4.39 -2,-6.18 -5.43,-6.25 V 35 H 360.7 V 17.73 Z m 28.04,17.24 h -6.69 v -7.52 l -6.85,-9.72 h 6.77 l 3.42,5.59 3.41,-5.59 h 6.78 l -6.84,9.72 z m 83.91,0 h -6.69 v -7.52 l -6.86,-9.72 h 6.78 l 3.42,5.59 3.41,-5.59 h 6.79 l -6.85,9.72 z m 32.53,-16.36 -1.6,4.57 a 8.91,8.91 0 0 0 -4.43,-2.08 c -0.52,0 -1.31,-0.12 -1.65,0.69 -0.31,0.65 -0.31,1.55 2.81,2.46 a 11.52,11.52 0 0 1 3,1.38 4.54,4.54 0 0 1 1.59,1.65 4.77,4.77 0 0 1 0.53,2.31 4.84,4.84 0 0 1 -2.09,4.23 11,11 0 0 1 -6.17,1.42 23.08,23.08 0 0 1 -8.06,-1.3 L 497.59,29 c 0.58,0.46 1.89,1.14 3.1,1.91 1.52,0.89 2.54,0.55 2.89,0 0.35,-0.55 0.66,-1.57 -2.37,-2.65 a 13,13 0 0 1 -2.28,-1.06 4.85,4.85 0 0 1 -2.23,-4 4.78,4.78 0 0 1 2.09,-4.2 9.8,9.8 0 0 1 6,-1.64 21.61,21.61 0 0 1 7.08,1.29 m 10.02,16.32 h -6.68 V 17.73 h 6.68 v 6.34 h 5.02 v -6.34 h 6.7 v 17.24 h -6.7 V 28.6 h -5.02 z m 44.54,0 h -5.15 L 555.2,17.73 h 6.49 l 2.95,7.97 3.04,-7.97 h 3.42 l 3.14,7.97 2.83,-7.97 h 6.51 l -5.8,17.24 h -5.16 l -3.19,-7.75 z M 241,56.83 v -7.66 h -21.87 v -2.63 h -11.4 v 2.63 h -3 v 7.66 h 3 v 2.25 h -3 v 7.68 h 3 v 1.56 c 0,9.8 4.34,14.93 13.69,14.93 h 5.3 c 7.61,0 14.2,-3.56 14.2,-15.78 V 59 h -11.18 v 8.47 c 0,2.86 -1.1,5 -5,5 h -0.85 c -2.79,0 -4.78,-0.76 -4.78,-4.14 v -1.57 h 8.4 v -7.68 h -8.4 v -2.25 z m 28.53,3.37 h -5.28 V 58 H 281 v -9.22 h -16.75 v -2.24 h -11.39 v 2.24 h -6.3 V 58 h 6.3 v 11.65 h 15 c 1.55,0 2,0.63 2,1.52 0,0.89 -0.6,1.29 -2.16,1.29 H 249 v 10.79 h 18.72 c 11.32,0 14.9,-3.84 14.9,-11.82 C 282.61,61.39 277,60.2 269.53,60.2 Z m -84.33,0 h -3.44 V 58 h 3.7 v -9.22 h -3.7 v -2.24 h -9.71 v 2.24 h -10 V 58 h 10 v 2.2 h -1.06 c -5.11,0 -10,3.48 -10,11.55 0,7.6 4,11.5 10.88,11.5 8.8,0 9.8,-5.26 9.8,-11.1 v -2.5 h 3.65 c 1.41,0 2.22,0.22 2.22,1.43 0,0.94 -0.45,1.38 -2.15,1.38 h -1.58 v 10.79 h 1.43 c 6.83,0 12.59,-1.92 12.59,-11.79 C 197.92,63.56 192,60.2 185.2,60.2 Z m -13.06,12.06 c 0,1.21 -0.38,1.79 -1,1.79 h -0.37 c -1,0 -1.28,-1.13 -1.28,-2.3 0,-1.46 0.75,-2.09 1.87,-2.09 h 0.77 z m 15.52,-27.42 v 9.24 c 2,0 2.29,1.25 2.29,2.24 V 59 h 9.17 V 55.32 C 199.12,48 196,44.5 187.66,44.84 Z m 156.52,15.36 -1.62,6.11 c -1.23,4.28 -5.8,6.15 -9.79,6.15 h -12.55 v 10.79 h 13.17 c 9.72,0 17.4,-4.56 19.72,-14.45 1,-4.45 1.4,-9.33 4.13,-9.33 V 47.78 c -9.31,0 -11.24,4.51 -13.06,12.42 z M 337.74,46.54 H 320.22 V 56 h 17.52 z m 0,11.71 h -17.52 v 9.47 h 17.52 z m 54.78,1.42 h 33.95 V 70.85 H 392.52 Z M 378,56.54 h -16.59 v 8 h 15.45 c 1.48,0 1.26,1.28 1.26,2.24 H 362.94 V 73 h 15.18 v 2.24 h -16.71 v 8 h 26.22 V 65.33 c 0,-4.06 -2.56,-8.79 -9.63,-8.79 z m -67.08,5.11 a 2.67,2.67 0 0 1 2.36,-0.91 v -6.63 c -6.5,0 -9.23,2.51 -10.39,5.49 h -4.55 l -0.19,-3.06 H 290 l 0.21,3.06 h -3.07 v 8.52 h 3.63 l 1,15.13 h 8.11 l -1,-15.13 h 3.62 c 2.12,0 3.06,0.62 3.06,2 0,1.38 -0.94,2.32 -3.64,2.32 V 81 c 9.62,0 12.6,-3.73 12.6,-9.91 v -1.91 a 8.76,8.76 0 0 0 -3.6,-7.53 z m -190.85,9.48 h 12.31 v 12.12 h 10.88 V 71.13 h 12.35 v -16 H 120.07 Z M 129,61.92 h 17.74 v 2.42 H 129 Z m 13.68,-15.38 v -1.7 H 133 v 1.7 h -13.63 v 6.35 h 36.89 v -6.35 z m -18.75,26.71 c -0.11,2.47 -2.22,3.52 -4.56,3.33 v 6.67 c 8.74,0.35 11.65,-3.67 11.42,-10 z M 114,52.85 v -6.31 h -13.59 v -1.7 h -9.63 v 1.7 H 77.21 v 6.31 h 13.57 v 2.25 h -13 v 18.11 h 8.76 c -1.38,2 -5.51,3.38 -9.48,3.31 v 6.69 c 6.07,0 10.64,-1.42 13,-4 v 4.08 h 10.76 v -4.12 c 2.43,2.62 7,4.08 13,4 v -6.65 c -3.79,0.07 -7.78,-0.84 -9.46,-3.31 h 8.87 V 55.1 h -13 V 52.85 Z M 90.78,69 h -4.06 v -2.25 h 4.06 z m 0,-7.37 h -4.06 v -2.27 h 4.06 z M 104.46,69 h -4 v -2.25 h 4 z m 0,-9.61 v 2.21 h -4 v -2.24 z"
     id="path363"
     style="fill:#be3455;fill-opacity:1" />
  <path
     d="m 151.73,73.25 c 0.08,2.47 2.23,3.52 4.53,3.33 v 6.67 c -8.71,0.35 -11.61,-3.67 -11.41,-10 z M 432.21,47.18 v 10.19 h 21 c 1.35,0 2.3,0.35 2.3,1.65 0,1.1 -0.81,1.61 -2.3,1.61 h -19.09 v 22.71 h 31.4 V 72.71 H 445.89 V 70 h 6.38 c 13.25,0.28 15.58,-5.17 15.57,-11.11 0,-8.79 -4.93,-11.66 -14.44,-11.66 z m 79.28,0 v 10.19 h 21 c 1.35,0 2.29,0.35 2.29,1.65 0,1.1 -0.8,1.61 -2.29,1.61 H 513.4 v 22.71 h 31.4 V 72.71 H 525.17 V 70 h 6.38 c 13.25,0.28 15.57,-5.17 15.57,-11.11 0,-8.79 -4.94,-11.66 -14.45,-11.66 z m -26.82,0 c -6.8,0 -14.13,5.53 -14.13,12.33 v 11.55 c 0,6.79 7.33,12.28 14.13,12.28 h 7.24 c 6.83,0 14.13,-5.49 14.13,-12.28 V 59.51 c 0,-6.8 -7.3,-12.33 -14.13,-12.33 z m -2.13,22.41 v -8.66 c 0,-1.48 1.39,-3.56 3.08,-3.56 H 491 c 1.66,0 3.09,2.08 3.09,3.56 v 8.66 c 0,1.63 -1.5,3.61 -3.09,3.61 h -5.35 c -1.75,0 -3.08,-1.93 -3.08,-3.61 M 585.65,65.2 a 11.44,11.44 0 0 0 1.55,-6.36 c 0,-8.79 -4.93,-11.66 -14.44,-11.66 h -21.19 v 10.18 h 21 c 1.35,0 2.3,0.36 2.3,1.66 0,1 -0.73,1.55 -2.07,1.6 h -12.14 l 0.06,9.26 h 12.15 c 1.33,0.06 2,0.57 2.06,1.61 0,1.29 -0.94,1.65 -2.29,1.65 h -21.07 v 10.2 h 21.27 c 9.51,0 14.42,-2.86 14.45,-11.66 a 11.27,11.27 0 0 0 -1.64,-6.48"
     id="path365"
     style="fill:#be3455;fill-opacity:1" />
</svg>
