<?xml version="1.0" encoding="UTF-8" standalone="no"?>
<!-- Created with Inkscape (http://www.inkscape.org/) -->

<svg
   width="209.04982mm"
   height="11.516061mm"
   viewBox="0 0 209.04982 11.516061"
   version="1.1"
   id="svg5"
   sodipodi:docname="2020.svg"
   inkscape:version="1.1.2 (b8e25be833, 2022-02-05)"
   xmlns:inkscape="http://www.inkscape.org/namespaces/inkscape"
   xmlns:sodipodi="http://sodipodi.sourceforge.net/DTD/sodipodi-0.dtd"
   xmlns="http://www.w3.org/2000/svg"
   xmlns:svg="http://www.w3.org/2000/svg">
  <sodipodi:namedview
     id="namedview18"
     pagecolor="#505050"
     bordercolor="#ffffff"
     borderopacity="1"
     inkscape:pageshadow="0"
     inkscape:pageopacity="0"
     inkscape:pagecheckerboard="1"
     inkscape:document-units="mm"
     showgrid="false"
     height="296mm"
     fit-margin-top="0"
     fit-margin-left="0"
     fit-margin-right="0"
     fit-margin-bottom="0"
     inkscape:zoom="5.9936588"
     inkscape:cx="28.613574"
     inkscape:cy="33.702285"
     inkscape:window-width="1920"
     inkscape:window-height="1027"
     inkscape:window-x="-8"
     inkscape:window-y="-8"
     inkscape:window-maximized="1"
     inkscape:current-layer="svg5" />
  <defs
     id="defs2" />
  <g
     id="layer1"
     style="display:inline"
     transform="translate(-0.68138645,-77.224991)">
    <path
       style="fill:#2c5aa0;stroke-width:0.116364"
       d="m 22.912726,88.421546 c -0.07797,-0.145604 -0.120527,-2.076791 -0.120527,-5.469098 0,-6.263144 -0.136181,-5.755961 1.528207,-5.691564 0.765153,0.02964 1.069599,0.08648 1.1507,0.214805 0.06064,0.09606 0.111103,1.182541 0.112015,2.414539 0.0012,1.414581 0.04469,2.240011 0.118095,2.240011 0.06399,0 0.117334,-0.03937 0.118702,-0.08724 0.0012,-0.04803 0.263061,-0.362962 0.58181,-0.699919 0.318748,-0.336972 0.579559,-0.661648 0.579559,-0.721501 0,-0.05988 0.06627,-0.150772 0.147125,-0.201886 0.08086,-0.05122 0.378495,-0.381063 0.661299,-0.733067 0.282803,-0.352004 0.571489,-0.692365 0.64154,-0.756352 0.07007,-0.06399 0.38152,-0.442558 0.692153,-0.841238 0.663563,-0.851633 0.783299,-0.890663 2.459816,-0.801614 1.590005,0.08451 1.480589,0.0842 2.845348,0.0061 0.720255,-0.04149 1.345396,-0.02265 1.522842,0.04605 0.19842,0.07675 0.416143,0.348022 0.63882,0.795732 0.185805,0.373556 0.370394,0.705376 0.410215,0.737369 0.06885,0.05532 0.510132,0.841861 1.222849,2.17949 l 0.324266,0.608574 0.151379,-0.317669 c 0.08329,-0.17471 0.252847,-0.474749 0.376915,-0.666756 0.196703,-0.304401 0.402661,-0.682805 1.159849,-2.131066 0.08982,-0.171914 0.204424,-0.339815 0.254534,-0.373115 0.05016,-0.03328 0.145757,-0.204439 0.212677,-0.380274 0.182507,-0.480007 0.590944,-0.580061 2.045741,-0.501134 0.703992,0.03815 1.33237,0.06186 1.396372,0.05244 0.06399,-0.0091 2.356279,-0.03663 5.093963,-0.06079 3.354512,-0.02949 5.0525,-0.003 5.207286,0.07919 0.223639,0.119614 0.229679,0.266069 0.229679,5.564653 0,4.077316 -0.03503,5.476744 -0.139631,5.581372 -0.17447,0.174482 -10.058702,0.199165 -10.333116,0.02584 -0.150012,-0.09484 -0.178905,-0.826053 -0.205578,-5.205506 -0.01702,-2.802382 -0.06034,-5.173787 -0.09621,-5.269782 -0.04788,-0.127974 -0.113839,-0.08162 -0.247694,0.174543 -0.100312,0.192006 -0.215215,0.375273 -0.255218,0.407266 -0.03997,0.03207 -0.137701,0.189103 -0.217054,0.349101 -0.07934,0.159998 -0.235399,0.430277 -0.34673,0.600625 -0.111255,0.170348 -0.454079,0.720164 -0.761702,1.221815 -0.307623,0.501666 -0.764347,1.226299 -1.014929,1.610296 -0.250597,0.383997 -0.530285,0.861968 -0.621539,1.062167 -0.09134,0.200183 -0.22365,0.399636 -0.294172,0.443226 -0.08572,0.05304 -0.128278,0.773877 -0.128278,2.174581 0,1.221845 -0.05016,2.189172 -0.120526,2.320413 -0.107152,0.200092 -0.25309,0.225079 -1.314908,0.225079 -0.773876,0 -1.243625,-0.04909 -1.334103,-0.139677 -0.09818,-0.09818 -0.139677,-0.753707 -0.139677,-2.204765 0,-2.264072 0.0091,-2.224327 -0.877076,-3.590165 -0.18699,-0.288002 -0.39342,-0.610794 -0.458729,-0.717307 C 35.13171,80.955677 34.808447,80.434967 34.661247,80.210785 34.3228,79.695303 33.6698,78.626267 33.47334,78.266025 33.363909,78.065523 33.198926,77.825868 33.106518,77.73346 c -0.146365,-0.146516 -0.185532,-0.135269 -0.304538,0.08709 -0.07508,0.140285 -0.224198,0.346897 -0.331364,0.459079 -0.107152,0.112167 -0.301726,0.330771 -0.432405,0.485738 -0.13071,0.154982 -0.471026,0.545651 -0.756353,0.868185 -0.285341,0.322533 -0.780624,0.894357 -1.100619,1.270739 -0.319995,0.376368 -0.754741,0.871757 -0.966096,1.100863 -0.725665,0.786552 -0.727474,0.774864 0.312351,2.003716 1.085253,1.282565 1.577223,1.856501 1.821634,2.125215 0.130406,0.143325 0.444519,0.518628 0.698187,0.834079 0.253667,0.315451 0.517229,0.625901 0.585715,0.689903 0.24543,0.22938 0.523841,0.765076 0.45528,0.876012 -0.03967,0.06414 -0.734466,0.112167 -1.60484,0.111103 -1.752814,-0.003 -1.497292,0.129342 -2.705048,-1.394351 -0.380456,-0.480008 -0.747932,-0.925104 -0.816616,-0.989106 -0.0687,-0.06399 -0.513399,-0.613818 -0.988255,-1.221815 -0.47484,-0.607997 -0.981552,-1.235828 -1.126017,-1.395172 l -0.262665,-0.289734 v 2.462035 c 0,1.35412 -0.03177,2.544853 -0.07067,2.646092 -0.05806,0.15138 -0.284202,0.184058 -1.275908,0.184058 -1.072532,0 -1.218547,-0.02477 -1.325744,-0.225079 z m 29.016252,-2.635362 c 0.09165,-0.238818 0.08922,-5.262015 -0.0029,-5.605036 -0.06991,-0.260903 -0.07868,-0.261815 -2.496146,-0.261815 -2.279397,0 -2.43325,0.01368 -2.546431,0.225064 -0.128961,0.240977 -0.173807,5.318707 -0.04984,5.641787 0.06134,0.159876 0.396272,0.184073 2.547559,0.184073 2.151286,0 2.486212,-0.02417 2.547558,-0.184073 z"
       id="path968" />
    <path
       style="fill:#2c5aa0;stroke-width:0.116364"
       d="m 11.698944,88.569051 c -0.04271,-0.04271 -0.07751,-2.554292 -0.07751,-5.581373 0,-5.322354 0.0076,-5.507779 0.225078,-5.624263 0.295921,-0.158371 9.650239,-0.164861 10.065515,-0.0076 l 0.298474,0.113535 v 5.517719 c 0,4.924086 -0.01976,5.525304 -0.184058,5.588349 -0.25198,0.09666 -10.230512,0.08998 -10.327435,-0.0076 z m 7.714673,-2.823873 c 0.191261,-0.357384 0.152717,-5.36631 -0.04332,-5.624628 -0.14226,-0.187431 -0.375668,-0.203193 -2.585388,-0.174528 l -2.429039,0.03146 -0.03116,2.848723 c -0.01717,1.566796 -0.0061,2.915156 0.02538,2.996363 0.04332,0.112775 0.633227,0.14758 2.49985,0.14758 2.296415,0 2.450424,-0.01368 2.56364,-0.225078 z"
       id="path1007" />
    <path
       style="fill:#2c5aa0;stroke-width:0.116364"
       d="m 64.101457,88.613689 -0.290908,-0.148644 v -5.445951 c 0,-5.25662 0.0079,-5.451696 0.225875,-5.61107 0.186522,-0.136333 1.073542,-0.165135 5.090921,-0.165135 4.709894,0 4.872469,0.0076 5.097773,0.232739 0.211873,0.211871 0.232727,0.387873 0.232727,1.963941 0,1.340502 -0.03672,1.76166 -0.162627,1.866182 -0.105738,0.0877 -0.563712,0.123262 -1.309092,0.101528 l -1.146469,-0.03344 -0.06347,-0.552202 C 71.741276,80.517922 71.65902,80.21574 71.593396,80.150112 71.517402,80.074118 70.589737,80.0422 69.03868,80.062263 l -2.435402,0.03161 v 2.967273 2.967289 h 2.497472 2.497469 l 0.107805,-0.375866 c 0.174684,-0.609091 -0.01825,-0.729602 -1.168261,-0.729602 -0.936252,0 -1.387849,-0.113383 -1.576326,-0.395594 -0.04701,-0.07037 -0.08628,-0.533858 -0.08727,-1.029855 -0.0029,-1.396144 -0.06251,-1.367282 2.831099,-1.367282 2.135374,0 2.386076,0.02067 2.55772,0.210275 0.162051,0.179057 0.194951,0.596461 0.221672,2.8122 0.02356,1.955339 0.06753,2.613963 0.176831,2.650348 0.08136,0.02705 0.145453,-0.04636 0.145453,-0.166654 0,-0.118247 0.104734,-0.410458 0.232726,-0.649277 0.128005,-0.238818 0.232729,-0.52913 0.232729,-0.645127 0,-0.115967 0.07688,-0.312548 0.170846,-0.436783 0.09396,-0.124174 0.174285,-0.304431 0.178496,-0.400427 0.0043,-0.09606 0.108823,-0.383997 0.232478,-0.640005 0.123657,-0.255993 0.22661,-0.535909 0.228782,-0.622041 0.002,-0.08618 0.07523,-0.295586 0.162357,-0.465463 0.08713,-0.169861 0.213099,-0.465949 0.279931,-0.657955 0.343229,-0.986021 0.421043,-1.188149 0.566884,-1.472503 0.08712,-0.169877 0.160191,-0.379331 0.162363,-0.465448 0.002,-0.08618 0.105114,-0.366047 0.228778,-0.622055 0.123657,-0.255993 0.228275,-0.543995 0.232482,-0.639991 0.0043,-0.09606 0.08452,-0.276192 0.178494,-0.400427 0.09396,-0.124174 0.170844,-0.336774 0.170844,-0.472302 0,-0.135573 0.07688,-0.348082 0.170846,-0.472317 0.09396,-0.124174 0.172508,-0.31045 0.174546,-0.413817 0.002,-0.103352 0.112228,-0.325908 0.244872,-0.494538 0.239548,-0.304538 0.251929,-0.306605 1.832933,-0.306605 h 1.591757 l 0.244489,0.494538 c 0.335862,0.67937 0.743425,1.742737 0.747906,1.951341 0.002,0.09484 0.08058,0.273943 0.174546,0.398177 0.09396,0.124174 0.170848,0.308292 0.170848,0.409 0,0.100767 0.104734,0.378525 0.232726,0.617344 0.128005,0.238818 0.234393,0.526045 0.236427,0.638272 0.002,0.112167 0.08058,0.305709 0.174547,0.429944 0.09396,0.124174 0.172623,0.307501 0.174795,0.407266 0.002,0.0997 0.105115,0.390852 0.228778,0.64686 0.123657,0.255993 0.226608,0.54708 0.228778,0.646845 0.002,0.0997 0.08083,0.283047 0.174797,0.407267 0.09396,0.124174 0.174284,0.304431 0.178494,0.400427 0.0043,0.09606 0.108824,0.383997 0.232479,0.640005 0.123658,0.255993 0.226607,0.57687 0.228779,0.713021 0.002,0.136181 0.0825,0.31276 0.178494,0.392432 0.096,0.07964 0.174547,0.229076 0.174547,0.332002 0,0.102896 0.112274,0.458015 0.249488,0.789075 0.388466,0.937248 0.340721,0.973482 -1.282733,0.973482 H 83.43863 l -0.236278,-0.494553 c -0.129964,-0.271997 -0.274151,-0.651632 -0.320437,-0.843639 -0.04628,-0.191991 -0.190112,-0.493094 -0.31962,-0.669096 l -0.235465,-0.319995 -1.869034,0.0015 c -1.027963,8.06e-4 -1.921884,0.04028 -1.986484,0.08724 -0.134554,0.09788 -0.638911,1.295681 -0.638911,1.517294 0,0.08101 -0.087,0.280068 -0.193325,0.442361 -0.191356,0.292029 -0.210084,0.29513 -1.832731,0.302805 -0.901674,0.0046 -3.838684,0.0266 -6.52669,0.04955 -3.80244,0.03253 -4.951861,0.0091 -5.178198,-0.106695 z m 17.531319,-4.802541 c 0.03819,-0.09955 -0.01018,-0.348234 -0.107623,-0.552734 -0.264978,-0.556488 -0.667298,-1.637425 -0.667298,-1.792863 0,-0.07508 -0.116042,-0.333218 -0.257853,-0.573587 L 80.34215,80.454938 80.25856,80.85728 c -0.04598,0.221295 -0.165257,0.558966 -0.265067,0.750379 -0.09981,0.191429 -0.181797,0.428029 -0.182191,0.525787 -3.49e-4,0.09773 -0.0727,0.281026 -0.160677,0.407267 -0.189662,0.272149 -0.356201,1.1588 -0.24995,1.330714 0.0425,0.06885 0.523454,0.120678 1.118614,0.120678 0.837045,0 1.057826,-0.03587 1.113484,-0.180911 z"
       id="path1157" />
    <path
       style="fill:#2c5aa0;stroke-width:0.116364"
       d="m 99.621547,88.570267 c -0.206798,-0.08451 -0.212464,-10.864666 -0.0058,-11.071309 0.200352,-0.20035 8.713133,-0.20035 8.913483,0 0.0874,0.08739 0.13963,0.52144 0.13963,1.159545 0,0.889251 -0.0288,1.035341 -0.22508,1.140365 -0.13797,0.07387 -1.35376,0.120526 -3.14182,0.120526 h -2.91675 v 0.872729 0.872729 h 2.8426 c 2.42904,0 2.86921,0.0266 3.02546,0.182857 0.21141,0.2114 0.25724,1.584549 0.0694,2.078661 l -0.11349,0.298489 h -2.91198 -2.91197 v 0.93091 0.93091 h 3.06939 c 2.48821,0 3.09499,0.03085 3.20453,0.162825 0.0872,0.105023 0.12322,0.548661 0.10153,1.250905 l -0.0336,1.088096 -4.48001,0.02052 c -2.46401,0.01064 -4.545471,-0.0061 -4.625472,-0.03876 z"
       id="path1196" />
    <path
       style="fill:#2c5aa0;stroke-width:0.116364"
       d="m 86.614573,88.505261 c -0.03152,-0.08223 -0.04368,-2.610649 -0.02702,-5.618655 l 0.03032,-5.469098 1.828128,-0.03207 c 1.821257,-0.03192 1.828822,-0.031 2.012598,0.249503 0.101452,0.154846 0.216098,0.483443 0.254759,0.730211 0.03865,0.246767 0.140999,0.551959 0.227412,0.6782 0.0864,0.126301 0.157114,0.353964 0.157114,0.506043 0,0.152094 0.07324,0.44154 0.162767,0.643212 0.08952,0.201673 0.215637,0.576125 0.280261,0.832134 0.06463,0.255993 0.17465,0.635628 0.244504,0.843638 0.06985,0.207996 0.183998,0.548357 0.253646,0.756368 0.06964,0.207995 0.175607,0.58763 0.235463,0.843638 0.136287,0.582904 0.46732,1.22636 0.591447,1.149651 0.05155,-0.03192 0.09373,-0.188358 0.09373,-0.347763 0,-0.15939 0.07154,-0.43122 0.158994,-0.60403 0.08744,-0.172825 0.19413,-0.508384 0.237078,-0.745682 0.04295,-0.237299 0.154347,-0.577661 0.247563,-0.756368 0.09321,-0.178692 0.169802,-0.445324 0.170196,-0.592509 3.95e-4,-0.147124 0.07227,-0.408999 0.15971,-0.581825 0.08744,-0.17281 0.194131,-0.508368 0.237078,-0.745667 0.04295,-0.237299 0.154348,-0.57766 0.247562,-0.756367 0.09321,-0.178692 0.169803,-0.43622 0.170198,-0.57225 3.93e-4,-0.136029 0.130968,-0.541851 0.290158,-0.901819 l 0.28944,-0.65449 h 1.740331 c 1.666494,0 1.748014,0.01064 1.921473,0.258622 0.157335,0.224638 0.18114,0.936747 0.18114,5.418578 0,3.334355 -0.04262,5.239583 -0.12045,5.385035 -0.106467,0.198937 -0.252426,0.225079 -1.256734,0.225079 -0.728616,0 -1.186368,-0.05016 -1.275909,-0.139677 -0.101649,-0.10168 -0.139631,-0.986264 -0.139631,-3.251323 0,-2.920416 -0.102576,-3.891086 -0.292432,-2.767303 -0.04418,0.261495 -0.153225,0.61517 -0.242322,0.785944 -0.0891,0.170773 -0.162317,0.444488 -0.16271,0.608255 -3.95e-4,0.163767 -0.07759,0.399409 -0.171564,0.523629 -0.09396,0.124174 -0.171752,0.304431 -0.172859,0.400427 -0.002,0.191246 -0.407744,1.564334 -0.652988,2.210921 -0.08496,0.223999 -0.18929,0.590548 -0.231844,0.814548 -0.140193,0.738022 -0.292999,0.814548 -1.62662,0.814548 h -1.189992 l -0.194946,-0.552734 c -0.107212,-0.304006 -0.246176,-0.762188 -0.308787,-1.018181 -0.06262,-0.256009 -0.190556,-0.630461 -0.284306,-0.832134 -0.09376,-0.201672 -0.172124,-0.489674 -0.174159,-0.640005 -0.002,-0.150316 -0.08058,-0.374969 -0.174548,-0.499204 -0.09396,-0.124174 -0.171168,-0.359862 -0.171562,-0.523628 -3.94e-4,-0.163782 -0.07698,-0.443987 -0.170196,-0.622679 -0.09321,-0.178708 -0.204617,-0.519069 -0.247561,-0.756368 -0.04295,-0.237298 -0.149632,-0.572857 -0.237079,-0.745667 -0.08745,-0.172825 -0.158996,-0.44464 -0.158996,-0.604045 0,-0.159405 -0.0516,-0.321713 -0.114675,-0.360698 -0.07412,-0.04575 -0.125557,1.196403 -0.145453,3.513138 l -0.03076,3.584024 -1.194814,0.03313 c -0.890671,0.02477 -1.209403,-0.0046 -1.252132,-0.116423 z"
       id="path1235" />
    <path
       style="fill:#2c5aa0;stroke-width:0.116364"
       d="m 115.84462,88.569051 c -0.14096,-0.140893 -0.0866,-2.194172 0.062,-2.342801 0.10179,-0.101832 1.00074,-0.139677 3.31638,-0.139677 h 3.17673 v -0.872729 c 0,-0.480008 -0.0131,-0.883749 -0.0291,-0.897199 -0.016,-0.01368 -1.49528,-0.05274 -3.28728,-0.08724 l -3.25819,-0.06277 -0.0309,-3.302239 c -0.0219,-2.339214 0.008,-3.348778 0.10152,-3.461827 0.1982,-0.238803 8.73958,-0.235718 8.93789,0.003 0.0872,0.105024 0.12322,0.548646 0.10151,1.250905 l -0.0336,1.088081 -3.25819,0.06277 c -1.792,0.0345 -3.27128,0.07387 -3.28728,0.08724 -0.016,0.01368 -0.0291,0.417191 -0.0291,0.897199 v 0.872729 h 3.17674 c 2.31564,0 3.21458,0.03784 3.31637,0.139677 0.10177,0.101832 0.13963,0.998621 0.13963,3.30686 0,1.741962 -0.0318,3.250046 -0.0706,3.35127 -0.0627,0.163402 -0.56999,0.184072 -4.5188,0.184072 -2.44649,0 -4.48307,-0.03496 -4.52574,-0.07751 z"
       id="path1274" />
    <path
       style="fill:#2c5aa0;stroke-width:0.116364"
       d="m 125.78051,88.425422 c -0.0805,-0.150468 -0.12253,-2.002211 -0.12253,-5.401905 0,-4.753601 0.0165,-5.193271 0.20363,-5.423502 0.1877,-0.230946 0.29476,-0.247893 1.36728,-0.216537 l 1.16364,0.03405 0.0703,2.094559 c 0.0386,1.152007 0.0779,2.108679 0.0873,2.12596 0.009,0.01733 1.12975,0.01733 2.48975,0 l 2.47275,-0.03146 0.0582,-1.978182 c 0.0321,-1.088004 0.10062,-2.043643 0.15233,-2.123634 0.1494,-0.230748 2.33757,-0.198952 2.57392,0.03739 0.16091,0.160909 0.18286,0.821752 0.18286,5.50401 0,3.983525 -0.0351,5.356263 -0.13968,5.460801 -0.0913,0.09134 -0.57407,0.139676 -1.39637,0.139676 -0.69121,0 -1.26683,-0.01368 -1.27917,-0.02903 -0.0122,-0.01596 -0.0517,-0.997815 -0.0872,-2.181816 l -0.0649,-2.15274 h -2.50184 -2.50182 l -0.0582,2.15274 -0.0582,2.152725 -1.24475,0.03298 c -1.13738,0.03009 -1.25531,0.01368 -1.36727,-0.195989 z"
       id="path1313" />
    <path
       style="fill:#2c5aa0;stroke-width:0.116364"
       d="m 137.2944,88.651762 c -0.25417,-0.164511 -0.26392,-10.916174 -0.0106,-11.221943 0.15137,-0.182462 0.56908,-0.194165 5.29458,-0.148492 2.82162,0.0272 5.76988,0.05274 6.55166,0.05654 l 1.42144,0.0076 0.0743,0.32723 c 0.0409,0.179969 0.14743,0.585442 0.23677,0.90106 0.0894,0.315618 0.16305,0.865449 0.16381,1.22183 8.1e-4,0.356381 0.0757,0.927232 0.16656,1.268566 0.0909,0.341319 0.20186,1.089357 0.24668,1.662291 0.064,0.817801 0.12524,1.065115 0.28502,1.150623 0.16886,0.09043 0.21578,0.04757 0.27557,-0.251387 0.0397,-0.198162 0.072,-0.625233 0.072,-0.949027 0,-0.32381 0.0746,-0.880162 0.16591,-1.236376 0.0912,-0.356198 0.21628,-1.118904 0.27785,-1.694907 0.0616,-0.576003 0.18444,-1.335274 0.27305,-1.687277 l 0.16109,-0.640006 1.63881,-0.03222 c 1.38571,-0.02721 1.66262,-0.003 1.79309,0.15372 0.0848,0.102288 0.2215,0.69273 0.30365,1.312187 0.0822,0.619457 0.20128,1.361917 0.26474,1.649919 0.0635,0.288002 0.11824,0.785458 0.12174,1.105453 0.003,0.319995 0.0844,0.838866 0.1796,1.15304 0.0953,0.314174 0.17853,0.81163 0.1849,1.105468 0.0242,1.1098 0.17606,1.141383 0.25547,0.05304 0.0427,-0.584621 0.1333,-1.20958 0.20146,-1.388804 0.0681,-0.179209 0.15205,-0.74816 0.18646,-1.264326 0.0343,-0.516165 0.11445,-1.095573 0.17781,-1.28758 0.0634,-0.191991 0.15631,-0.779849 0.20651,-1.306335 0.0502,-0.526486 0.15749,-1.037043 0.23842,-1.134558 0.11521,-0.138765 0.4202,-0.177294 1.40507,-0.177294 1.16757,0 1.26338,0.01717 1.33393,0.239502 0.09,0.283518 -0.0412,1.364045 -0.17574,1.447183 -0.0515,0.03177 -0.13162,0.437709 -0.17801,0.901956 -0.0463,0.464262 -0.13588,0.975002 -0.19878,1.134999 -0.0629,0.160013 -0.15924,0.675951 -0.21406,1.146536 -0.0549,0.470584 -0.14758,0.91568 -0.20622,0.989091 -0.0587,0.07341 -0.14408,0.494446 -0.18991,0.935621 -0.0459,0.441175 -0.15693,1.010674 -0.24686,1.265542 -0.09,0.254868 -0.16349,0.660265 -0.16349,0.900862 0,0.240597 -0.0819,0.718386 -0.18214,1.061741 -0.10016,0.343341 -0.2192,0.755182 -0.26448,0.91518 l -0.0824,0.290904 -1.73396,0.03237 c -1.91539,0.03572 -1.92141,0.03359 -1.92444,-0.69384 -9.2e-4,-0.235839 -0.0584,-0.576201 -0.12751,-0.756367 -0.0692,-0.180166 -0.19619,-0.903568 -0.28237,-1.607575 -0.0862,-0.704008 -0.21059,-1.515638 -0.27652,-1.803639 -0.066,-0.288002 -0.1222,-0.821646 -0.12494,-1.18587 -0.003,-0.364224 -0.0477,-0.68855 -0.0997,-0.720741 -0.1298,-0.08025 -0.46539,1.427575 -0.55061,2.474118 -0.0385,0.47215 -0.11764,0.983923 -0.17592,1.137294 -0.0584,0.153356 -0.15413,0.788163 -0.21295,1.41066 -0.0588,0.622496 -0.17277,1.275816 -0.25325,1.451818 l -0.14636,0.319995 h -1.66592 c -1.63439,0 -1.66942,-0.0061 -1.85063,-0.281892 -0.10153,-0.155043 -0.21245,-0.587038 -0.24636,-0.96 -0.0339,-0.372963 -0.13162,-0.887564 -0.21715,-1.143557 -0.0856,-0.256008 -0.18642,-0.772052 -0.22424,-1.146793 -0.0378,-0.374726 -0.12053,-0.778132 -0.18387,-0.896455 -0.0634,-0.118246 -0.1453,-0.544815 -0.18212,-0.947765 -0.0368,-0.40295 -0.14104,-0.930059 -0.2315,-1.171355 -0.0904,-0.241296 -0.16683,-0.660205 -0.16964,-0.93091 -0.003,-0.270706 -0.081,-0.701652 -0.17378,-0.957645 -0.0927,-0.256008 -0.20304,-0.822406 -0.24505,-1.258672 -0.17488,-1.816133 -0.27078,-0.218482 -0.27247,4.539086 -0.001,3.891313 -0.0346,5.047119 -0.14727,5.120013 -0.21467,0.138917 -10.11534,0.178327 -10.32736,0.04104 z m 7.56371,-2.678891 c 0.25557,-0.161335 0.32884,-5.479814 0.0783,-5.687703 -0.11931,-0.09894 -0.867,-0.129038 -2.65314,-0.106391 l -2.48709,0.03146 -0.0328,2.676368 c -0.0181,1.472002 -0.005,2.79419 0.0313,2.938198 0.064,0.2611 0.0707,0.261815 2.47649,0.260036 1.3268,-8.05e-4 2.4909,-0.05137 2.5869,-0.112015 z"
       id="path1352" />
    <path
       style="fill:#2c5aa0;stroke-width:0.116364"
       d="m 168.2086,88.569051 c -0.0427,-0.04271 -0.0775,-0.88384 -0.0775,-1.869283 0,-1.639736 0.0234,-1.842883 0.27664,-2.395161 0.15217,-0.331896 0.42709,-0.754969 0.61092,-0.940166 0.4961,-0.499721 1.3973,-0.882639 2.0805,-0.883976 0.32044,-8.06e-4 0.76553,-0.05593 0.98911,-0.12311 0.22357,-0.06703 0.97551,-0.16623 1.67096,-0.220413 1.47617,-0.115055 1.73458,-0.266769 1.73458,-1.018774 0,-1.118388 -0.25266,-1.257107 -2.28971,-1.257107 -1.35066,0 -1.55365,0.02614 -1.78571,0.229502 -0.15632,0.137093 -0.26181,0.362825 -0.26181,0.560379 0,0.714981 -0.12144,0.781035 -1.43539,0.781035 -0.77386,0 -1.24362,-0.04909 -1.33409,-0.139677 -0.19109,-0.191079 -0.1751,-0.74857 0.0467,-1.62551 0.31783,-1.257076 0.61575,-1.600538 1.81302,-2.090045 0.53552,-0.218953 0.90418,-0.25999 2.73531,-0.304462 3.32352,-0.0807 4.38071,0.311028 5.10345,1.891063 0.24032,0.525391 0.2857,0.802526 0.2857,1.744957 0,1.637729 -0.42049,2.452004 -1.64285,3.181485 -0.23155,0.138156 -0.52217,0.251251 -0.64582,0.251251 -0.12372,0 -0.28068,0.05593 -0.34898,0.124174 -0.0682,0.06824 -0.53695,0.148948 -1.04147,0.17933 -0.76723,0.04605 -1.65664,0.172324 -3.25372,0.461663 -0.13299,0.02417 -0.30322,0.178434 -0.37818,0.342991 -0.30214,0.663077 -0.43807,0.637315 3.36227,0.637315 2.18913,0 3.58283,0.04514 3.72366,0.120527 0.19385,0.103807 0.22509,0.250141 0.22509,1.054932 0,1.528708 0.53725,1.384624 -5.16293,1.384624 -2.7071,0 -4.95692,-0.03496 -4.99959,-0.07751 z"
       id="path1391" />
    <path
       style="fill:#2c5aa0;stroke-width:0.116364"
       d="m 181.92024,88.643722 c -0.38401,-0.04605 -0.92254,-0.169375 -1.19672,-0.273973 -0.50896,-0.194164 -1.30512,-0.829656 -1.30512,-1.041755 0,-0.06475 -0.078,-0.203739 -0.17325,-0.309037 -0.196,-0.216582 -0.36246,-1.132142 -0.52597,-2.893179 -0.11171,-1.203652 -0.0281,-2.685396 0.23294,-4.125663 0.19787,-1.091729 1.03968,-2.197136 1.7962,-2.358653 0.19655,-0.04195 0.4309,-0.135725 0.52077,-0.2083 0.11065,-0.08937 0.95627,-0.130861 2.61822,-0.128429 2.10006,0.003 2.50523,0.03237 2.80387,0.202919 0.19201,0.109583 0.43458,0.199681 0.53904,0.200076 0.34225,0.0012 1.10726,0.897884 1.37347,1.609718 0.24253,0.648502 0.25248,0.825993 0.21709,3.869884 -0.0322,2.771999 -0.0635,3.235987 -0.23899,3.539309 -0.1111,0.192006 -0.2022,0.405185 -0.2026,0.473746 -0.001,0.205351 -0.99075,1.001569 -1.47221,1.184578 -0.88237,0.335361 -3.30212,0.460933 -4.98674,0.25879 z M 184.81,86.126227 c 0.77477,-0.07311 0.80297,-0.08739 1.09769,-0.551899 0.29681,-0.467864 0.30236,-0.514965 0.29611,-2.513179 -0.005,-1.585704 -0.0468,-2.128543 -0.18913,-2.452901 -0.31326,-0.713947 -0.40996,-0.747111 -2.17873,-0.747111 h -1.59795 l -0.33342,0.333233 -0.33343,0.333219 0.002,2.459512 0.002,2.459512 0.29563,0.3127 c 0.29271,0.309629 0.43665,0.343462 1.7952,0.421857 0.19201,0.01064 0.70693,-0.01368 1.14429,-0.05502 z"
       id="path1430" />
    <path
       style="fill:#2c5aa0;stroke-width:0.116364"
       d="m 189.15547,88.570282 c -0.0433,-0.04332 -0.0789,-0.901242 -0.0789,-1.906444 0,-1.581585 0.0318,-1.899285 0.23539,-2.359778 0.46659,-1.054795 1.61536,-1.821407 2.73267,-1.823595 0.32044,-8.06e-4 0.76553,-0.05441 0.98911,-0.119615 0.22357,-0.0652 0.98112,-0.16559 1.68343,-0.223057 1.5041,-0.12311 1.69036,-0.251312 1.69036,-1.163725 0,-0.439336 -0.0599,-0.604851 -0.30028,-0.830735 -0.28805,-0.270614 -0.36612,-0.28212 -1.91678,-0.28212 -1.51134,0 -1.63319,0.01672 -1.87302,0.25654 -0.14865,0.148644 -0.28458,0.466664 -0.32323,0.756353 l -0.0667,0.499842 -1.20484,0.03329 c -0.78851,0.02173 -1.26098,-0.01368 -1.36729,-0.101528 -0.21563,-0.178965 -0.20566,-0.803483 0.0283,-1.76742 0.24593,-1.013516 0.73835,-1.549349 1.793,-1.951068 0.71198,-0.271207 0.87751,-0.285919 3.19455,-0.283822 2.0985,0.0015 2.49297,0.03055 2.79275,0.202934 0.19199,0.110343 0.4092,0.201019 0.48265,0.201415 0.18169,8.05e-4 1.20446,0.926669 1.20536,1.090938 3.9e-4,0.07235 0.0878,0.288685 0.19434,0.480691 0.14393,0.259596 0.19602,0.662333 0.20292,1.570916 0.008,1.050829 -0.0289,1.30325 -0.26362,1.803639 -0.29281,0.624214 -0.78906,1.221815 -1.01463,1.221815 -0.0761,0 -0.20091,0.07523 -0.27718,0.16708 -0.0763,0.09195 -0.30522,0.202661 -0.50879,0.24616 -0.20359,0.04347 -0.42789,0.12539 -0.49848,0.182066 -0.0705,0.05669 -0.54186,0.130406 -1.04728,0.16404 -0.76011,0.05061 -1.97752,0.220778 -3.37127,0.471436 -0.2347,0.04225 -0.57148,0.768481 -0.42452,0.915453 0.0356,0.03556 1.63998,0.06551 3.56533,0.06642 1.92535,8.05e-4 3.56809,0.04453 3.65053,0.09682 0.10974,0.06961 0.1409,0.404288 0.11643,1.249127 l -0.0336,1.154028 -4.95396,0.03025 c -2.72468,0.01672 -4.98942,-0.0046 -5.03277,-0.04848 z"
       id="path1617" />
    <path
       style="fill:#2c5aa0;stroke-width:0.116364"
       d="m 202.86586,88.655121 c -0.38399,-0.03982 -0.81255,-0.136485 -0.95235,-0.214986 -0.13983,-0.07843 -0.34067,-0.142565 -0.44639,-0.142565 -0.45096,0 -1.56856,-1.424247 -1.56856,-1.998944 0,-0.148644 -0.0777,-0.636753 -0.17252,-1.084737 -0.22333,-1.054369 -0.22333,-3.367365 0,-4.421735 0.0948,-0.447984 0.17252,-0.920028 0.17252,-1.049005 0,-0.377188 0.45146,-1.129011 0.94612,-1.575566 0.80078,-0.72293 1.46307,-0.866392 3.99938,-0.866392 1.90141,0 2.29239,0.03131 2.79276,0.22359 0.72328,0.27797 1.55205,0.928508 1.69816,1.332978 0.0606,0.167886 0.17466,0.431053 0.25335,0.584804 0.1032,0.201581 0.14302,1.19166 0.14287,3.549113 -1.4e-4,2.897237 -0.0233,3.309276 -0.20294,3.618617 -0.11156,0.192006 -0.20308,0.410412 -0.20348,0.485373 -0.001,0.250293 -1.00783,1.141732 -1.46718,1.299435 -0.93748,0.321849 -3.23908,0.441752 -4.99177,0.260066 z m 3.00846,-2.552042 c 0.65376,-0.07159 0.69242,-0.09469 0.96002,-0.57231 0.26478,-0.472606 0.27859,-0.598635 0.27403,-2.501826 -0.005,-1.827395 -0.0275,-2.049981 -0.26181,-2.523636 -0.32551,-0.657894 -0.61057,-0.738311 -2.42577,-0.684386 -1.27861,0.038 -1.36769,0.05654 -1.59618,0.331136 -0.34961,0.420322 -0.38512,0.74623 -0.34443,3.161909 0.0477,2.836594 0.0359,2.821091 2.18934,2.85541 0.288,0.0046 0.83017,-0.02523 1.2048,-0.06627 z"
       id="path1656" />
    <path
       style="fill:#2c5aa0;stroke:#2c5aa0;stroke-width:0.402134px;stroke-linecap:butt;stroke-linejoin:miter;stroke-opacity:1"
       d="m 0.88250327,77.506679 9.58898673,0.019 v 2.126659 l -3.569768,-0.019 -0.075994,8.791491 -2.2405891,0.038 v -8.715543 l -3.70268132,-0.038 z"
       id="path10027" />
  </g>
</svg>
