<?xml version="1.0" encoding="UTF-8" standalone="no"?>
<!-- Created with Inkscape (http://www.inkscape.org/) -->

<svg
   width="206.15906mm"
   height="8.4001074mm"
   viewBox="0 0 206.15906 8.4001074"
   version="1.1"
   id="svg5"
   inkscape:version="1.2.1 (9c6d41e410, 2022-07-14)"
   sodipodi:docname="2021.svg"
   xmlns:inkscape="http://www.inkscape.org/namespaces/inkscape"
   xmlns:sodipodi="http://sodipodi.sourceforge.net/DTD/sodipodi-0.dtd"
   xmlns="http://www.w3.org/2000/svg"
   xmlns:svg="http://www.w3.org/2000/svg">
  <sodipodi:namedview
     id="namedview7"
     pagecolor="#505050"
     bordercolor="#ffffff"
     borderopacity="1"
     inkscape:pageshadow="0"
     inkscape:pageopacity="0"
     inkscape:pagecheckerboard="1"
     inkscape:document-units="mm"
     showgrid="false"
     inkscape:zoom="2.1221114"
     inkscape:cx="-32.279173"
     inkscape:cy="107.91139"
     inkscape:window-width="1920"
     inkscape:window-height="1009"
     inkscape:window-x="-8"
     inkscape:window-y="-8"
     inkscape:window-maximized="1"
     inkscape:current-layer="layer1"
     fit-margin-top="0"
     fit-margin-left="0"
     fit-margin-right="0"
     fit-margin-bottom="0"
     inkscape:showpageshadow="2"
     inkscape:deskcolor="#505050" />
  <defs
     id="defs2" />
  <g
     inkscape:label="Layer 1"
     inkscape:groupmode="layer"
     id="layer1"
     transform="translate(-2.2557091,-116.13811)">
    <path
       style="fill:#ffe680;fill-opacity:1;stroke:none;stroke-width:0.124679;stroke-opacity:1"
       d="m 17.799671,116.27604 c -1.147218,0.12085 -2.588617,-0.26956 -3.502708,0.62997 -0.530204,0.40001 -0.69474,0.9829 -0.581641,1.62691 0.104537,1.59455 -0.203325,3.2638 0.266046,4.81282 0.466141,0.94552 1.604955,1.13074 2.553976,1.05393 2.212636,-0.0435 4.446473,0.13713 6.646965,-0.10861 0.925854,-0.26151 1.38048,-1.22402 1.3179,-2.13367 -0.02058,-1.58292 0.193157,-3.2149 -0.183367,-4.76606 -0.402161,-0.99114 -1.584549,-1.18556 -2.530112,-1.10702 -1.328917,-0.0153 -2.65806,-0.008 -3.987059,-0.008 z m -0.312185,1.29184 c 1.771867,0.0597 3.577664,-0.0992 5.333204,0.16729 0.451353,0.44203 0.120057,1.255 0.241567,1.80883 -0.05166,1.09743 0.116877,2.22507 -0.116887,3.29815 -0.600734,0.39417 -1.417884,0.14404 -2.105864,0.24341 -1.739562,-0.0589 -3.49952,0.22305 -5.206624,-0.12555 -0.771785,-0.40512 -0.417314,-1.49238 -0.515118,-2.18407 0.05872,-0.88356 -0.122557,-1.8641 0.08504,-2.68529 0.550159,-0.80715 1.475724,-0.42998 2.284685,-0.52277 z"
       id="path12255" />
    <path
       style="fill:#ffe680;fill-opacity:1;stroke:none;stroke-width:0.124679;stroke-opacity:1"
       d="m 2.4331923,116.3637 c -0.3712501,0.83705 0.1942941,1.44202 1.0657179,1.18788 1.1496674,0.10067 2.3898753,-0.11905 3.4897033,0.21622 0.2763334,2.14263 -0.012965,4.3494 0.1668515,6.4906 0.4510617,0.3325 1.6713173,0.27745 1.3509731,-0.61241 0.079216,-1.90143 -0.1507914,-3.82637 0.1054417,-5.7048 0.2714625,-0.62791 1.1545491,-0.30031 1.6709942,-0.3867 0.87689,-0.0487 1.801101,0.11052 2.645537,-0.0921 0.370716,-0.84341 -0.188132,-1.46465 -1.070975,-1.18786 -3.1095789,0.0345 -6.2486828,-0.0686 -9.3399554,0.0512 z"
       id="path12294" />
    <path
       style="fill:#ffe680;fill-opacity:1;stroke:none;stroke-width:0.124679;stroke-opacity:1"
       d="m 25.74822,116.3637 c -0.155782,2.42369 -0.02193,4.90056 -0.06672,7.34464 -0.300064,0.8632 1.024096,0.89712 1.379725,0.4954 0.116348,-1.01156 -0.119907,-2.09051 0.143214,-3.06789 1.031491,-0.18049 2.074674,-0.0512 3.121853,-0.0928 0.861824,0.73692 1.584703,1.62056 2.507953,2.25981 0.603062,0.60578 1.435899,1.45807 2.36306,0.97552 0.347808,-0.51132 -0.517266,-0.85245 -0.742474,-1.22122 -0.923387,-0.93044 -1.964354,-1.74444 -2.840836,-2.71981 1.012547,-1.22763 2.383544,-2.07346 3.404899,-3.29921 0.386511,-0.20817 0.342839,-0.82774 -0.162994,-0.75263 -1.201965,-0.14799 -1.922486,1.0838 -2.768364,1.71316 -0.644028,0.51081 -1.188879,1.26975 -1.886411,1.64223 -1.005932,-0.0633 -2.059744,0.12548 -3.025664,-0.12225 -0.232089,-1.04367 0.06329,-2.14898 -0.180932,-3.17737 -0.372137,-0.0992 -0.885484,-0.12845 -1.246304,0.0224 z"
       id="path12333" />
    <path
       style="fill:#ffe680;fill-opacity:1;stroke:none;stroke-width:0.124679;stroke-opacity:1"
       d="m 45.556153,116.27579 c -1.027367,0.10172 -1.523799,1.22824 -2.257573,1.81686 -0.658252,0.58453 -1.174324,1.45679 -2.015371,1.77352 -1.264298,-1.05366 -2.217857,-2.49246 -3.549465,-3.47933 -0.417613,-0.14633 -1.201838,-0.22082 -1.330804,0.2664 1.29399,1.78029 2.983537,3.22988 4.364749,4.94675 0.0586,0.90803 -0.117644,1.86648 0.08913,2.7427 0.65214,0.22601 1.627812,0.11181 1.313029,-0.82138 0.103053,-0.75477 -0.213981,-1.67448 0.169654,-2.31909 1.047271,-1.09936 2.09631,-2.19288 3.061049,-3.36136 0.308205,-0.43741 0.956908,-0.75539 0.990373,-1.32228 -0.144542,-0.29915 -0.566958,-0.22171 -0.834766,-0.24279 z"
       id="path12372" />
    <path
       style="fill:#ffe680;fill-opacity:1;stroke:none;stroke-width:0.124679;stroke-opacity:1"
       d="m 50.20557,116.27336 c -1.087726,0.0908 -2.585194,-0.21718 -3.294018,0.84207 -0.529264,1.33257 -0.183586,2.82765 -0.2815,4.22448 0.03802,0.96043 -0.163052,2.3212 0.924867,2.7953 1.109278,0.47526 2.390661,0.16913 3.563342,0.27239 1.654122,-0.0683 3.345595,0.14865 4.977918,-0.15988 0.56193,-0.25687 1.230567,-0.68309 1.172766,-1.39022 0.386379,-0.59431 0.142645,-1.43788 0.234788,-2.12223 -0.05293,-1.01946 0.13647,-2.1645 -0.249888,-3.09409 -0.163542,-0.99656 -1.380244,-1.40534 -2.278253,-1.34407 -1.589617,-0.036 -3.180114,-0.0169 -4.770022,-0.0238 z m 0.234992,1.27747 c 1.711952,0.0743 3.476908,-0.15713 5.143505,0.17826 0.602417,0.38403 0.09709,1.45836 0.247206,2.12425 -0.01252,0.97801 -0.02503,1.95602 -0.03754,2.93402 -1.014489,0.553 -2.26273,0.2243 -3.368527,0.33335 -1.267976,0.005 -2.535962,0.007 -3.803941,0.011 -0.83508,-0.3969 -0.760288,-1.20475 -0.713594,-1.99998 0.102933,-1.06226 -0.220737,-2.20998 0.228272,-3.20587 0.609388,-0.51192 1.57449,-0.3089 2.304618,-0.37501 z"
       id="path12411" />
    <path
       style="fill:#ffe680;fill-opacity:1;stroke:none;stroke-width:0.124679;stroke-opacity:1"
       d="m 66.608202,116.27531 c -1.203079,0.11885 -2.716263,-0.33597 -3.632258,0.70473 -0.752105,0.99332 -0.397375,2.36416 -0.504942,3.51951 0.05353,1.21313 -0.247703,2.83227 0.980525,3.58477 0.980006,0.56429 2.208199,0.20453 3.281111,0.32443 1.804839,-0.0793 3.657497,0.18094 5.432314,-0.21436 0.962234,-0.38984 1.294114,-1.50377 1.174091,-2.46217 -0.122367,-0.58471 0.288308,-1.48963 -0.264078,-1.84195 -1.306846,0.0574 -2.663251,-0.11606 -3.938355,0.0891 -0.226017,0.65214 -0.111815,1.62781 0.821373,1.31303 0.61817,0.0865 1.394447,-0.17911 1.916456,0.2311 0.245153,0.64412 -0.04497,1.60759 -0.864232,1.54266 -2.160976,0.066 -4.36322,0.15316 -6.516439,-0.0421 -0.753676,-0.22011 -0.220937,-1.30309 -0.38037,-1.91427 0,-1.08428 0,-2.16857 0,-3.25286 1.19671,-0.51995 2.567887,-0.20428 3.846063,-0.30488 1.168151,0.0719 2.404451,-0.12831 3.531687,0.18142 0.5076,0.15747 0.352978,0.91965 0.925354,0.92876 0.497946,0.15696 1.107847,-0.18822 0.901247,-0.76268 -0.228086,-0.98811 -1.170844,-1.65983 -2.179452,-1.5809 -1.50849,-0.0711 -3.020441,-0.034 -4.530095,-0.0433 z"
       id="path12450" />
    <path
       style="fill:#ffe680;fill-opacity:1;stroke:none;stroke-width:0.124679;stroke-opacity:1"
       d="m 78.469293,116.27555 c -1.213914,0.11788 -2.739171,-0.33782 -3.662455,0.71325 -0.719598,1.00498 -0.378244,2.3606 -0.489469,3.5144 0.05346,1.27361 -0.126931,2.59711 0.07744,3.839 0.651944,0.22681 1.628741,0.11259 1.31376,-0.82089 0.125778,-0.48257 -0.291306,-1.35286 0.307557,-1.59696 2.052301,-0.27806 4.151791,-0.0729 6.218119,-0.13108 0.413921,0.10442 1.237253,-0.16262 1.415079,0.36802 0.08092,0.71132 -0.116004,1.48901 0.09716,2.1814 0.665787,0.19755 1.767322,0.1805 1.437612,-0.82138 -0.06415,-1.94876 0.13171,-3.92083 -0.125557,-5.85627 -0.306939,-0.96025 -1.336463,-1.48356 -2.307725,-1.36777 -1.42679,-0.0343 -2.854427,-0.0177 -4.281526,-0.0217 z m -0.218189,1.2916 c 1.709509,0.07 3.459132,-0.1305 5.146673,0.18897 0.513776,0.35598 0.148193,1.15048 0.259175,1.6727 -0.05271,0.36989 0.209009,1.18821 -0.485157,1.00741 -2.399174,0.0548 -4.812648,0.15478 -7.199497,-0.0275 -0.444257,-0.51697 -0.190653,-1.33746 -0.247899,-1.95494 0.08148,-0.95003 1.292482,-0.92521 1.999496,-0.88347 0.173805,-10e-4 0.359302,-0.003 0.527209,-0.003 z"
       id="path12489" />
    <path
       style="fill:#ffe680;fill-opacity:1;stroke:none;stroke-width:0.124679;stroke-opacity:1"
       d="m 86.342351,116.3637 c -0.15578,2.42369 -0.02193,4.90056 -0.06672,7.34464 -0.300066,0.8632 1.024095,0.89712 1.379723,0.4954 0.106751,-1.96008 -0.100795,-4.07381 0.113019,-5.96474 1.134899,1.09012 1.94889,2.46449 3.072906,3.54776 0.43726,0.58443 0.884923,1.24203 1.51685,1.61523 1.000667,-0.86673 1.806448,-2.00028 2.712505,-2.98256 0.428167,-0.68104 1.096913,-1.20159 1.502726,-1.89283 0.195926,-0.3643 0.632479,-0.18879 0.516981,0.21112 0.09293,1.83623 -0.04633,3.69886 0.08357,5.52068 0.451062,0.3325 1.671318,0.27745 1.350973,-0.61241 -0.03465,-2.40302 0.06873,-4.83568 -0.05118,-7.2204 -0.44821,-0.28024 -1.179062,-0.16993 -1.725498,-0.0619 -0.832237,0.48834 -1.156387,1.4782 -1.878469,2.09861 -0.701028,0.94104 -1.560887,1.66507 -2.214762,2.62484 -0.473141,0.49917 -0.872739,-0.40381 -1.155718,-0.67259 -1.173248,-1.3302 -2.189833,-2.82297 -3.502466,-4.01652 -0.501061,-0.19696 -1.157774,-0.17261 -1.654435,-0.0343 z"
       id="path12528" />
    <path
       style="fill:#ffe680;fill-opacity:1;stroke:none;stroke-width:0.124679;stroke-opacity:1"
       d="m 99.558355,116.3637 c -0.15578,2.42369 -0.02193,4.90056 -0.06672,7.34464 -0.235707,1.03865 1.033025,0.62559 1.636165,0.70107 2.69398,-0.0345 5.41752,0.0687 8.09317,-0.0512 0.48223,-0.61655 0.0201,-1.56603 -0.8593,-1.223 -2.36833,-0.0796 -4.75304,0.0761 -7.11187,-0.16109 -0.64332,-0.0849 -0.24967,-0.93102 -0.35114,-1.35297 -0.0991,-0.75385 0.92947,-0.49166 1.37683,-0.57298 1.76152,-0.046 3.57343,0.0671 5.32465,-0.0563 0.33249,-0.45106 0.27744,-1.67132 -0.61241,-1.35097 -1.96181,-0.0752 -3.94606,0.15057 -5.88696,-0.11811 -0.43313,-0.24945 -0.0883,-0.94992 -0.20723,-1.34493 -0.0752,-0.68245 0.86696,-0.47432 1.28211,-0.55886 2.34512,-0.0876 4.72092,0.0195 7.04734,-0.12904 0.47997,-0.62036 0.015,-1.56619 -0.86379,-1.2154 -2.90177,0.0345 -5.83309,-0.0686 -8.716555,0.0512 z"
       id="path12567" />
    <path
       style="fill:#ffe680;fill-opacity:1;stroke:none;stroke-width:0.124679;stroke-opacity:1"
       d="m 118.62649,116.27531 c -1.08174,0.12824 -2.3471,-0.25995 -3.31301,0.37671 -1.004,0.67496 -0.7232,2.0541 -0.65335,3.0768 0.14892,0.96086 1.1679,1.32365 2.02994,1.27773 2.33764,0.13613 4.70409,-0.10623 7.02124,0.17557 0.18313,0.51722 0.0494,1.08824 0.0928,1.62716 -1.22446,0.54904 -2.6345,0.21911 -3.93324,0.32266 -1.16872,-0.0767 -2.40024,0.15512 -3.53461,-0.18288 -0.53067,-0.12503 -0.20601,-0.91451 -0.80238,-0.92755 -0.50215,-0.14531 -1.12349,0.15008 -0.95043,0.75173 0.1092,1.11367 1.2776,1.75176 2.31771,1.61321 2.3399,-0.0179 4.70134,0.15253 7.02836,-0.13289 0.9517,-0.13812 1.41698,-1.14023 1.27538,-2.02092 -0.0234,-0.77884 0.22099,-1.70722 -0.59671,-2.16997 -0.58945,-0.78172 -1.69232,-0.2804 -2.52597,-0.42175 -1.97517,-0.0787 -3.97757,0.16443 -5.92957,-0.14782 -0.40035,-0.27488 -0.0564,-0.935 -0.12005,-1.34834 0.14085,-0.68095 1.12531,-0.51623 1.65221,-0.5777 1.90147,0.0309 3.82187,-0.14084 5.71044,0.12185 0.41352,0.0482 0.42601,0.40369 0.46414,0.72445 0.30781,0.45665 1.42219,0.38096 1.34517,-0.31949 0.0915,-1.04295 -0.93202,-1.91675 -1.94884,-1.77449 -1.54209,-0.06 -3.0863,-0.0402 -4.62921,-0.0441 z"
       id="path12606" />
    <path
       style="fill:#ffe680;fill-opacity:1;stroke:none;stroke-width:0.124679;stroke-opacity:1"
       d="m 126.48908,116.3637 c -0.15578,2.42369 -0.0219,4.90056 -0.0667,7.34464 -0.30007,0.8632 1.02409,0.89712 1.37972,0.4954 0.1008,-1.00936 -0.0925,-2.10497 0.12373,-3.06959 2.57639,-0.13855 5.16428,-0.13327 7.73937,-0.0166 0.56516,0.0558 0.25848,0.898 0.35627,1.24558 0.10358,0.65276 -0.23296,1.53797 0.20689,2.02382 0.75843,0.21572 1.48451,-0.0896 1.19648,-0.99035 -0.0347,-2.3199 0.0688,-4.66946 -0.0512,-6.97105 -0.45107,-0.33249 -1.67132,-0.27744 -1.35098,0.61241 -0.0843,0.82049 0.1682,1.73098 -0.17143,2.48896 -2.21299,0.2307 -4.46086,0.0731 -6.68833,0.0929 -0.39839,-0.0631 -0.97463,0.0774 -1.27288,-0.14359 -0.1704,-1.02591 0.0703,-2.12105 -0.15463,-3.135 -0.37214,-0.0992 -0.88549,-0.12845 -1.24631,0.0224 z"
       id="path12645" />
    <path
       style="fill:#ffe680;fill-opacity:1;stroke:none;stroke-width:0.124679;stroke-opacity:1"
       d="m 142.77385,116.27628 c -1.11812,0.1041 -2.35162,-0.18468 -3.39824,0.30293 -1.17046,0.72327 -0.89655,2.31949 -0.98046,3.48688 0.0334,1.02352 -0.10302,2.12071 0.24992,3.07826 0.19275,0.93553 1.26405,1.28578 2.11613,1.20808 2.33661,0.0124 4.69056,0.16803 7.01809,-0.0706 1.0318,-0.18077 1.61867,-1.30601 1.4822,-2.29193 -0.0624,-1.49859 0.17805,-3.04647 -0.16577,-4.51454 -0.34768,-0.98097 -1.43737,-1.19285 -2.35624,-1.17057 -1.32133,-0.0436 -2.6438,-0.0267 -3.96563,-0.0285 z m 2.88808,1.27626 c 0.70057,0.0829 1.89493,-0.19085 2.13294,0.70863 0.12613,1.43413 0.12919,2.8965 -0.0292,4.33065 -0.35213,0.73256 -1.35872,0.41151 -2.00167,0.52162 -1.80325,-0.0287 -3.62857,0.13586 -5.41943,-0.11909 -0.65051,-0.32311 -0.13999,-1.31756 -0.30147,-1.92206 0,-1.07178 0,-2.14357 0,-3.21536 1.19671,-0.51996 2.56789,-0.20427 3.84607,-0.30488 0.59279,7e-5 1.18493,-0.004 1.77278,5.3e-4 z"
       id="path12684" />
    <path
       style="fill:#ffe680;fill-opacity:1;stroke:none;stroke-width:0.124679;stroke-opacity:1"
       d="m 156.47883,116.27579 c -0.52268,-0.0602 -1.20672,0.14958 -1.16156,0.78534 -0.21708,0.81443 -0.76257,1.53416 -0.89808,2.35161 -0.25705,0.30588 -0.14313,0.73814 -0.41373,1.03762 -0.0347,0.31206 -0.36832,0.51529 -0.29125,0.88736 -0.0154,0.30297 -0.3819,1.00315 -0.65018,0.45391 -0.26988,-1.24508 -0.99962,-2.35769 -1.35356,-3.58955 -0.4129,-0.57911 -0.22031,-1.60488 -0.99051,-1.88927 -0.41464,-0.10119 -1.42278,-0.0895 -1.18421,0.57177 0.35041,0.24131 0.0863,0.80532 0.45148,1.03907 0.0399,0.35804 0.34214,0.55452 0.29489,0.94411 0.40348,0.73691 0.75133,1.58022 1.0683,2.39423 0.13352,0.59909 0.51084,1.11994 0.59978,1.72944 0.23387,0.18575 0.20061,0.53805 0.39887,0.76634 -0.0937,0.78498 0.91634,0.7304 1.42188,0.57834 0.58164,-0.46943 0.68502,-1.32711 1.04395,-1.96297 0.13932,-0.32297 0.3679,-0.63375 0.35602,-1.01326 0.27709,-0.23832 0.13727,-0.64341 0.42615,-0.87202 0.11032,-0.71378 0.43597,-1.43207 0.8613,-2.00802 0.2296,-0.1164 0.17288,0.38019 0.39109,0.44855 0.28568,0.87935 0.77324,1.69725 1.02057,2.59416 0.39367,0.38515 0.2051,1.04404 0.59539,1.38121 0.0451,0.37708 0.32874,0.63412 0.31779,1.03299 0.33704,0.67757 1.75054,0.70515 1.85606,-0.17046 0.1095,-0.61007 0.64728,-0.99642 0.64483,-1.61645 0.25573,-0.42727 0.40674,-0.92525 0.51746,-1.38438 0.19609,-0.25283 0.16826,-0.55541 0.40351,-0.77632 0.15686,-1.19578 1.06042,-2.1893 1.20418,-3.3846 -0.22351,-0.51883 -1.16756,-0.43458 -1.45841,0.005 -0.33253,0.5854 -0.52972,1.23024 -0.84158,1.78861 0.0228,0.46208 -0.30979,0.80957 -0.32729,1.2597 -0.19636,0.26953 -0.2169,0.56302 -0.41884,0.82283 -0.001,0.44691 -0.3623,0.75422 -0.33825,1.22049 -0.11918,0.38002 -0.49382,0.39344 -0.5009,-0.0197 -0.26686,-0.18044 -0.10897,-0.62315 -0.40546,-0.79264 -0.16738,-0.8811 -0.70568,-1.65915 -0.9273,-2.53571 -0.25679,-0.35787 -0.15139,-0.84319 -0.44246,-1.17325 -0.0351,-0.3516 -0.27471,-0.67028 -0.5613,-0.84938 -0.22911,-0.0678 -0.47255,-0.0527 -0.70863,-0.0545 z"
       id="path12760" />
    <path
       style="fill:#ffe680;fill-opacity:1;stroke:none;stroke-width:0.124679;stroke-opacity:1"
       d="m 173.8655,116.25534 c -1.47162,0.0746 -3.00447,-0.097 -4.43829,0.2703 -0.6323,0.37551 -1.19305,1.43574 -0.64969,2.06476 0.52617,0.25658 1.33433,0.0432 1.22,-0.66407 0.85201,-0.60633 2.0324,-0.25874 3.00716,-0.37301 1.48828,0.0659 3.01711,-0.15355 4.47604,0.19184 0.57172,0.20962 0.27329,1.50741 0.13125,1.83694 -2.46883,0.0702 -4.95716,-0.0653 -7.41403,0.19299 -0.52608,0.15828 -1.05724,0.37675 -1.41084,0.84873 -0.47737,0.62183 -0.10655,1.55082 -0.22315,2.29845 -0.0356,0.69706 -0.17807,1.81348 0.8881,1.48714 3.27582,-0.0344 6.58115,0.0685 9.83868,-0.0512 0.48171,-0.61872 0.0241,-1.58059 -0.86177,-1.22629 -2.65811,-0.0554 -5.326,0.11753 -7.97168,-0.11592 -0.78966,-0.0875 -0.43025,-1.00581 -0.4639,-1.56823 0.25958,-0.25795 0.8993,-0.0489 1.2872,-0.13543 2.18183,-0.0851 4.38824,0.10054 6.55786,-0.15873 0.39421,-0.17496 0.90123,-0.2407 1.1299,-0.69889 0.23753,-0.31176 0.19854,-0.6941 0.41325,-0.9967 0.12789,-0.62736 0.072,-1.30787 -0.19189,-1.86654 -0.19016,-0.94144 -1.24572,-1.34714 -2.11789,-1.27086 -1.06765,-0.0571 -2.1374,-0.0645 -3.20631,-0.0653 z"
       id="path12838" />
    <path
       style="fill:#ffe680;fill-opacity:1;stroke:none;stroke-width:0.124679;stroke-opacity:1"
       d="m 184.49587,116.27604 c -1.14721,0.12085 -2.58861,-0.26956 -3.5027,0.62997 -0.5294,0.39989 -0.69512,0.98209 -0.58468,1.62594 0.0464,1.55386 -0.0924,3.1423 0.0687,4.67475 0.49155,0.55906 1.04516,1.29086 1.89575,1.13574 2.47549,0.0351 4.96694,0.16615 7.43523,-0.0338 0.95495,-0.23801 1.50604,-1.20792 1.4321,-2.15803 -0.0249,-1.57627 0.20505,-3.20794 -0.19432,-4.74828 -0.4199,-0.95322 -1.55145,-1.20539 -2.4967,-1.1165 -1.35098,-0.0177 -2.70226,-0.009 -4.05335,-0.01 z m 1.12894,1.27772 c 1.07027,0.0437 2.20812,-0.0659 3.24969,0.11201 0.0602,0.5615 -0.81863,0.59206 -1.13034,0.89521 -0.81182,0.45663 -1.67822,0.87141 -2.51263,1.23822 -0.16729,0.1236 -0.45997,0.1892 -0.62023,0.34336 -0.57654,0.19344 -1.01885,0.71373 -1.61426,0.92924 -0.35507,0.15911 -0.77915,0.4447 -1.14135,0.40911 -0.0602,-1.17908 -0.069,-2.34628 0.0285,-3.52535 1.0544,-0.63943 2.38144,-0.29403 3.54679,-0.40146 0.0646,9e-5 0.12922,-2.6e-4 0.19384,-2.6e-4 z m 4.0153,1.62156 c 0.2559,1.06905 0.0148,2.26719 0.0648,3.39624 -0.14034,0.66736 -1.13526,0.46185 -1.68443,0.53383 -1.72206,-0.0394 -3.48021,0.1534 -5.18028,-0.0959 -0.3828,-0.35973 0.43669,-0.29675 0.54353,-0.53817 0.91331,-0.62867 2.01987,-1.0588 2.96916,-1.66661 0.3828,-0.005 0.58417,-0.30934 0.93948,-0.38499 0.1591,-0.21825 0.53331,-0.12989 0.66431,-0.42201 0.51536,-0.23246 0.97331,-0.53266 1.47837,-0.72129 0.058,-0.0837 0.0871,-0.13062 0.20504,-0.10106 z"
       id="path12877" />
    <path
       style="fill:#ffe680;fill-opacity:1;stroke:none;stroke-width:0.124679;stroke-opacity:1"
       d="m 196.37377,116.27652 c -1.11068,0.10807 -2.41492,-0.21502 -3.38242,0.47315 -0.45344,0.43869 -0.94704,1.39488 -0.33872,1.87238 0.45632,0.14936 1.12365,0.0703 1.1808,-0.50285 0.41879,-0.88076 1.52002,-0.38559 2.29402,-0.52819 1.69646,0.022 3.40143,-0.12605 5.08446,0.0648 0.79696,0.28429 0.75587,1.36115 0.42566,1.98318 -2.54317,0.0565 -5.10735,-0.11939 -7.63855,0.13296 -0.43568,0.17029 -0.92331,0.32703 -1.21388,0.75697 -0.7658,0.62438 -0.26801,1.72935 -0.40744,2.58039 -0.15039,0.78126 0.0298,1.60939 1.01277,1.30012 3.23427,-0.0345 6.49804,0.0685 9.714,-0.0512 0.4822,-0.61674 0.0203,-1.56717 -0.85955,-1.22305 -2.66251,-0.0214 -5.32503,-0.0428 -7.98754,-0.0644 -0.49945,-0.35088 -0.61772,-1.11823 -0.37744,-1.61717 1.6593,-0.33721 3.38189,-0.075 5.07142,-0.1654 0.969,-0.0507 1.97344,0.0676 2.9212,-0.14874 0.45343,-0.23679 1.029,-0.55294 1.13161,-1.13039 0.43196,-0.54636 0.19841,-1.37998 0.17923,-2.03188 -0.1366,-1.14514 -1.33857,-1.84684 -2.43027,-1.68658 -1.45957,-0.0257 -2.91962,-0.0133 -4.37936,-0.0141 z m 5.6298,4.6672 c -0.0354,0.11658 0.0128,-0.0645 0,0 z"
       id="path12916" />
    <path
       style="fill:#ffe680;fill-opacity:1;stroke:none;stroke-width:0.124679;stroke-opacity:1"
       d="m 207.8126,117.8282 c -0.0543,1.66482 -0.10173,3.36851 0.0214,5.02516 0.68238,0.38101 0.47187,-0.68536 0.50845,-1.04979 0.005,-1.31001 0.0316,-2.62304 -0.0302,-3.9313 -0.0916,-0.2299 -0.37187,-0.25662 -0.49969,-0.0441 z"
       id="path12955" />
    <path
       style="fill:#ffe680;fill-opacity:1;stroke:none;stroke-width:0.124679;stroke-opacity:1"
       d="m 206.45672,116.36979 c -0.81247,0.9868 -1.66778,1.98243 -2.41177,2.99547 0.36874,0.46517 1.28726,0.36757 1.72116,-0.0555 0.41794,-0.29905 0.75345,-0.74538 1.0532,-1.1265 0.25156,0.1175 0.0218,0.67841 0.12395,0.92925 0.0686,1.71192 -0.0505,3.44958 0.0731,5.14591 0.34895,0.34059 1.34869,0.20398 1.22459,-0.4775 0.0555,-0.71501 -0.40586,-1.31572 -0.29412,-2.04183 0.004,-1.28411 -0.0853,-2.58312 0.0715,-3.85901 0.33504,-0.41207 0.26159,-1.07375 0.13515,-1.53876 -0.51526,-0.0904 -1.19675,-0.1455 -1.6968,0.0285 z"
       id="path12994" />
  </g>
</svg>
