<?xml version="1.0" encoding="UTF-8" standalone="no"?>
<!-- Created with Inkscape (http://www.inkscape.org/) -->

<svg
   width="352.36334mm"
   height="14.059267mm"
   viewBox="0 0 352.36335 14.059267"
   version="1.1"
   id="svg15782"
   inkscape:version="1.1.2 (b8e25be833, 2022-02-05)"
   sodipodi:docname="2022.svg"
   xmlns:inkscape="http://www.inkscape.org/namespaces/inkscape"
   xmlns:sodipodi="http://sodipodi.sourceforge.net/DTD/sodipodi-0.dtd"
   xmlns="http://www.w3.org/2000/svg"
   xmlns:svg="http://www.w3.org/2000/svg">
  <sodipodi:namedview
     id="namedview15784"
     pagecolor="#505050"
     bordercolor="#ffffff"
     borderopacity="1"
     inkscape:pageshadow="0"
     inkscape:pageopacity="0"
     inkscape:pagecheckerboard="1"
     inkscape:document-units="mm"
     showgrid="false"
     inkscape:zoom="4.9085694"
     inkscape:cx="760.20113"
     inkscape:cy="-16.094302"
     inkscape:window-width="1920"
     inkscape:window-height="1027"
     inkscape:window-x="-8"
     inkscape:window-y="-8"
     inkscape:window-maximized="1"
     inkscape:current-layer="layer1"
     fit-margin-top="0"
     fit-margin-left="0"
     fit-margin-right="0"
     fit-margin-bottom="0" />
  <defs
     id="defs15779" />
  <g
     inkscape:label="Layer 1"
     inkscape:groupmode="layer"
     id="layer1"
     transform="translate(-2.9659693,-98.287147)">
    <path
       class="cls-2"
       d="m 105.01267,112.0766 h 11.64167 a 2.8336875,2.8336875 0 0 0 2.11666,-0.86784 2.9580416,2.9580416 0 0 0 0.86254,-2.13518 v -4.2598 h -6.68337 v 2.11667 h 4.23333 a 0.39952083,0.39952083 0 0 1 0.39423,0.40217 v 1.73037 a 0.90222916,0.90222916 0 0 1 -0.26458,0.64823 0.87312499,0.87312499 0 0 1 -0.63765,0.26458 h -11.66283 a 0.86254166,0.86254166 0 0 1 -0.635,-0.26458 0.90222916,0.90222916 0 0 1 -0.26458,-0.64823 v -7.40833 a 0.90752082,0.90752082 0 0 1 0.26458,-0.65088 0.86254166,0.86254166 0 0 1 0.635,-0.26458 h 11.64167 a 0.86254166,0.86254166 0 0 1 0.63764,0.26458 0.90752082,0.90752082 0 0 1 0.26459,0.65088 v 0.762 h 2.05316 v -0.77258 a 2.9553958,2.9553958 0 0 0 -0.83873,-2.13519 2.8495625,2.8495625 0 0 0 -2.11666,-0.87842 h -11.64167 a 2.8336875,2.8336875 0 0 0 -2.09021,0.87842 2.9580416,2.9580416 0 0 0 -0.86254,2.13519 v 7.40833 a 2.9606875,2.9606875 0 0 0 0.86254,2.15635 2.8389791,2.8389791 0 0 0 2.09021,0.86784 z"
       id="path8"
       style="fill:#5f5fd3;fill-opacity:1;stroke:#5f5fd3;stroke-width:0.4445px;stroke-miterlimit:10;stroke-opacity:1" />
    <path
       class="cls-2"
       d="m 123.76634,108.1978 a 0.39422916,0.39422916 0 0 1 0.38893,-0.39952 h 12.6709 a 0.396875,0.396875 0 0 1 0.39423,0.39952 v 0 3.8788 h 2.05317 v -10.43252 a 2.9580416,2.9580416 0 0 0 -0.86255,-2.13519 2.841625,2.841625 0 0 0 -2.0955,-0.87842 h -11.64166 a 2.8389791,2.8389791 0 0 0 -2.09286,0.87842 2.9580416,2.9580416 0 0 0 -0.86254,2.13519 v 10.43252 h 2.05317 z m 0,-6.55372 a 0.90752082,0.90752082 0 0 1 0.26458,-0.65088 0.86254166,0.86254166 0 0 1 0.63765,-0.26458 h 11.64166 a 0.86254166,0.86254166 0 0 1 0.63765,0.26458 0.90752082,0.90752082 0 0 1 0.26458,0.65088 v 3.65918 a 0.39952083,0.39952083 0 0 1 -0.39423,0.40217 h -12.66031 a 0.396875,0.396875 0 0 1 -0.39158,-0.40217 v 0 z"
       id="path10"
       style="fill:#5f5fd3;fill-opacity:1;stroke:#5f5fd3;stroke-width:0.4445px;stroke-miterlimit:10;stroke-opacity:1" />
    <path
       class="cls-2"
       d="m 163.4459,112.0766 h 16.0311 v -2.09286 h -13.58635 a 0.396875,0.396875 0 0 1 -0.39158,-0.40216 v 0 -2.77019 a 0.396875,0.396875 0 0 1 0.39158,-0.39952 h 10.84791 v -2.11667 h -10.84791 a 0.396875,0.396875 0 0 1 -0.39158,-0.40217 v 0 -2.77018 a 0.396875,0.396875 0 0 1 0.39158,-0.39952 H 179.477 v -2.09286 h -16.0311 z"
       id="path12"
       style="fill:#5f5fd3;fill-opacity:1;stroke:#5f5fd3;stroke-width:0.4445px;stroke-miterlimit:10;stroke-opacity:1" />
    <path
       class="cls-2"
       d="m 202.9085,98.63047 h -11.64166 a 2.8389791,2.8389791 0 0 0 -2.11667,0.87842 2.9474583,2.9474583 0 0 0 -0.86254,2.13519 v 1.75418 a 2.9315833,2.9315833 0 0 0 0.86254,2.13519 2.8389791,2.8389791 0 0 0 2.09285,0.87842 h 11.64167 a 0.87841666,0.87841666 0 0 1 0.63764,0.26458 0.84402082,0.84402082 0 0 1 0.26459,0.635 v 1.75683 a 0.90222916,0.90222916 0 0 1 -0.26459,0.64823 0.87312499,0.87312499 0 0 1 -0.63764,0.26459 h -11.64167 a 0.87312499,0.87312499 0 0 1 -0.63764,-0.26459 0.90222916,0.90222916 0 0 1 -0.26459,-0.64823 v -0.73554 h -2.05316 v 0.73554 a 2.9448125,2.9448125 0 0 0 0.86254,2.14048 2.8389791,2.8389791 0 0 0 2.09285,0.87842 h 11.64167 a 2.841625,2.841625 0 0 0 2.0955,-0.87842 2.9553958,2.9553958 0 0 0 0.85989,-2.13518 v -1.75684 a 2.9501041,2.9501041 0 0 0 -0.85989,-2.13254 2.8442708,2.8442708 0 0 0 -2.07169,-0.889 h -11.64166 a 0.87841666,0.87841666 0 0 1 -0.63765,-0.26458 0.86254166,0.86254166 0 0 1 -0.26458,-0.63765 v -1.74889 a 0.90752082,0.90752082 0 0 1 0.26458,-0.65088 0.86254166,0.86254166 0 0 1 0.63765,-0.26458 h 11.64166 a 0.86254166,0.86254166 0 0 1 0.63765,0.26458 0.90752082,0.90752082 0 0 1 0.26458,0.65088 v 0.73554 h 2.05317 v -0.73554 a 2.9553958,2.9553958 0 0 0 -0.8599,-2.13519 2.841625,2.841625 0 0 0 -2.0955,-0.87842 z"
       id="path14"
       style="fill:#5f5fd3;fill-opacity:1;stroke:#5f5fd3;stroke-width:0.4445px;stroke-miterlimit:10;stroke-opacity:1" />
    <path
       class="cls-2"
       d="m 223.8635,103.89303 a 0.396875,0.396875 0 0 1 -0.39158,0.40217 h -13.081 a 0.396875,0.396875 0 0 1 -0.39159,-0.40217 v 0 -5.26256 h -2.06375 v 13.44613 h 2.05317 v -5.26521 a 0.396875,0.396875 0 0 1 0.39158,-0.39952 h 13.081 a 0.396875,0.396875 0 0 1 0.39159,0.39952 v 5.26521 h 2.07433 V 98.63047 h -2.06375 z"
       id="path16"
       style="fill:#5f5fd3;fill-opacity:1;stroke:#5f5fd3;stroke-width:0.4445px;stroke-miterlimit:10;stroke-opacity:1" />
    <path
       class="cls-2"
       d="m 244.73383,99.50889 a 2.841625,2.841625 0 0 0 -2.0955,-0.87842 h -11.64166 a 2.8389791,2.8389791 0 0 0 -2.09286,0.87842 2.9448125,2.9448125 0 0 0 -0.85989,2.13519 v 7.40833 a 2.9474583,2.9474583 0 0 0 0.86254,2.13519 2.8389791,2.8389791 0 0 0 2.09285,0.87841 h 11.64167 a 2.841625,2.841625 0 0 0 2.0955,-0.87841 2.9553958,2.9553958 0 0 0 0.8599,-2.13519 v -7.40833 a 2.9553958,2.9553958 0 0 0 -0.8599,-2.13519 z m -14.64468,2.13519 a 0.90752082,0.90752082 0 0 1 0.26458,-0.65088 0.86254166,0.86254166 0 0 1 0.63765,-0.26458 h 11.64166 a 0.86254166,0.86254166 0 0 1 0.63765,0.26458 0.90752082,0.90752082 0 0 1 0.26458,0.65088 v 7.40833 a 0.90222916,0.90222916 0 0 1 -0.26458,0.64823 0.87312499,0.87312499 0 0 1 -0.63765,0.26458 h -11.64166 a 0.87312499,0.87312499 0 0 1 -0.63765,-0.26458 0.90222916,0.90222916 0 0 1 -0.26458,-0.64823 z"
       id="path18"
       style="fill:#5f5fd3;fill-opacity:1;stroke:#5f5fd3;stroke-width:0.4445px;stroke-miterlimit:10;stroke-opacity:1" />
    <path
       class="cls-2"
       d="m 143.41959,101.86633 a 0.28045833,0.28045833 0 0 1 0.1852,-0.26459 0.26458333,0.26458333 0 0 1 0.31486,0.0847 l 7.40833,8.97202 0.0344,0.0397 7.43479,-9.01436 a 0.26458333,0.26458333 0 0 1 0.31485,-0.0873 0.28575,0.28575 0 0 1 0.18786,0.26458 v 10.21027 h 2.05316 V 98.63052 h -2.7596 l -6.93208,8.4164 a 0.3889375,0.3889375 0 0 1 -0.60325,0 l -6.9215,-8.40052 -0.0132,-0.0159 h -2.75696 v 13.44613 h 2.05317 z"
       id="path20"
       style="fill:#5f5fd3;fill-opacity:1;stroke:#5f5fd3;stroke-width:0.4445px;stroke-miterlimit:10;stroke-opacity:1" />
    <path
       class="cls-2"
       d="m 267.0091,98.63047 -3.64066,9.83986 a 0.28310416,0.28310416 0 0 1 -0.36513,0.16404 0.2778125,0.2778125 0 0 1 -0.16404,-0.16404 l -3.63273,-9.81075 v -0.0291 h -2.83633 l -3.64067,9.83986 a 0.28310416,0.28310416 0 0 1 -0.36512,0.16404 0.2778125,0.2778125 0 0 1 -0.16404,-0.16404 l -3.63273,-9.81075 v -0.0291 h -2.48973 l 5.24933,13.41702 v 0.0291 h 2.16429 l 4.02696,-10.26319 a 0.28310416,0.28310416 0 0 1 0.36513,-0.16404 0.2778125,0.2778125 0 0 1 0.16404,0.16404 l 4.00843,10.23408 v 0.0291 h 2.06905 L 269.393,98.63047 Z"
       id="path22"
       style="fill:#5f5fd3;fill-opacity:1;stroke:#5f5fd3;stroke-width:0.4445px;stroke-miterlimit:10;stroke-opacity:1" />
    <path
       class="cls-2"
       d="M 292.65959,98.50977 H 280.9068 a 2.8548541,2.8548541 0 0 0 -2.11666,0.889 3.0188958,3.0188958 0 0 0 -0.8599,2.16959 v 0.73554 h 2.07433 v -0.73554 a 0.90222916,0.90222916 0 0 1 0.26459,-0.64823 0.86254166,0.86254166 0 0 1 0.635,-0.26459 h 11.75543 a 0.87047916,0.87047916 0 0 1 0.635,0.26459 0.90222916,0.90222916 0 0 1 0.26459,0.64823 v 1.94733 a 0.90222916,0.90222916 0 0 1 -0.26459,0.64823 0.86254166,0.86254166 0 0 1 -0.635,0.26458 H 280.9068 a 2.8627916,2.8627916 0 0 0 -2.11666,0.87842 2.9712708,2.9712708 0 0 0 -0.8599,2.15635 v 4.49792 h 17.70592 v -2.11667 H 280.9068 a 0.86254166,0.86254166 0 0 1 -0.635,-0.26458 0.90222916,0.90222916 0 0 1 -0.26458,-0.64823 v -1.44727 a 0.90222916,0.90222916 0 0 1 0.26458,-0.64823 0.86254166,0.86254166 0 0 1 0.635,-0.26458 h 11.75279 a 2.8601458,2.8601458 0 0 0 2.10344,-0.889 2.9553958,2.9553958 0 0 0 0.87313,-2.14313 v -1.94733 a 2.9950833,2.9950833 0 0 0 -0.87313,-2.16958 2.8680833,2.8680833 0 0 0 -2.10344,-0.91282 z"
       id="path24"
       style="fill:#5f5fd3;fill-opacity:1;stroke:#5f5fd3;stroke-width:0.4445px;stroke-miterlimit:10;stroke-opacity:1" />
    <path
       class="cls-2"
       d="m 312.45836,98.50977 h -11.75279 a 2.8548541,2.8548541 0 0 0 -2.11666,0.889 3.0188958,3.0188958 0 0 0 -0.8599,2.16959 v 7.35277 a 2.9739166,2.9739166 0 0 0 0.8599,2.14312 2.841625,2.841625 0 0 0 2.11666,0.89165 h 11.75279 a 2.841625,2.841625 0 0 0 2.1008,-0.89165 2.9553958,2.9553958 0 0 0 0.87312,-2.14312 v -7.35277 a 2.9950833,2.9950833 0 0 0 -0.87312,-2.16959 2.8495625,2.8495625 0 0 0 -2.1008,-0.889 z m 0.508,4.55877 a 0.3730625,0.3730625 0 0 1 0.20373,0.0582 0.396875,0.396875 0 0 1 0.18786,0.34396 v 5.45042 a 0.90222916,0.90222916 0 0 1 -0.26459,0.64823 0.87047916,0.87047916 0 0 1 -0.635,0.26458 h -11.1125 a 0.28045833,0.28045833 0 0 1 -0.26458,-0.22225 0.28575,0.28575 0 0 1 0.14552,-0.32544 l 11.58081,-6.17802 a 0.41274999,0.41274999 0 0 1 0.15875,-0.0397 z m -1.02922,-1.87325 -11.557,6.17802 a 0.38629166,0.38629166 0 0 1 -0.3863,0 0.40481249,0.40481249 0 0 1 -0.1905,-0.34395 v -5.45042 a 0.90222916,0.90222916 0 0 1 0.26459,-0.64823 0.86254166,0.86254166 0 0 1 0.63764,-0.26458 h 11.1125 a 0.26458333,0.26458333 0 0 1 0.26459,0.2196 0.28575,0.28575 0 0 1 -0.14552,0.32544 z"
       id="path26"
       style="fill:#5f5fd3;fill-opacity:1;stroke:#5f5fd3;stroke-width:0.4445px;stroke-miterlimit:10;stroke-opacity:1" />
    <path
       class="cls-2"
       d="m 332.25714,98.50977 h -11.7528 a 2.8548541,2.8548541 0 0 0 -2.11666,0.889 3.0188958,3.0188958 0 0 0 -0.8599,2.16959 v 0.73554 h 2.07433 v -0.73554 a 0.90222916,0.90222916 0 0 1 0.26459,-0.64823 0.86254166,0.86254166 0 0 1 0.63764,-0.26459 h 11.7528 a 0.87047916,0.87047916 0 0 1 0.635,0.26459 0.90222916,0.90222916 0 0 1 0.26458,0.64823 v 1.94733 a 0.90222916,0.90222916 0 0 1 -0.26458,0.64823 0.87047916,0.87047916 0 0 1 -0.635,0.26458 h -11.7528 a 2.8627916,2.8627916 0 0 0 -2.11666,0.87842 2.9712708,2.9712708 0 0 0 -0.8599,2.15635 v 4.49792 h 17.70327 v -2.11667 h -14.72671 a 0.87312499,0.87312499 0 0 1 -0.63764,-0.26458 0.90222916,0.90222916 0 0 1 -0.26459,-0.64823 v -1.44727 a 0.90222916,0.90222916 0 0 1 0.26459,-0.64823 0.87312499,0.87312499 0 0 1 0.63764,-0.26458 h 11.7528 a 2.8389791,2.8389791 0 0 0 2.10079,-0.889 2.9553958,2.9553958 0 0 0 0.87312,-2.14313 v -1.94733 a 2.9950833,2.9950833 0 0 0 -0.87312,-2.16958 2.8469166,2.8469166 0 0 0 -2.10079,-0.91282 z"
       id="path28"
       style="fill:#5f5fd3;fill-opacity:1;stroke:#5f5fd3;stroke-width:0.4445px;stroke-miterlimit:10;stroke-opacity:1" />
    <path
       class="cls-2"
       d="m 10.953739,101.17012 v 10.95375 h 2.0664 v -10.95375 a 0.396875,0.396875 0 0 1 0.39158,-0.39952 h 7.3369 V 98.677753 H 3.1882193 v 2.092847 h 7.3712897 a 0.396875,0.396875 0 0 1 0.39423,0.39952 z"
       id="path30"
       style="fill:#5f5fd3;fill-opacity:1;stroke:#5f5fd3;stroke-width:0.4445px;stroke-miterlimit:10;stroke-opacity:1" />
    <path
       class="cls-2"
       d="m 25.090429,112.12387 h 11.64166 a 2.8389791,2.8389791 0 0 0 2.09286,-0.87841 2.9580416,2.9580416 0 0 0 0.86254,-2.13519 v -7.40833 a 2.9580416,2.9580416 0 0 0 -0.86254,-2.135187 2.8389791,2.8389791 0 0 0 -2.08492,-0.889 h -11.64166 a 2.8389791,2.8389791 0 0 0 -2.09286,0.87842 2.9580416,2.9580416 0 0 0 -0.86254,2.135177 v 7.40834 a 2.9580416,2.9580416 0 0 0 0.86254,2.13518 2.8389791,2.8389791 0 0 0 2.08492,0.889 z m 0,-11.35327 h 11.64166 a 0.87047916,0.87047916 0 0 1 0.635,0.26459 0.90752082,0.90752082 0 0 1 0.26459,0.65087 v 7.40834 a 0.90222916,0.90222916 0 0 1 -0.26459,0.64822 0.86254166,0.86254166 0 0 1 -0.635,0.26459 h -11.64166 a 0.87047916,0.87047916 0 0 1 -0.635,-0.26459 0.90222916,0.90222916 0 0 1 -0.26459,-0.64822 v -7.40834 a 0.90752082,0.90752082 0 0 1 0.26459,-0.65087 0.87047916,0.87047916 0 0 1 0.635,-0.26459 z"
       id="path32"
       style="fill:#5f5fd3;fill-opacity:1;stroke:#5f5fd3;stroke-width:0.4445px;stroke-miterlimit:10;stroke-opacity:1" />
    <path
       class="cls-2"
       d="m 76.538659,109.11027 a 2.9580416,2.9580416 0 0 0 0.86254,2.13519 2.841625,2.841625 0 0 0 2.09552,0.87841 h 11.6417 a 2.8389791,2.8389791 0 0 0 2.09285,-0.87841 2.9580416,2.9580416 0 0 0 0.86254,-2.13519 v -7.40833 a 2.9580416,2.9580416 0 0 0 -0.86254,-2.135187 2.8336875,2.8336875 0 0 0 -2.08756,-0.889 h -11.6417 a 2.841625,2.841625 0 0 0 -2.09551,0.87842 2.9580416,2.9580416 0 0 0 -0.86255,2.135177 z m 2.95806,-8.33967 h 11.6417 a 0.86254166,0.86254166 0 0 1 0.63764,0.26459 0.90752082,0.90752082 0 0 1 0.26459,0.65087 v 7.40834 a 0.90222916,0.90222916 0 0 1 -0.26459,0.64822 0.87312499,0.87312499 0 0 1 -0.63764,0.26459 h -11.6417 a 0.87312499,0.87312499 0 0 1 -0.63765,-0.26459 0.90222916,0.90222916 0 0 1 -0.26459,-0.64822 v -7.40834 a 0.90752082,0.90752082 0 0 1 0.26459,-0.65087 0.86254166,0.86254166 0 0 1 0.63765,-0.26459 z"
       id="path34"
       style="fill:#5f5fd3;fill-opacity:1;stroke:#5f5fd3;stroke-width:0.4445px;stroke-miterlimit:10;stroke-opacity:1" />
    <path
       class="cls-2"
       d="m 43.865259,106.85867 a 0.396875,0.396875 0 0 1 0.39423,-0.39952 h 5.02708 a 0.39158333,0.39158333 0 0 1 0.26459,0.10318 l 6.08541,5.55625 h 2.67759 l -6.78127,-6.42937 a 0.396875,0.396875 0 0 1 -0.12436,-0.29369 0.38364583,0.38364583 0 0 1 0.12436,-0.29369 l 6.77862,-6.424077 h -2.75167 l -6.01133,5.556247 a 0.381,0.381 0 0 1 -0.26458,0.10583 h -5.02709 a 0.39952083,0.39952083 0 0 1 -0.39422,-0.40216 v -5.259917 h -2.07698 v 13.446117 h 2.07698 z"
       id="path36"
       style="fill:#5f5fd3;fill-opacity:1;stroke:#5f5fd3;stroke-width:0.4445px;stroke-miterlimit:10;stroke-opacity:1" />
    <path
       class="cls-2"
       d="m 66.791409,107.45133 v 4.67254 h 2.05581 v -4.67254 a 0.39158333,0.39158333 0 0 1 0.10319,-0.26458 l 7.60942,-8.508997 h -2.77284 l -5.67002,6.209767 a 0.3889375,0.3889375 0 0 1 -0.2884,0.127 v 0 a 0.3889375,0.3889375 0 0 1 -0.28839,-0.127 l -5.70971,-6.196537 v -0.0132 h -2.75431 l 7.61206,8.508997 a 0.396875,0.396875 0 0 1 0.10319,0.26458 z"
       id="path38"
       style="fill:#5f5fd3;fill-opacity:1;stroke:#5f5fd3;stroke-width:0.4445px;stroke-miterlimit:10;stroke-opacity:1" />
    <path
       class="cls-2"
       d="m 352.13264,98.50977 h -11.7528 a 2.8548541,2.8548541 0 0 0 -2.11666,0.889 3.0188958,3.0188958 0 0 0 -0.8599,2.16959 v 0.73554 h 2.07433 v -0.73554 a 0.90222916,0.90222916 0 0 1 0.26459,-0.64823 0.86254166,0.86254166 0 0 1 0.63764,-0.26459 h 11.7528 a 0.87047916,0.87047916 0 0 1 0.635,0.26459 0.90222916,0.90222916 0 0 1 0.26458,0.64823 v 1.94733 a 0.90222916,0.90222916 0 0 1 -0.26458,0.64823 0.87047916,0.87047916 0 0 1 -0.635,0.26458 h -11.7528 a 2.8627916,2.8627916 0 0 0 -2.11666,0.87842 2.9712708,2.9712708 0 0 0 -0.8599,2.15635 v 4.49792 h 17.70327 v -2.11667 h -14.72671 a 0.87312499,0.87312499 0 0 1 -0.63764,-0.26458 0.90222916,0.90222916 0 0 1 -0.26459,-0.64823 v -1.44727 a 0.90222916,0.90222916 0 0 1 0.26459,-0.64823 0.87312499,0.87312499 0 0 1 0.63764,-0.26458 h 11.7528 a 2.8389791,2.8389791 0 0 0 2.10079,-0.889 2.9553958,2.9553958 0 0 0 0.87312,-2.14313 v -1.94733 a 2.9950833,2.9950833 0 0 0 -0.87312,-2.16958 2.8469166,2.8469166 0 0 0 -2.10079,-0.91282 z"
       id="path40"
       style="fill:#5f5fd3;fill-opacity:1;stroke:#5f5fd3;stroke-width:0.4445px;stroke-miterlimit:10;stroke-opacity:1" />
  </g>
</svg>
