<?xml version="1.0" encoding="UTF-8" standalone="no"?>
<!-- Created with Inkscape (http://www.inkscape.org/) -->

<svg
   width="352.36334mm"
   height="14.059267mm"
   viewBox="0 0 352.36335 14.059267"
   version="1.1"
   id="svg15782"
   inkscape:version="1.2.1 (9c6d41e410, 2022-07-14)"
   sodipodi:docname="2023-actual.svg"
   xmlns:inkscape="http://www.inkscape.org/namespaces/inkscape"
   xmlns:sodipodi="http://sodipodi.sourceforge.net/DTD/sodipodi-0.dtd"
   xmlns="http://www.w3.org/2000/svg"
   xmlns:svg="http://www.w3.org/2000/svg">
  <sodipodi:namedview
     id="namedview15784"
     pagecolor="#505050"
     bordercolor="#ffffff"
     borderopacity="1"
     inkscape:pageshadow="0"
     inkscape:pageopacity="0"
     inkscape:pagecheckerboard="1"
     inkscape:document-units="mm"
     showgrid="false"
     inkscape:zoom="0.61357118"
     inkscape:cx="911.87465"
     inkscape:cy="-174.3889"
     inkscape:window-width="1920"
     inkscape:window-height="1009"
     inkscape:window-x="-8"
     inkscape:window-y="-8"
     inkscape:window-maximized="1"
     inkscape:current-layer="layer1"
     fit-margin-top="0"
     fit-margin-left="0"
     fit-margin-right="0"
     fit-margin-bottom="0"
     inkscape:showpageshadow="2"
     inkscape:deskcolor="#505050" />
  <defs
     id="defs15779" />
  <g
     inkscape:label="Layer 1"
     inkscape:groupmode="layer"
     id="layer1"
     transform="translate(-2.9659693,-98.287147)">
    <path
       class="cls-2"
       d="m 105.01267,112.0766 h 11.64167 a 2.8336875,2.8336875 0 0 0 2.11666,-0.86784 2.9580416,2.9580416 0 0 0 0.86254,-2.13518 v -4.2598 h -6.68337 v 2.11667 h 4.23333 a 0.39952083,0.39952083 0 0 1 0.39423,0.40217 v 1.73037 a 0.90222916,0.90222916 0 0 1 -0.26458,0.64823 0.87312499,0.87312499 0 0 1 -0.63765,0.26458 h -11.66283 a 0.86254166,0.86254166 0 0 1 -0.635,-0.26458 0.90222916,0.90222916 0 0 1 -0.26458,-0.64823 v -7.40833 a 0.90752082,0.90752082 0 0 1 0.26458,-0.65088 0.86254166,0.86254166 0 0 1 0.635,-0.26458 h 11.64167 a 0.86254166,0.86254166 0 0 1 0.63764,0.26458 0.90752082,0.90752082 0 0 1 0.26459,0.65088 v 0.762 h 2.05316 v -0.77258 a 2.9553958,2.9553958 0 0 0 -0.83873,-2.13519 2.8495625,2.8495625 0 0 0 -2.11666,-0.87842 h -11.64167 a 2.8336875,2.8336875 0 0 0 -2.09021,0.87842 2.9580416,2.9580416 0 0 0 -0.86254,2.13519 v 7.40833 a 2.9606875,2.9606875 0 0 0 0.86254,2.15635 2.8389791,2.8389791 0 0 0 2.09021,0.86784 z"
       id="path8"
       style="fill:#be3455;fill-opacity:1;stroke:#be3455;stroke-width:0.4445px;stroke-miterlimit:10;stroke-opacity:1" />
    <path
       class="cls-2"
       d="m 123.76634,108.1978 a 0.39422916,0.39422916 0 0 1 0.38893,-0.39952 h 12.6709 a 0.396875,0.396875 0 0 1 0.39423,0.39952 v 0 3.8788 h 2.05317 v -10.43252 a 2.9580416,2.9580416 0 0 0 -0.86255,-2.13519 2.841625,2.841625 0 0 0 -2.0955,-0.87842 h -11.64166 a 2.8389791,2.8389791 0 0 0 -2.09286,0.87842 2.9580416,2.9580416 0 0 0 -0.86254,2.13519 v 10.43252 h 2.05317 z m 0,-6.55372 a 0.90752082,0.90752082 0 0 1 0.26458,-0.65088 0.86254166,0.86254166 0 0 1 0.63765,-0.26458 h 11.64166 a 0.86254166,0.86254166 0 0 1 0.63765,0.26458 0.90752082,0.90752082 0 0 1 0.26458,0.65088 v 3.65918 a 0.39952083,0.39952083 0 0 1 -0.39423,0.40217 h -12.66031 a 0.396875,0.396875 0 0 1 -0.39158,-0.40217 v 0 z"
       id="path10"
       style="fill:#be3455;fill-opacity:1;stroke:#be3455;stroke-width:0.4445px;stroke-miterlimit:10;stroke-opacity:1" />
    <path
       class="cls-2"
       d="m 163.4459,112.0766 h 16.0311 v -2.09286 h -13.58635 a 0.396875,0.396875 0 0 1 -0.39158,-0.40216 v 0 -2.77019 a 0.396875,0.396875 0 0 1 0.39158,-0.39952 h 10.84791 v -2.11667 h -10.84791 a 0.396875,0.396875 0 0 1 -0.39158,-0.40217 v 0 -2.77018 a 0.396875,0.396875 0 0 1 0.39158,-0.39952 H 179.477 v -2.09286 h -16.0311 z"
       id="path12"
       style="fill:#be3455;fill-opacity:1;stroke:#be3455;stroke-width:0.4445px;stroke-miterlimit:10;stroke-opacity:1" />
    <path
       class="cls-2"
       d="m 202.9085,98.63047 h -11.64166 a 2.8389791,2.8389791 0 0 0 -2.11667,0.87842 2.9474583,2.9474583 0 0 0 -0.86254,2.13519 v 1.75418 a 2.9315833,2.9315833 0 0 0 0.86254,2.13519 2.8389791,2.8389791 0 0 0 2.09285,0.87842 h 11.64167 a 0.87841666,0.87841666 0 0 1 0.63764,0.26458 0.84402082,0.84402082 0 0 1 0.26459,0.635 v 1.75683 a 0.90222916,0.90222916 0 0 1 -0.26459,0.64823 0.87312499,0.87312499 0 0 1 -0.63764,0.26459 h -11.64167 a 0.87312499,0.87312499 0 0 1 -0.63764,-0.26459 0.90222916,0.90222916 0 0 1 -0.26459,-0.64823 v -0.73554 h -2.05316 v 0.73554 a 2.9448125,2.9448125 0 0 0 0.86254,2.14048 2.8389791,2.8389791 0 0 0 2.09285,0.87842 h 11.64167 a 2.841625,2.841625 0 0 0 2.0955,-0.87842 2.9553958,2.9553958 0 0 0 0.85989,-2.13518 v -1.75684 a 2.9501041,2.9501041 0 0 0 -0.85989,-2.13254 2.8442708,2.8442708 0 0 0 -2.07169,-0.889 h -11.64166 a 0.87841666,0.87841666 0 0 1 -0.63765,-0.26458 0.86254166,0.86254166 0 0 1 -0.26458,-0.63765 v -1.74889 a 0.90752082,0.90752082 0 0 1 0.26458,-0.65088 0.86254166,0.86254166 0 0 1 0.63765,-0.26458 h 11.64166 a 0.86254166,0.86254166 0 0 1 0.63765,0.26458 0.90752082,0.90752082 0 0 1 0.26458,0.65088 v 0.73554 h 2.05317 v -0.73554 a 2.9553958,2.9553958 0 0 0 -0.8599,-2.13519 2.841625,2.841625 0 0 0 -2.0955,-0.87842 z"
       id="path14"
       style="fill:#be3455;fill-opacity:1;stroke:#be3455;stroke-width:0.4445px;stroke-miterlimit:10;stroke-opacity:1" />
    <path
       class="cls-2"
       d="m 223.8635,103.89303 a 0.396875,0.396875 0 0 1 -0.39158,0.40217 h -13.081 a 0.396875,0.396875 0 0 1 -0.39159,-0.40217 v 0 -5.26256 h -2.06375 v 13.44613 h 2.05317 v -5.26521 a 0.396875,0.396875 0 0 1 0.39158,-0.39952 h 13.081 a 0.396875,0.396875 0 0 1 0.39159,0.39952 v 5.26521 h 2.07433 V 98.63047 h -2.06375 z"
       id="path16"
       style="fill:#be3455;fill-opacity:1;stroke:#be3455;stroke-width:0.4445px;stroke-miterlimit:10;stroke-opacity:1" />
    <path
       class="cls-2"
       d="m 244.73383,99.50889 a 2.841625,2.841625 0 0 0 -2.0955,-0.87842 h -11.64166 a 2.8389791,2.8389791 0 0 0 -2.09286,0.87842 2.9448125,2.9448125 0 0 0 -0.85989,2.13519 v 7.40833 a 2.9474583,2.9474583 0 0 0 0.86254,2.13519 2.8389791,2.8389791 0 0 0 2.09285,0.87841 h 11.64167 a 2.841625,2.841625 0 0 0 2.0955,-0.87841 2.9553958,2.9553958 0 0 0 0.8599,-2.13519 v -7.40833 a 2.9553958,2.9553958 0 0 0 -0.8599,-2.13519 z m -14.64468,2.13519 a 0.90752082,0.90752082 0 0 1 0.26458,-0.65088 0.86254166,0.86254166 0 0 1 0.63765,-0.26458 h 11.64166 a 0.86254166,0.86254166 0 0 1 0.63765,0.26458 0.90752082,0.90752082 0 0 1 0.26458,0.65088 v 7.40833 a 0.90222916,0.90222916 0 0 1 -0.26458,0.64823 0.87312499,0.87312499 0 0 1 -0.63765,0.26458 h -11.64166 a 0.87312499,0.87312499 0 0 1 -0.63765,-0.26458 0.90222916,0.90222916 0 0 1 -0.26458,-0.64823 z"
       id="path18"
       style="fill:#be3455;fill-opacity:1;stroke:#be3455;stroke-width:0.4445px;stroke-miterlimit:10;stroke-opacity:1" />
    <path
       class="cls-2"
       d="m 143.41959,101.86633 a 0.28045833,0.28045833 0 0 1 0.1852,-0.26459 0.26458333,0.26458333 0 0 1 0.31486,0.0847 l 7.40833,8.97202 0.0344,0.0397 7.43479,-9.01436 a 0.26458333,0.26458333 0 0 1 0.31485,-0.0873 0.28575,0.28575 0 0 1 0.18786,0.26458 v 10.21027 h 2.05316 V 98.63052 h -2.7596 l -6.93208,8.4164 a 0.3889375,0.3889375 0 0 1 -0.60325,0 l -6.9215,-8.40052 -0.0132,-0.0159 h -2.75696 v 13.44613 h 2.05317 z"
       id="path20"
       style="fill:#be3455;fill-opacity:1;stroke:#be3455;stroke-width:0.4445px;stroke-miterlimit:10;stroke-opacity:1" />
    <path
       class="cls-2"
       d="m 267.0091,98.63047 -3.64066,9.83986 a 0.28310416,0.28310416 0 0 1 -0.36513,0.16404 0.2778125,0.2778125 0 0 1 -0.16404,-0.16404 l -3.63273,-9.81075 v -0.0291 h -2.83633 l -3.64067,9.83986 a 0.28310416,0.28310416 0 0 1 -0.36512,0.16404 0.2778125,0.2778125 0 0 1 -0.16404,-0.16404 l -3.63273,-9.81075 v -0.0291 h -2.48973 l 5.24933,13.41702 v 0.0291 h 2.16429 l 4.02696,-10.26319 a 0.28310416,0.28310416 0 0 1 0.36513,-0.16404 0.2778125,0.2778125 0 0 1 0.16404,0.16404 l 4.00843,10.23408 v 0.0291 h 2.06905 L 269.393,98.63047 Z"
       id="path22"
       style="fill:#be3455;fill-opacity:1;stroke:#be3455;stroke-width:0.4445px;stroke-miterlimit:10;stroke-opacity:1" />
    <path
       class="cls-2"
       d="m 10.953739,101.17012 v 10.95375 h 2.0664 v -10.95375 a 0.396875,0.396875 0 0 1 0.39158,-0.39952 h 7.3369 V 98.677753 H 3.1882193 v 2.092847 h 7.3712897 a 0.396875,0.396875 0 0 1 0.39423,0.39952 z"
       id="path30"
       style="fill:#be3455;fill-opacity:1;stroke:#be3455;stroke-width:0.4445px;stroke-miterlimit:10;stroke-opacity:1" />
    <path
       class="cls-2"
       d="m 25.090429,112.12387 h 11.64166 a 2.8389791,2.8389791 0 0 0 2.09286,-0.87841 2.9580416,2.9580416 0 0 0 0.86254,-2.13519 v -7.40833 a 2.9580416,2.9580416 0 0 0 -0.86254,-2.135187 2.8389791,2.8389791 0 0 0 -2.08492,-0.889 h -11.64166 a 2.8389791,2.8389791 0 0 0 -2.09286,0.87842 2.9580416,2.9580416 0 0 0 -0.86254,2.135177 v 7.40834 a 2.9580416,2.9580416 0 0 0 0.86254,2.13518 2.8389791,2.8389791 0 0 0 2.08492,0.889 z m 0,-11.35327 h 11.64166 a 0.87047916,0.87047916 0 0 1 0.635,0.26459 0.90752082,0.90752082 0 0 1 0.26459,0.65087 v 7.40834 a 0.90222916,0.90222916 0 0 1 -0.26459,0.64822 0.86254166,0.86254166 0 0 1 -0.635,0.26459 h -11.64166 a 0.87047916,0.87047916 0 0 1 -0.635,-0.26459 0.90222916,0.90222916 0 0 1 -0.26459,-0.64822 v -7.40834 a 0.90752082,0.90752082 0 0 1 0.26459,-0.65087 0.87047916,0.87047916 0 0 1 0.635,-0.26459 z"
       id="path32"
       style="fill:#be3455;fill-opacity:1;stroke:#be3455;stroke-width:0.4445px;stroke-miterlimit:10;stroke-opacity:1" />
    <path
       class="cls-2"
       d="m 76.538659,109.11027 a 2.9580416,2.9580416 0 0 0 0.86254,2.13519 2.841625,2.841625 0 0 0 2.09552,0.87841 h 11.6417 a 2.8389791,2.8389791 0 0 0 2.09285,-0.87841 2.9580416,2.9580416 0 0 0 0.86254,-2.13519 v -7.40833 a 2.9580416,2.9580416 0 0 0 -0.86254,-2.135187 2.8336875,2.8336875 0 0 0 -2.08756,-0.889 h -11.6417 a 2.841625,2.841625 0 0 0 -2.09551,0.87842 2.9580416,2.9580416 0 0 0 -0.86255,2.135177 z m 2.95806,-8.33967 h 11.6417 a 0.86254166,0.86254166 0 0 1 0.63764,0.26459 0.90752082,0.90752082 0 0 1 0.26459,0.65087 v 7.40834 a 0.90222916,0.90222916 0 0 1 -0.26459,0.64822 0.87312499,0.87312499 0 0 1 -0.63764,0.26459 h -11.6417 a 0.87312499,0.87312499 0 0 1 -0.63765,-0.26459 0.90222916,0.90222916 0 0 1 -0.26459,-0.64822 v -7.40834 a 0.90752082,0.90752082 0 0 1 0.26459,-0.65087 0.86254166,0.86254166 0 0 1 0.63765,-0.26459 z"
       id="path34"
       style="fill:#be3455;fill-opacity:1;stroke:#be3455;stroke-width:0.4445px;stroke-miterlimit:10;stroke-opacity:1" />
    <path
       class="cls-2"
       d="m 43.865259,106.85867 a 0.396875,0.396875 0 0 1 0.39423,-0.39952 h 5.02708 a 0.39158333,0.39158333 0 0 1 0.26459,0.10318 l 6.08541,5.55625 h 2.67759 l -6.78127,-6.42937 a 0.396875,0.396875 0 0 1 -0.12436,-0.29369 0.38364583,0.38364583 0 0 1 0.12436,-0.29369 l 6.77862,-6.424077 h -2.75167 l -6.01133,5.556247 a 0.381,0.381 0 0 1 -0.26458,0.10583 h -5.02709 a 0.39952083,0.39952083 0 0 1 -0.39422,-0.40216 v -5.259917 h -2.07698 v 13.446117 h 2.07698 z"
       id="path36"
       style="fill:#be3455;fill-opacity:1;stroke:#be3455;stroke-width:0.4445px;stroke-miterlimit:10;stroke-opacity:1" />
    <path
       class="cls-2"
       d="m 66.791409,107.45133 v 4.67254 h 2.05581 v -4.67254 a 0.39158333,0.39158333 0 0 1 0.10319,-0.26458 l 7.60942,-8.508997 h -2.77284 l -5.67002,6.209767 a 0.3889375,0.3889375 0 0 1 -0.2884,0.127 v 0 a 0.3889375,0.3889375 0 0 1 -0.28839,-0.127 l -5.70971,-6.196537 v -0.0132 h -2.75431 l 7.61206,8.508997 a 0.396875,0.396875 0 0 1 0.10319,0.26458 z"
       id="path38"
       style="fill:#be3455;fill-opacity:1;stroke:#be3455;stroke-width:0.4445px;stroke-miterlimit:10;stroke-opacity:1" />
    <g
       id="_デザイン"
       transform="matrix(0.1992356,0,0,0.1992356,276.8144,36.724033)"
       style="fill:#be3455;fill-opacity:1">
      <g
         id="use1208"
         style="fill:#be3455;fill-opacity:1">
        <g
           id="g2560"
           style="fill:#be3455;fill-opacity:1">
          <path
             d="m 15.47,274.59 h 60.98 c 4.28,0 7.97,-1.52 10.96,-4.51 2.99,-2.99 4.51,-6.68 4.51,-10.96 v -9.02 c 0,-4.28 -1.52,-7.96 -4.51,-10.96 -3,-3 -6.68,-4.51 -10.96,-4.51 H 15.47 c -1.29,0 -2.41,-0.45 -3.34,-1.33 -0.92,-0.88 -1.39,-1.98 -1.39,-3.27 v -9.02 c 0,-1.29 0.47,-2.41 1.39,-3.33 0.93,-0.93 2.05,-1.4 3.33,-1.4 h 60.98 c 1.28,0 2.41,0.47 3.33,1.4 0.92,0.93 1.39,2.05 1.39,3.33 v 3.79 h 10.75 v -3.79 c 0,-4.28 -1.52,-7.96 -4.51,-10.96 -3,-3 -6.68,-4.51 -10.96,-4.51 H 15.47 c -4.28,0 -7.96,1.52 -10.96,4.51 C 1.52,213.04 0,216.73 0,221 v 9.02 c 0,4.28 1.52,7.97 4.51,10.97 2.99,2.99 6.68,4.51 10.96,4.51 h 60.98 c 1.29,0 2.41,0.45 3.34,1.33 0.92,0.88 1.39,1.98 1.39,3.27 v 9.02 c 0,1.29 -0.47,2.41 -1.39,3.33 -0.92,0.92 -2.05,1.39 -3.33,1.39 H 15.47 c -1.29,0 -2.41,-0.47 -3.33,-1.39 -0.92,-0.92 -1.39,-2.04 -1.39,-3.33 v -3.79 H 0 v 3.79 c 0,4.28 1.52,7.97 4.51,10.96 2.99,2.99 6.68,4.51 10.96,4.51 z"
             id="path2524"
             style="fill:#be3455;fill-opacity:1" />
          <path
             d="m 186.23,232.57 c 0,1.13 -0.92,2.06 -2.06,2.06 H 115.7 c -1.13,0 -2.06,-0.92 -2.06,-2.06 v -27.03 h -10.75 v 69.06 h 10.75 v -27.03 c 0,-1.13 0.92,-2.06 2.06,-2.06 h 68.48 c 1.13,0 2.06,0.92 2.06,2.06 v 27.03 h 10.87 v -69.06 h -10.87 v 27.03 z"
             id="path2526"
             style="fill:#be3455;fill-opacity:1" />
          <path
             d="m 295.48,210.05 c -3,-3 -6.68,-4.51 -10.96,-4.51 h -60.98 c -4.28,0 -7.96,1.52 -10.96,4.51 -3,2.99 -4.51,6.68 -4.51,10.96 v 38.11 c 0,4.28 1.52,7.97 4.51,10.96 2.99,2.99 6.68,4.51 10.96,4.51 h 60.98 c 4.28,0 7.97,-1.52 10.96,-4.51 2.99,-2.99 4.51,-6.68 4.51,-10.96 v -38.11 c 0,-4.28 -1.52,-7.96 -4.51,-10.96 z m -76.67,10.96 c 0,-1.29 0.47,-2.41 1.39,-3.33 0.92,-0.92 2.05,-1.39 3.33,-1.39 h 60.98 c 1.28,0 2.41,0.47 3.33,1.39 0.92,0.93 1.39,2.05 1.39,3.33 v 38.11 c 0,1.29 -0.47,2.41 -1.39,3.33 -0.92,0.92 -2.05,1.39 -3.33,1.39 h -60.98 c -1.29,0 -2.41,-0.47 -3.33,-1.39 -0.92,-0.92 -1.39,-2.04 -1.39,-3.33 z"
             id="path2528"
             style="fill:#be3455;fill-opacity:1" />
          <path
             d="m 393.04,256.07 c -0.27,0.71 -0.89,0.96 -1.39,0.96 -0.5,0 -1.12,-0.25 -1.39,-0.96 l -19,-50.4 -0.06,-0.15 h -14.79 l -19.06,50.54 c -0.27,0.71 -0.89,0.96 -1.39,0.96 -0.5,0 -1.12,-0.25 -1.39,-0.96 l -19,-50.4 -0.06,-0.15 h -13.03 l 27.58,69.06 h 11.32 l 21.05,-52.72 c 0.28,-0.69 0.89,-0.94 1.38,-0.94 0.49,0 1.11,0.25 1.38,0.94 l 21.05,52.72 h 10.83 l 27.58,-69.06 h -12.54 l -19.06,50.54 z"
             id="path2530"
             style="fill:#be3455;fill-opacity:1" />
          <path
             d="M 40.65,12.81 V 69.06 H 51.4 V 12.81 c 0,-1.13 0.92,-2.06 2.06,-2.06 H 91.93 V 0 H 0 v 10.75 h 38.6 c 1.13,0 2.06,0.92 2.06,2.06 z"
             id="path2532"
             style="fill:#be3455;fill-opacity:1" />
          <path
             d="m 114.67,69.06 h 60.98 c 4.28,0 7.97,-1.52 10.96,-4.51 2.99,-2.99 4.51,-6.68 4.51,-10.96 V 15.47 c 0,-4.28 -1.52,-7.96 -4.51,-10.96 -3,-3 -6.68,-4.51 -10.96,-4.51 h -60.98 c -4.28,0 -7.96,1.52 -10.96,4.51 -3,3 -4.51,6.68 -4.51,10.96 v 38.12 c 0,4.28 1.52,7.97 4.51,10.96 2.99,2.99 6.68,4.51 10.96,4.51 z m 0,-58.31 h 60.98 c 1.28,0 2.41,0.47 3.33,1.39 0.92,0.93 1.39,2.05 1.39,3.33 v 38.12 c 0,1.29 -0.47,2.41 -1.39,3.33 -0.92,0.92 -2.05,1.39 -3.33,1.39 h -60.98 c -1.29,0 -2.41,-0.47 -3.33,-1.39 -0.92,-0.92 -1.39,-2.04 -1.39,-3.33 V 15.47 c 0,-1.29 0.47,-2.41 1.39,-3.33 0.93,-0.93 2.05,-1.39 3.33,-1.39 z"
             id="path2534"
             style="fill:#be3455;fill-opacity:1" />
          <path
             d="M 471.43,4.51 C 468.43,1.51 464.75,0 460.47,0 h -60.98 c -4.28,0 -7.96,1.52 -10.96,4.51 -3,3 -4.51,6.68 -4.51,10.96 v 38.12 c 0,4.28 1.52,7.97 4.51,10.96 2.99,2.99 6.68,4.51 10.96,4.51 h 60.98 c 4.28,0 7.97,-1.52 10.96,-4.51 2.99,-2.99 4.51,-6.68 4.51,-10.96 V 15.47 c 0,-4.28 -1.52,-7.96 -4.51,-10.96 z m -76.67,10.96 c 0,-1.29 0.47,-2.41 1.39,-3.33 0.93,-0.93 2.05,-1.39 3.33,-1.39 h 60.98 c 1.28,0 2.41,0.47 3.33,1.39 0.92,0.93 1.39,2.05 1.39,3.33 v 38.12 c 0,1.29 -0.47,2.41 -1.39,3.33 -0.92,0.92 -2.05,1.39 -3.33,1.39 h -60.98 c -1.29,0 -2.41,-0.47 -3.33,-1.39 -0.92,-0.92 -1.39,-2.04 -1.39,-3.33 z"
             id="path2536"
             style="fill:#be3455;fill-opacity:1" />
          <path
             d="m 212.96,42.03 c 0,-1.13 0.92,-2.06 2.06,-2.06 h 26.31 c 0.51,0 0.99,0.19 1.37,0.52 l 31.89,28.51 0.06,0.06 h 14.02 L 253.16,36.04 c -0.42,-0.39 -0.66,-0.93 -0.66,-1.51 0,-0.58 0.23,-1.11 0.65,-1.51 L 288.59,0 h -14.41 l -31.47,28.56 c -0.38,0.34 -0.87,0.53 -1.38,0.53 h -26.3 c -1.13,0 -2.06,-0.92 -2.06,-2.06 V 0 h -10.88 v 69.06 h 10.88 V 42.03 Z"
             id="path2538"
             style="fill:#be3455;fill-opacity:1" />
          <path
             d="m 332.98,45.1 v 23.96 h 10.75 V 45.1 c 0,-0.51 0.19,-1.01 0.54,-1.39 L 384.12,0 H 369.6 l -29.69,31.89 c -0.39,0.42 -0.93,0.65 -1.5,0.66 -0.56,0 -1.11,-0.23 -1.5,-0.65 L 307.01,0.07 306.94,0 h -14.36 l 39.86,43.71 c 0.35,0.38 0.54,0.87 0.54,1.39 z"
             id="path2540"
             style="fill:#be3455;fill-opacity:1" />
          <path
             d="m 15.47,171.83 h 60.98 c 4.28,0 7.97,-1.52 10.96,-4.51 2.99,-3 4.51,-6.68 4.51,-10.96 V 134.53 H 58.57 v 10.88 h 20.56 c 1.13,0 2.06,0.92 2.06,2.06 v 8.89 c 0,1.29 -0.47,2.41 -1.4,3.33 -0.92,0.92 -2.05,1.39 -3.33,1.39 H 15.47 c -1.29,0 -2.41,-0.47 -3.33,-1.39 -0.93,-0.92 -1.39,-2.04 -1.39,-3.33 v -38.11 c 0,-1.29 0.47,-2.41 1.4,-3.33 0.92,-0.93 2.05,-1.4 3.33,-1.4 h 60.98 c 1.28,0 2.4,0.47 3.33,1.4 0.93,0.93 1.4,2.05 1.4,3.33 v 3.91 h 10.75 v -3.91 c 0,-4.27 -1.52,-7.96 -4.51,-10.96 -3,-3 -6.69,-4.51 -10.96,-4.51 h -61 c -4.28,0 -7.97,1.52 -10.96,4.51 C 1.52,110.27 0,113.96 0,118.24 v 38.11 c 0,4.28 1.52,7.97 4.51,10.96 2.99,2.99 6.68,4.51 10.96,4.51 z"
             id="path2542"
             style="fill:#be3455;fill-opacity:1" />
          <path
             d="m 194.82,171.83 v -53.59 c 0,-4.28 -1.52,-7.96 -4.51,-10.96 -3,-3 -6.68,-4.51 -10.96,-4.51 h -60.98 c -4.28,0 -7.97,1.52 -10.96,4.51 -2.99,2.99 -4.51,6.68 -4.51,10.96 v 53.59 h 10.75 v -19.92 c 0,-1.13 0.92,-2.06 2.06,-2.06 h 66.32 c 1.13,0 2.06,0.92 2.06,2.06 v 19.92 h 10.75 z m -81.18,-53.59 c 0,-1.29 0.47,-2.41 1.39,-3.33 0.93,-0.93 2.05,-1.4 3.33,-1.4 h 60.98 c 1.28,0 2.4,0.47 3.33,1.4 0.92,0.93 1.39,2.05 1.39,3.33 v 18.8 c 0,1.13 -0.92,2.06 -2.06,2.06 h -66.31 c -1.13,0 -2.06,-0.92 -2.06,-2.06 v -18.8 z"
             id="path2544"
             style="fill:#be3455;fill-opacity:1" />
          <path
             d="m 334.18,113.51 h 71.12 v -10.75 h -83.92 v 69.06 h 83.92 v -10.75 h -71.12 c -1.13,0 -2.06,-0.92 -2.06,-2.06 v -14.23 c 0,-1.13 0.92,-2.06 2.06,-2.06 h 56.76 v -10.88 h -56.76 c -1.13,0 -2.06,-0.92 -2.06,-2.06 v -14.23 c 0,-1.13 0.92,-2.06 2.06,-2.06 z"
             id="path2546"
             style="fill:#be3455;fill-opacity:1" />
          <path
             d="m 216.53,119.38 c 0,-0.77 0.5,-1.22 0.98,-1.4 0.47,-0.17 1.15,-0.15 1.65,0.44 l 38.77,46.07 0.17,0.21 38.94,-46.28 c 0.49,-0.59 1.17,-0.61 1.65,-0.44 0.47,0.17 0.98,0.63 0.98,1.4 v 52.44 h 10.75 v -69.05 h -14.44 l -36.3,43.22 c -0.39,0.47 -0.97,0.73 -1.58,0.73 -0.61,0 -1.18,-0.27 -1.58,-0.73 l -36.23,-43.14 -0.07,-0.08 h -14.44 v 69.06 h 10.75 v -52.44 z"
             id="path2548"
             style="fill:#be3455;fill-opacity:1" />
          <g
             id="g2558"
             style="fill:#be3455;fill-opacity:1">
            <path
               d="M 75.5,308.4 H 15.26 c -4.27,0 -7.91,1.59 -10.84,4.74 -2.93,3.14 -4.41,7.03 -4.41,11.54 v 3.92 h 10.62 v -3.92 c 0,-1.33 0.46,-2.49 1.36,-3.45 0.9,-0.96 2,-1.44 3.26,-1.44 h 60.24 c 1.26,0 2.35,0.49 3.26,1.44 0.9,0.96 1.36,2.12 1.36,3.45 v 10.38 c 0,1.33 -0.46,2.49 -1.36,3.45 -0.91,0.96 -2,1.44 -3.26,1.44 H 15.26 c -4.27,0 -7.91,1.57 -10.84,4.67 -2.93,3.1 -4.41,6.96 -4.41,11.48 V 380 H 90.75 V 368.74 H 15.26 c -1.26,0 -2.36,-0.49 -3.26,-1.44 -0.9,-0.96 -1.36,-2.12 -1.36,-3.45 v -7.74 c 0,-1.33 0.46,-2.49 1.36,-3.45 0.9,-0.96 2,-1.44 3.26,-1.44 H 75.5 c 4.18,0 7.81,-1.59 10.78,-4.74 2.97,-3.14 4.48,-6.98 4.48,-11.41 v -10.38 c 0,-4.52 -1.51,-8.4 -4.48,-11.54 -2.97,-3.14 -6.6,-4.74 -10.78,-4.74 z"
               id="path2550"
               style="fill:#be3455;fill-opacity:1" />
            <path
               d="m 176.98,308.4 h -60.24 c -4.27,0 -7.91,1.59 -10.84,4.74 -2.93,3.15 -4.41,7.03 -4.41,11.54 v 39.16 c 0,4.43 1.48,8.27 4.41,11.41 2.93,3.15 6.57,4.74 10.84,4.74 h 60.24 c 4.18,0 7.81,-1.59 10.78,-4.74 2.97,-3.14 4.48,-6.98 4.48,-11.41 v -39.16 c 0,-4.52 -1.51,-8.4 -4.48,-11.55 -2.97,-3.14 -6.6,-4.74 -10.78,-4.74 z m 2.61,24.28 c 0.36,0 0.72,0.1 1.04,0.31 0.61,0.39 0.97,1.07 0.97,1.83 v 29.03 c 0,1.33 -0.46,2.49 -1.36,3.45 -0.9,0.96 -2,1.44 -3.26,1.44 h -57.02 c -0.84,0 -1.29,-0.63 -1.41,-1.17 -0.13,-0.54 0,-1.32 0.74,-1.73 l 59.36,-32.91 c 0.3,-0.16 0.62,-0.25 0.94,-0.25 z m -5.27,-9.98 -59.25,32.91 c -0.63,0.35 -1.37,0.33 -1.98,-0.06 -0.61,-0.39 -0.97,-1.07 -0.97,-1.83 v -29.03 c 0,-1.33 0.46,-2.49 1.36,-3.45 0.9,-0.96 2,-1.44 3.26,-1.44 h 56.9 c 0.84,0 1.29,0.63 1.41,1.17 0.13,0.54 0,1.32 -0.74,1.73 v 0 z"
               id="path2552"
               style="fill:#be3455;fill-opacity:1" />
            <path
               d="m 278.46,308.4 h -60.24 c -4.27,0 -7.91,1.59 -10.84,4.74 -2.93,3.14 -4.41,7.03 -4.41,11.54 v 3.92 h 10.63 v -3.92 c 0,-1.33 0.46,-2.49 1.36,-3.45 0.9,-0.96 2,-1.44 3.26,-1.44 h 60.24 c 1.26,0 2.35,0.49 3.26,1.44 0.9,0.96 1.36,2.12 1.36,3.45 v 10.38 c 0,1.33 -0.46,2.49 -1.36,3.45 -0.91,0.96 -2,1.44 -3.26,1.44 h -60.24 c -4.27,0 -7.91,1.57 -10.84,4.67 -2.93,3.1 -4.41,6.96 -4.41,11.48 V 380 h 90.75 v -11.26 h -75.5 c -1.26,0 -2.36,-0.49 -3.26,-1.44 -0.9,-0.96 -1.36,-2.12 -1.36,-3.45 v -7.74 c 0,-1.33 0.46,-2.49 1.36,-3.45 0.9,-0.96 2,-1.44 3.26,-1.44 h 60.24 c 4.18,0 7.81,-1.59 10.78,-4.74 2.97,-3.14 4.48,-6.98 4.48,-11.41 v -10.38 c 0,-4.52 -1.51,-8.4 -4.48,-11.54 -2.97,-3.14 -6.6,-4.74 -10.78,-4.74 z"
               id="path2554"
               style="fill:#be3455;fill-opacity:1" />
            <path
               d="m 389.96,342.63 c -0.68,-0.69 -1.4,-1.28 -2.14,-1.82 1.22,-2.28 1.9,-4.8 1.9,-7.58 v -8.67 c 0,-4.51 -1.51,-8.39 -4.48,-11.52 -2.98,-3.14 -6.61,-4.73 -10.8,-4.73 h -2.18 c 0,0 -48.45,0 -48.45,0 h -4.09 c -4.27,0 -7.93,1.59 -10.86,4.74 -2.93,3.14 -4.42,7.02 -4.42,11.53 v 3.92 h 10.65 v -3.92 c 0,-1.33 0.46,-2.49 1.36,-3.45 0.91,-0.96 2,-1.44 3.26,-1.44 h 3.62 c 0,0 48.91,0 48.91,0 v 0 c 0,0 2.18,-0.01 2.18,-0.01 1.26,0 2.36,0.48 3.26,1.44 0.91,0.96 1.37,2.12 1.37,3.44 v 8.67 c 0,1.31 -0.46,2.45 -1.36,3.39 -0.91,0.94 -2.01,1.42 -3.26,1.42 h -3.37 c 0,0 -51.13,0 -51.13,0 v 11.08 h 54.5 c 0.19,0 0.37,-0.05 0.56,-0.05 h 4.16 c 1.26,0 2.36,0.47 3.26,1.39 0.91,0.93 1.37,2.05 1.37,3.33 v 9.77 c 0,1.35 -0.46,2.52 -1.36,3.49 -0.91,0.97 -2.01,1.46 -3.26,1.46 h -9.23 c 0,0 -46.89,0 -46.89,0 v 0 c 0,0 -4.08,0 -4.08,0 -1.26,0 -2.36,-0.48 -3.26,-1.44 -0.91,-0.96 -1.36,-2.12 -1.36,-3.45 v -3.92 h -10.65 v 3.92 c 0,4.51 1.49,8.39 4.42,11.53 2.93,3.14 6.59,4.74 10.86,4.74 h 4.09 c 0,0 46.88,0 46.88,0 v 0 c 0,0 9.23,0 9.23,0 4.19,0 7.82,-1.61 10.8,-4.79 2.97,-3.18 4.48,-7.06 4.48,-11.55 v -9.77 c 0,-4.36 -1.51,-8.12 -4.48,-11.16 z"
               id="path2556"
               style="fill:#be3455;fill-opacity:1" />
          </g>
        </g>
      </g>
    </g>
  </g>
</svg>
