<?xml version="1.0" encoding="UTF-8" standalone="no"?>
<!-- Generator: Adobe Illustrator 16.0.4, SVG Export Plug-In . SVG Version: 6.00 Build 0)  -->

<svg
   version="1.1"
   id="Layer_1"
   x="0px"
   y="0px"
   width="250px"
   height="145px"
   viewBox="0 0 250 145"
   enable-background="new 0 0 250 145"
   xml:space="preserve"
   sodipodi:docname="2025.svg"
   inkscape:version="1.2.1 (9c6d41e410, 2022-07-14)"
   xmlns:inkscape="http://www.inkscape.org/namespaces/inkscape"
   xmlns:sodipodi="http://sodipodi.sourceforge.net/DTD/sodipodi-0.dtd"
   xmlns="http://www.w3.org/2000/svg"
   xmlns:svg="http://www.w3.org/2000/svg"><defs
   id="defs29" /><sodipodi:namedview
   id="namedview27"
   pagecolor="#505050"
   bordercolor="#ffffff"
   borderopacity="1"
   inkscape:pageshadow="0"
   inkscape:pageopacity="0"
   inkscape:pagecheckerboard="1"
   showgrid="false"
   inkscape:zoom="4.232"
   inkscape:cx="155.36389"
   inkscape:cy="53.875236"
   inkscape:window-width="1920"
   inkscape:window-height="1009"
   inkscape:window-x="-8"
   inkscape:window-y="-8"
   inkscape:window-maximized="1"
   inkscape:current-layer="Layer_1"
   inkscape:showpageshadow="2"
   inkscape:deskcolor="#505050" />
<g
   id="g24">
	<polygon
   fill="#5BC4F1"
   points="133.611,15.397 137.375,33.811 92.886,39.371 88.849,1.759  "
   id="polygon2" />
	<polygon
   fill="#5BC4F1"
   points="216.014,134.977 216.973,115.258 169.549,105.691 172.997,127.645  "
   id="polygon4" />
	<polyline
   fill="#119ED9"
   points="-0.727,51.153 52.913,144.408 172.996,127.645 172.646,124.104 99.997,115.102 92.885,39.371    -0.727,51.153  "
   id="polyline6" />
	<polygon
   fill="#007EBC"
   points="137.375,33.811 170.326,104.807 172.997,127.645 100.014,115.105 92.886,39.371  "
   id="polygon8" />
	<polygon
   fill="#E3DE00"
   points="249.273,0.592 234.83,119.062 216.954,116.451 220.535,41.835 133.611,15.397 132.353,9.322  "
   id="polygon10" />
	<polygon
   fill="#4FB697"
   points="133.611,15.397 152.063,105.691 216.954,116.451 220.535,41.835  "
   id="polygon12" />
	<path
   fill="#FFFFFF"
   d="M196.582,47.074c0.776,0,1.419,0.283,1.972,0.837c0.536,0.548,0.816,1.209,0.816,1.997   c0,0.787-0.28,1.462-0.816,2.013c-0.539,0.557-1.195,0.837-1.972,0.837c-0.764,0-1.431-0.28-1.961-0.837   c-0.543-0.551-0.812-1.226-0.812-2.013c0-0.788,0.276-1.449,0.812-1.997C195.167,47.357,195.818,47.074,196.582,47.074    M199.822,49.897c0-0.9-0.321-1.671-0.953-2.31c-0.627-0.639-1.389-0.963-2.279-0.963c-0.887,0-1.644,0.324-2.274,0.963   c-0.619,0.639-0.938,1.41-0.938,2.31c0,0.92,0.318,1.691,0.938,2.334c0.622,0.644,1.383,0.968,2.274,0.968   c0.891,0,1.652-0.325,2.279-0.968C199.501,51.589,199.822,50.811,199.822,49.897z M197.437,49.184c0,0.285-0.12,0.473-0.364,0.565   c-0.134,0.06-0.325,0.084-0.586,0.084h-0.562v-1.31h0.529c0.345,0,0.597,0.046,0.751,0.137   C197.364,48.748,197.437,48.927,197.437,49.184z M195.288,48.088v3.614h0.636v-1.427h0.482c0.331,0,0.562,0.043,0.689,0.114   c0.221,0.137,0.326,0.411,0.326,0.833v0.286l0.025,0.152l0.013,0.042h0.586l-0.022-0.052l-0.035-0.186l-0.009-0.268v-0.257   c0-0.191-0.058-0.375-0.194-0.565c-0.123-0.188-0.325-0.312-0.602-0.351c0.219-0.038,0.401-0.093,0.518-0.175   c0.221-0.152,0.345-0.385,0.345-0.716c0-0.457-0.178-0.761-0.546-0.906c-0.207-0.09-0.532-0.138-0.976-0.138H195.288"
   id="path14" />
	<g
   id="g22">
		<path
   fill="#FFFFFF"
   d="M90.901,67.635c-4.38-4.381-10.835-7.146-18.673-7.146c-12.335,0-20.405,9.106-20.405,22.248    c0,13.486,8.76,22.248,20.979,22.248c7.84,0,13.488-2.307,19.253-7.033v15.1c-6.344,3.805-12.911,5.072-19.828,5.072    c-21.441,0-35.388-14.523-35.388-35.387c0-20.98,14.522-35.392,35.388-35.392c6.917,0,13.139,1.384,18.673,4.612V67.635z"
   id="path16" />
		<path
   fill="#FFFFFF"
   d="M144.078,104.176v12.797H99.7V48.499h43.689v12.795h-29.281v14.987h26.86v12.562h-26.86v15.332H144.078z"
   id="path18" />
		<path
   fill="#FFFFFF"
   d="M150.598,98.643c5.186,3.92,10.951,7.031,18.558,7.031c5.88,0,11.066-2.074,11.066-7.723    c0-5.188-4.265-7.148-11.413-9.223c-13.717-3.805-19.363-9.566-19.363-21.094c0-13.026,10.145-20.29,22.823-20.29    c7.726,0.001,13.37,1.962,18.214,5.073v14.409c-5.42-4.379-10.951-7.031-17.751-7.031c-5.881,0-9.108,2.883-9.108,7.147    c0,4.843,3.918,6.802,11.873,8.993c13.718,3.918,19.02,10.027,19.02,21.555c0,14.295-11.296,20.635-25.36,20.633    c-7.493,0-14.18-2.072-18.558-4.955V98.643z"
   id="path20" />
	</g>
</g>
<text
   xml:space="preserve"
   style="font-style:normal;font-variant:normal;font-weight:normal;font-stretch:normal;font-size:46.068px;line-height:1.25;font-family:Nunito;-inkscape-font-specification:'Nunito, Normal';word-spacing:0px;fill:#000000;fill-opacity:1;stroke:#ffff00;stroke-width:1.1517;font-variant-ligatures:normal;font-variant-caps:normal;font-variant-numeric:normal;font-variant-east-asian:normal"
   x="67.83448"
   y="41.987675"
   id="text1128"><tspan
     sodipodi:role="line"
     id="tspan438">2025</tspan></text><text
   xml:space="preserve"
   style="font-size:40px;line-height:1.25;font-family:Nunito;-inkscape-font-specification:Nunito;word-spacing:0px"
   x="302.45746"
   y="41.115311"
   id="text9682"><tspan
     sodipodi:role="line"
     id="tspan9680" /></text></svg>
